<svg width="51" height="51" viewBox="0 0 51 51" fill="none" xmlns="http://www.w3.org/2000/svg">
<path d="M38.8825 29.0059V14.2587C38.8825 10.5632 35.8594 7.54004 32.1639 7.54004H9.8713C6.17579 7.54004 3.15265 10.5632 3.15265 14.2587V29.0059C3.15265 32.5171 5.88195 35.4157 9.31847 35.6996C9.31847 35.6996 8.32237 43.4393 9.56251 43.4393C10.8026 43.4393 18.9457 35.7245 18.9457 35.7245H32.1589C35.8594 35.7245 38.8825 32.7014 38.8825 29.0059ZM17.7604 32.7362L16.8938 33.553C16.8788 33.568 15.1755 35.1816 13.2481 36.8949C12.8247 37.2685 12.4412 37.6071 12.0876 37.9159C12.1822 36.875 12.2818 36.0931 12.2818 36.0831L12.6803 32.9803L9.56251 32.7213C7.64503 32.5619 6.14093 30.9283 6.14093 29.0059V14.2587C6.14093 13.2676 6.52941 12.3362 7.24161 11.629C7.94884 10.9218 8.88517 10.5283 9.8713 10.5283H32.1639C33.155 10.5283 34.0863 10.9168 34.7936 11.629C35.5008 12.3362 35.8942 13.2726 35.8942 14.2587V29.0059C35.8942 29.997 35.5058 30.9283 34.7936 31.6355C34.0863 32.3428 33.15 32.7362 32.1639 32.7362H17.7604Z" fill="#1E3F7F"/>
<path d="M41.3528 16.8292C40.546 16.6649 39.7541 17.1829 39.5897 17.9897C39.4254 18.7965 39.9434 19.5884 40.7502 19.7528C42.6926 20.1512 44.1021 21.8794 44.1021 23.8617V32.6771C44.1021 34.749 42.5531 36.537 40.5012 36.8308L38.8726 37.0649L39.261 38.6636C39.3606 39.067 39.4553 39.5003 39.5499 39.9237C38.6733 39.1069 37.6922 38.1706 36.8007 37.299L36.3674 36.8707H28.0151C26.9244 36.8707 26.1923 36.8009 25.6644 36.4423C24.982 35.9791 24.0507 36.1535 23.5875 36.8358C23.1243 37.5181 23.2986 38.4495 23.981 38.9126C25.2609 39.7842 26.7352 39.8589 28.0151 39.8589H35.1472C35.6452 40.342 36.5068 41.1688 37.3884 41.9906C38.1952 42.7426 38.8626 43.3403 39.3706 43.7786C40.3667 44.6252 40.8299 44.9291 41.4425 44.9291C41.9256 44.9291 42.3738 44.7099 42.6776 44.3264C43.1807 43.6839 43.1856 42.8771 42.7025 40.4068C42.6328 40.0482 42.5581 39.6996 42.4884 39.3808C45.1978 38.3299 47.0903 35.6803 47.0903 32.6771V23.8617C47.0953 20.475 44.6798 17.5166 41.3528 16.8292Z" fill="#1E3F7F"/>
<path d="M12.75 18.7002H29.75" stroke="#EF851E" stroke-width="3.75" stroke-linecap="round"/>
<path d="M12.75 26.1377H24.4375" stroke="#EF851E" stroke-width="3.75" stroke-linecap="round"/>
</svg>
