<svg width="30" height="28" viewBox="0 0 30 28" fill="none" xmlns="http://www.w3.org/2000/svg">
<path d="M25.0529 7.35059H5.04087C2.80303 7.35059 0.984375 9.24199 0.984375 11.5693V23.3818C0.984375 25.7092 2.80303 27.6006 5.04087 27.6006H25.0529C27.2907 27.6006 29.1094 25.7092 29.1094 23.3818V11.5693C29.1094 9.24199 27.2907 7.35059 25.0529 7.35059Z" fill="#1D3D7E"/>
<path d="M21.7195 0.675584L5.20312 4.07984C3.9375 4.3765 2.10938 5.71892 2.10938 7.35059C2.10938 7.35059 3.16406 5.94142 5.55469 5.94142H25.7344V4.421C25.7344 3.4865 25.3828 2.29242 24.757 1.63233C23.9625 0.794251 22.8234 0.430834 21.7195 0.675584Z" fill="#F18820"/>
</svg>
