<svg width="119" height="162" viewBox="0 0 119 162" fill="none" xmlns="http://www.w3.org/2000/svg">
<path d="M69.96 161.948H14.6667C10.7768 161.948 7.0463 160.403 4.29577 157.652C1.54523 154.902 0 151.171 0 147.282V15.2816C0 7.1416 6.52667 0.614929 14.6667 0.614929H88C91.8898 0.614929 95.6204 2.16016 98.3709 4.9107C101.121 7.66123 102.667 11.3918 102.667 15.2816V88.6149C97.5333 88.6149 92.62 89.5683 88 91.1816V29.9483H14.6667V132.615H58.6667C58.6667 143.908 62.92 154.175 69.96 161.948Z" fill="#1E376F"/>
<path fill-rule="evenodd" clip-rule="evenodd" d="M88.5886 130.312L81.3492 127.9C73.7718 125.376 69.9814 124.113 69.9814 121.791C69.9814 119.473 73.7718 118.207 81.3492 115.682L108.764 106.543C114.097 104.765 116.763 103.877 118.171 105.284C119.578 106.691 118.689 109.358 116.915 114.687L107.772 142.105C105.247 149.683 103.985 153.473 101.663 153.473C99.3445 153.473 98.0789 149.683 95.5542 142.105L93.1389 134.869L107.16 120.848C107.747 120.24 108.071 119.427 108.064 118.583C108.057 117.738 107.718 116.93 107.121 116.333C106.524 115.736 105.716 115.398 104.872 115.39C104.028 115.383 103.214 115.708 102.607 116.294L88.5886 130.312Z" fill="#F18820"/>
</svg>
