<svg width="298" height="314" viewBox="0 0 298 314" fill="none" xmlns="http://www.w3.org/2000/svg">
<path d="M297.552 155.735C297.552 242.86 224.216 313.489 133.753 313.489C43.2892 313.489 -35.5979 250.387 17.7495 155.735C32.9917 23.0031 43.3437 0.510742 133.807 0.510742C221.087 26.9951 297.552 68.6091 297.552 155.735Z" fill="#89E98B" fill-opacity="0.08"/>
<path fill-rule="evenodd" clip-rule="evenodd" d="M110.875 88.375C102.453 88.375 95.625 95.2027 95.625 103.625V196.65C95.625 203.182 95.6309 207.622 95.9113 211.054C96.1844 214.396 96.6795 216.106 97.2872 217.299C98.7492 220.168 101.082 222.501 103.952 223.963C105.144 224.57 106.854 225.065 110.197 225.338C113.629 225.619 118.069 225.625 124.6 225.625H173.4C179.932 225.625 184.372 225.619 187.804 225.338C191.146 225.065 192.856 224.57 194.049 223.963C196.918 222.501 199.251 220.168 200.713 217.299C201.32 216.106 201.815 214.396 202.088 211.054C202.369 207.622 202.375 203.182 202.375 196.65V164.625C202.375 147.781 188.719 134.125 171.875 134.125H166.156C152.47 134.125 141.375 123.03 141.375 109.344C141.375 97.7631 131.987 88.375 120.406 88.375H110.875ZM133.75 73.125C180.073 73.125 217.625 110.677 217.625 157V196.965C217.625 203.103 217.625 208.168 217.288 212.295C216.938 216.581 216.186 220.521 214.3 224.222C211.376 229.961 206.711 234.626 200.972 237.55C197.271 239.436 193.331 240.188 189.045 240.538C184.918 240.875 179.853 240.875 173.715 240.875H124.285C118.147 240.875 113.081 240.875 108.955 240.538C104.669 240.188 100.729 239.436 97.0283 237.55C91.2894 234.626 86.6235 229.961 83.6993 224.222C81.8137 220.521 81.0622 216.581 80.712 212.295C80.3748 208.168 80.3749 203.103 80.375 196.965V103.625C80.375 86.7803 94.0303 73.125 110.875 73.125H133.75ZM194.349 124.766C185.499 108.162 170.024 95.6244 151.452 90.68C154.736 96.1306 156.625 102.517 156.625 109.344C156.625 114.608 160.892 118.875 166.156 118.875H171.875C180.043 118.875 187.711 121.016 194.349 124.766Z" fill="#4CB04E"/>
<path d="M109.5 204.643H189.5V212.5H109.5V204.643ZM109.5 185.064H189.5V192.921H109.5V185.064ZM109.5 165.5H189.5V173.357H109.5V165.5Z" fill="#175218"/>
<path d="M120 154.5C125.247 154.5 129.5 150.471 129.5 145.5C129.5 140.529 125.247 136.5 120 136.5C114.753 136.5 110.5 140.529 110.5 145.5C110.5 150.471 114.753 154.5 120 154.5Z" fill="#175218"/>
</svg>
