<svg width="36" height="45" viewBox="0 0 36 45" fill="none" xmlns="http://www.w3.org/2000/svg">
<path d="M16.8019 0C19.1305 0 20.4474 0.331343 21.9943 1.81791L22.1733 1.99433L33.9882 13.7687C35.4055 15.1925 35.8548 16.2439 35.9671 18.0985L35.989 18.5794L35.9982 19.0979L36 38.4304C36 42.7093 33.8823 44.9113 29.6277 44.9973L29.3647 45H6.63528C2.31404 45 0.0904066 42.9036 0.00273982 38.691L0 38.4304V6.59015C0 2.31224 2.13779 0.0895521 6.37319 0.00268637L6.63528 0H16.8019ZM16.3307 3.37881H6.82796C4.67282 3.37881 3.5222 4.5 3.44914 6.45493L3.44549 6.65373V38.3678C3.44549 40.3988 4.52854 41.5451 6.59601 41.6167L6.80605 41.6212H29.194C31.3482 41.6212 32.4796 40.5394 32.5509 38.5675L32.5545 38.3678V19.5197H20.3542C17.7763 19.5197 16.4092 18.2919 16.3334 15.797L16.3307 15.5731V3.37881ZM8.98311 26.9149C9.77119 26.9149 10.4095 27.5418 10.4095 28.3146V38.1116C10.4095 38.8836 9.77028 39.5104 8.98311 39.5104H7.55578C6.76769 39.5104 6.12846 38.8836 6.12846 38.1107V28.3137C6.12846 27.5418 6.76769 26.9149 7.55578 26.9149H8.98311ZM21.8272 31.1131C22.6153 31.1131 23.2536 31.74 23.2536 32.5128V38.1107C23.2536 38.8836 22.6144 39.5104 21.8272 39.5104H20.3999C19.6118 39.5104 18.9726 38.8836 18.9726 38.1107V32.5137C18.9726 31.74 19.6118 31.1131 20.3999 31.1131H21.8272ZM15.4047 22.7167C16.1928 22.7167 16.832 23.3436 16.832 24.1155V38.1107C16.832 38.8836 16.1928 39.5104 15.4047 39.5104H13.9774C13.1893 39.5104 12.551 38.8836 12.551 38.1107V24.1164C12.551 23.3436 13.1902 22.7176 13.9774 22.7176L15.4047 22.7167ZM19.5625 4.02985V15.1746C19.5625 15.9654 19.8657 16.3093 20.5971 16.3469L20.7396 16.3504H31.8897L19.5625 4.02985Z" fill="#4CAF4E"/>
</svg>
