<svg width="29" height="29" viewBox="0 0 29 29" fill="none" xmlns="http://www.w3.org/2000/svg">
<g clip-path="url(#clip0_1750_1158)">
<path d="M14.5 3.02051C15.501 3.02051 16.3125 3.83199 16.3125 4.83301C16.3125 5.83403 15.501 6.64551 14.5 6.64551H8.45834C8.12467 6.64551 7.85417 6.91601 7.85417 7.24967V21.7497C7.85417 22.0833 8.12467 22.3538 8.45834 22.3538H13.8958C14.8968 22.3538 15.7083 23.1654 15.7083 24.1663C15.7083 25.1673 14.8968 25.9788 13.8958 25.9788H8.45834C6.12263 25.9788 4.22917 24.0854 4.22917 21.7497V7.24967C4.22917 4.91397 6.12263 3.02051 8.45834 3.02051H14.5ZM21.8232 9.80036L25.2409 13.218C25.9487 13.9258 25.9487 15.0735 25.2409 15.7814L21.8232 19.199C21.1154 19.9068 19.9678 19.9068 19.26 19.199C18.5522 18.4912 18.5522 17.3436 19.26 16.6358L19.5835 16.3122H14.5C13.499 16.3122 12.6875 15.5007 12.6875 14.4997C12.6875 13.4987 13.499 12.6872 14.5 12.6872H19.5835L19.26 12.3636C18.5522 11.6558 18.5522 10.5082 19.26 9.80036C19.9678 9.09254 21.1154 9.09254 21.8232 9.80036Z" fill="#FBFAFD"/>
</g>
<defs>
<clipPath id="clip0_1750_1158">
<rect width="29" height="29" fill="white"/>
</clipPath>
</defs>
</svg>
