<svg width="47" height="47" viewBox="0 0 47 47" fill="none" xmlns="http://www.w3.org/2000/svg">
<path d="M27.3125 27.9062C27.3125 28.8895 26.5145 29.6875 25.5312 29.6875H11.2812C10.298 29.6875 9.5 28.8895 9.5 27.9062C9.5 26.923 10.298 26.125 11.2812 26.125H25.5312C26.5145 26.125 27.3125 26.923 27.3125 27.9062ZM18.4062 33.25H11.2812C10.298 33.25 9.5 34.048 9.5 35.0312C9.5 36.0145 10.298 36.8125 11.2812 36.8125H18.4062C19.3895 36.8125 20.1875 36.0145 20.1875 35.0312C20.1875 34.048 19.3895 33.25 18.4062 33.25ZM46.3125 21.9688V39.7812C46.3125 43.3841 43.3841 46.3125 39.7812 46.3125H8.90625C3.1635 46.3125 0 43.149 0 37.4062V8.90625C0 3.1635 3.1635 0 8.90625 0H27.9062C33.649 0 36.8125 3.1635 36.8125 8.90625V16.625H40.9688C43.9161 16.625 46.3125 19.0214 46.3125 21.9688ZM33.9649 42.75C33.5089 41.8594 33.25 40.85 33.25 39.7812V8.90625C33.25 5.16087 31.6516 3.5625 27.9062 3.5625H8.90625C5.16087 3.5625 3.5625 5.16087 3.5625 8.90625V37.4062C3.5625 41.1516 5.16087 42.75 8.90625 42.75H33.9649ZM42.75 21.9688C42.75 20.9855 41.952 20.1875 40.9688 20.1875H36.8125V39.7812C36.8125 41.4176 38.1449 42.75 39.7812 42.75C41.4176 42.75 42.75 41.4176 42.75 39.7812V21.9688ZM12.7846 16.2829L14.991 16.8529C15.3544 16.9479 15.6086 17.3042 15.6086 17.7174C15.6086 18.0499 15.4471 18.2663 15.3544 18.3636C15.2499 18.4729 15.0694 18.6034 14.8177 18.6034H13.8557C13.4615 18.6034 13.1171 18.2565 13.0696 17.8171C12.9627 16.8386 12.0959 16.1335 11.1056 16.238C10.1271 16.3425 9.42159 17.2234 9.52609 18.2019C9.71847 19.9879 10.9298 21.4131 12.5234 21.938V21.9688C12.5234 22.952 13.3214 23.75 14.3046 23.75C15.2879 23.75 16.0859 22.952 16.0859 21.9688V21.9522C16.7675 21.7385 17.3969 21.3751 17.917 20.8384C18.7245 19.9976 19.1686 18.8909 19.1686 17.72C19.1686 15.687 17.8221 13.9152 15.8864 13.4069L13.6776 12.8369C13.4638 12.7799 13.3261 12.6444 13.2382 12.5328C13.1266 12.3856 13.0602 12.1814 13.0602 11.9724C13.0602 11.4832 13.4139 11.0841 13.8509 11.0841H14.8129C15.2119 11.0841 15.5515 11.4215 15.599 11.8704C15.7035 12.8489 16.5633 13.5469 17.5632 13.4495C18.5417 13.345 19.247 12.4641 19.1425 11.4856C18.9477 9.67827 17.7079 8.24121 16.0834 7.73296V7.72107C16.0834 6.73782 15.2854 5.93982 14.3022 5.93982C13.3189 5.93982 12.5209 6.73782 12.5209 7.72107V7.75673C10.7729 8.33385 9.49768 9.99404 9.49768 11.9724C9.49768 12.958 9.81828 13.9223 10.3954 14.6799C10.9892 15.4661 11.8346 16.0359 12.7846 16.2829Z" fill="#4CB04E"/>
</svg>
