<svg width="47" height="47" viewBox="0 0 47 47" fill="none" xmlns="http://www.w3.org/2000/svg">
<path d="M39.2857 14.1607L37.5714 7.30358C37.4776 6.92323 37.2563 6.58649 36.9443 6.34944C36.6324 6.11238 36.2487 5.98932 35.8571 6.00073H29C28.5453 6.00073 28.1093 6.18134 27.7878 6.50283C27.4663 6.82432 27.2857 7.26036 27.2857 7.71501C27.2857 8.16967 27.4663 8.60571 27.7878 8.9272C28.1093 9.24869 28.5453 9.4293 29 9.4293H32.6343C25.2114 19.1836 11.6857 21.4293 6.71429 21.4293C6.25963 21.4293 5.82359 21.6099 5.5021 21.9314C5.18061 22.2529 5 22.6889 5 23.1436C5 23.5982 5.18061 24.0343 5.5021 24.3558C5.82359 24.6773 6.25963 24.8579 6.71429 24.8579C12.1314 24.8579 26.7886 22.3722 35.1029 11.7779L35.8571 14.9836C35.9112 15.2087 36.009 15.421 36.1451 15.6083C36.2811 15.7956 36.4528 15.9543 36.6502 16.0753C36.8476 16.1962 37.0668 16.2772 37.2955 16.3134C37.5242 16.3496 37.7577 16.3405 37.9829 16.2864C38.208 16.2324 38.4203 16.1346 38.6076 15.9985C38.7949 15.8624 38.9536 15.6908 39.0745 15.4934C39.1955 15.296 39.2764 15.0767 39.3127 14.8481C39.3489 14.6194 39.3397 14.3859 39.2857 14.1607Z" fill="#EF851E"/>
<path d="M41 21.4291V38.572C41 39.0266 40.8194 39.4627 40.4979 39.7842C40.1764 40.1057 39.7404 40.2863 39.2857 40.2863H34.1429C33.6882 40.2863 33.2522 40.1057 32.9307 39.7842C32.6092 39.4627 32.4286 39.0266 32.4286 38.572V21.4291C32.4286 20.9745 32.6092 20.5384 32.9307 20.2169C33.2522 19.8955 33.6882 19.7148 34.1429 19.7148H39.2857C39.7404 19.7148 40.1764 19.8955 40.4979 20.2169C40.8194 20.5384 41 20.9745 41 21.4291ZM25.5714 26.572H20.4286C19.9739 26.572 19.5379 26.7526 19.2164 27.0741C18.8949 27.3956 18.7143 27.8316 18.7143 28.2863V38.572C18.7143 39.0266 18.8949 39.4627 19.2164 39.7842C19.5379 40.1057 19.9739 40.2863 20.4286 40.2863H25.5714C26.0261 40.2863 26.4621 40.1057 26.7836 39.7842C27.1051 39.4627 27.2857 39.0266 27.2857 38.572V28.2863C27.2857 27.8316 27.1051 27.3956 26.7836 27.0741C26.4621 26.7526 26.0261 26.572 25.5714 26.572ZM11.8571 30.0006H6.71429C6.25963 30.0006 5.82359 30.1812 5.5021 30.5027C5.18061 30.8242 5 31.2602 5 31.7148V38.572C5 39.0266 5.18061 39.4627 5.5021 39.7842C5.82359 40.1057 6.25963 40.2863 6.71429 40.2863H11.8571C12.3118 40.2863 12.7478 40.1057 13.0693 39.7842C13.3908 39.4627 13.5714 39.0266 13.5714 38.572V31.7148C13.5714 31.2602 13.3908 30.8242 13.0693 30.5027C12.7478 30.1812 12.3118 30.0006 11.8571 30.0006Z" fill="#1E3F7F"/>
</svg>
