<svg width="45" height="45" viewBox="0 0 45 45" fill="none" xmlns="http://www.w3.org/2000/svg">
<path fill-rule="evenodd" clip-rule="evenodd" d="M10.623 16.9873C10 18.1255 10 19.4986 10 22.2447V24.07C10 28.751 10 31.0916 11.4059 32.5457C12.8118 34 15.0745 34 19.6 34H24.4C28.9254 34 31.1883 34 32.5941 32.5457C34 31.0916 34 28.751 34 24.07V22.2447C34 19.4986 34 18.1255 33.377 16.9873C32.7539 15.8491 31.6157 15.1426 29.3392 13.7297L26.9392 12.2402C24.5327 10.7467 23.3295 10 22 10C20.6705 10 19.4673 10.7467 17.0608 12.2402L14.6608 13.7298C12.3843 15.1426 11.2461 15.8491 10.623 16.9873ZM18.4 28.3C17.9029 28.3 17.5 28.703 17.5 29.2C17.5 29.697 17.9029 30.1 18.4 30.1H25.6C26.097 30.1 26.5 29.697 26.5 29.2C26.5 28.703 26.097 28.3 25.6 28.3H18.4Z" fill="#A6A39D"/>
</svg>
