<svg width="77" height="84" viewBox="0 0 77 84" fill="none" xmlns="http://www.w3.org/2000/svg">
<path d="M30.652 81.2042L67.7358 61.9871C70.5818 60.3359 72.9237 58.0551 74.5434 55.357C76.1631 52.6588 77.0081 49.6309 76.9998 46.5549C77.0149 43.3977 76.1708 40.2864 74.543 37.4998C72.9152 34.7132 70.5547 32.3385 67.673 30.5883C67.673 30.5883 53.0934 23.1839 41.3112 16.8736C39.8329 16.0953 38.1567 15.6838 36.4496 15.6803C34.7426 15.6768 33.0644 16.0814 31.5823 16.8537C30.1001 17.626 28.8659 18.7391 28.0025 20.0819C27.1392 21.4248 26.6769 22.9505 26.6618 24.5071C26.6626 26.0446 27.0999 27.5557 27.9312 28.8934C28.7625 30.2311 29.9594 31.3497 31.4054 32.1405L52.1238 42.9163C54.7188 44.3285 54.7188 48.2533 52.1238 49.6719L25.4689 63.1639C24.8796 63.4832 24.2102 63.6591 23.5249 63.6749C22.8396 63.6907 22.1613 63.5457 21.5551 63.254C20.9488 62.9622 20.4348 62.5334 20.0623 62.0087C19.6899 61.4839 19.4714 60.8807 19.4278 60.2569L19.4278 7.67315C19.4278 -1.63961 11.1196 0.135159 11.1196 0.135159L4.88312 1.64912C3.54449 1.98368 2.35405 2.69153 1.47846 3.6736C0.602867 4.65568 0.0859418 5.86283 1.15799e-06 7.12609C1.15799e-06 7.30421 1.15799e-06 7.49504 1.15799e-06 7.67315L0 66.3636C0 66.5353 0 66.7325 0 66.8979C0.190595 69.85 1.16993 72.7148 2.85269 75.2427C4.53545 77.7706 6.87056 79.8849 9.6546 81.4014C12.835 83.1349 16.4787 84.0338 20.1838 83.999C23.8889 83.9642 27.5114 82.9971 30.652 81.2042Z" fill="white"/>
</svg>
