<svg width="298" height="314" viewBox="0 0 298 314" fill="none" xmlns="http://www.w3.org/2000/svg">
<path d="M297.367 155.736C297.367 242.861 224.032 313.49 133.568 313.49C43.1046 313.49 -35.7825 250.388 17.5649 155.736C32.8071 23.004 43.1591 0.511719 133.623 0.511719C220.903 26.9961 297.367 68.6101 297.367 155.736Z" fill="#F8F9FB"/>
<path fill-rule="evenodd" clip-rule="evenodd" d="M213.076 111.514C214.537 109.859 215.28 107.692 215.143 105.489C215.005 103.286 213.999 101.227 212.344 99.7666C210.689 98.3059 208.522 97.5624 206.319 97.6997C204.116 97.837 202.057 98.8438 200.597 100.499L147.06 161.065L120.579 139.492C119.733 138.802 118.758 138.285 117.712 137.971C116.665 137.657 115.567 137.552 114.48 137.663C112.285 137.886 110.268 138.972 108.874 140.682C108.183 141.529 107.666 142.503 107.352 143.55C107.038 144.596 106.934 145.694 107.044 146.781C107.267 148.977 108.353 150.993 110.063 152.388L142.751 179.01C144.416 180.365 146.541 181.024 148.68 180.849C150.82 180.673 152.809 179.678 154.232 178.07L213.076 111.514Z" fill="#F18820"/>
<path fill-rule="evenodd" clip-rule="evenodd" d="M90.5756 157.02C90.5728 147.721 92.7967 138.557 97.0611 130.294C101.326 122.031 107.507 114.909 115.088 109.525C122.668 104.14 131.428 100.649 140.635 99.3429C149.841 98.0372 159.226 98.955 168.006 102.02C170.09 102.745 172.377 102.614 174.364 101.653C176.35 100.693 177.875 98.9829 178.6 96.8988C179.326 94.8148 179.195 92.5278 178.234 90.5408C177.274 88.5539 175.564 87.0298 173.48 86.3039C158.15 80.9556 141.497 80.7352 126.03 85.676C110.564 90.6167 97.123 100.451 87.7327 113.696C78.3424 126.941 73.5119 142.88 73.9692 159.11C74.4265 175.34 80.1468 190.981 90.268 203.676C100.389 216.372 114.363 225.434 130.083 229.496C145.803 233.558 162.417 232.4 177.421 226.197C192.426 219.994 205.008 209.082 213.27 195.105C221.533 181.129 225.029 164.845 223.231 148.709C223.11 147.623 222.778 146.571 222.251 145.614C221.724 144.657 221.014 143.812 220.161 143.129C219.309 142.446 218.329 141.938 217.28 141.634C216.231 141.329 215.132 141.234 214.046 141.354C212.96 141.475 211.908 141.807 210.951 142.334C209.994 142.861 209.149 143.571 208.466 144.424C207.783 145.276 207.275 146.255 206.971 147.305C206.666 148.354 206.571 149.453 206.691 150.539C207.568 158.409 206.83 166.374 204.523 173.949C202.217 181.523 198.39 188.548 193.276 194.594C188.163 200.639 181.87 205.578 174.783 209.109C167.696 212.64 159.963 214.689 152.058 215.13C144.152 215.572 136.239 214.396 128.803 211.676C121.367 208.955 114.564 204.747 108.81 199.308C103.055 193.869 98.4702 187.314 95.3351 180.043C92.1999 172.772 90.5804 164.938 90.5756 157.02Z" fill="#1D3E80"/>
</svg>
