<svg width="45" height="45" viewBox="0 0 45 45" fill="none" xmlns="http://www.w3.org/2000/svg">
<path d="M19.7591 21.0104H12.2513C11.5363 21.0104 11 20.4741 11 19.7591V12.2513C11 11.5363 11.5363 11 12.2513 11H19.7591C20.4741 11 21.0104 11.5363 21.0104 12.2513V19.7591C21.0104 20.4145 20.4145 21.0104 19.7591 21.0104ZM13.5026 18.5078H18.5078V13.5026H13.5026V18.5078ZM32.7487 21.0104H25.2409C24.5259 21.0104 23.9896 20.4741 23.9896 19.7591V12.2513C23.9896 11.5363 24.5259 11 25.2409 11H32.7487C33.4637 11 34 11.5363 34 12.2513V19.7591C34 20.4145 33.4041 21.0104 32.7487 21.0104ZM26.4922 18.5078H31.4974V13.5026H26.4922V18.5078ZM19.7591 34H12.2513C11.5363 34 11 33.4637 11 32.7487V25.2409C11 24.5259 11.5363 23.9896 12.2513 23.9896H19.7591C20.4741 23.9896 21.0104 24.5259 21.0104 25.2409V32.7487C21.0104 33.4637 20.4145 34 19.7591 34ZM13.5026 31.4974H18.5078V26.4922H13.5026V31.4974ZM32.7487 34H25.2409C24.5259 34 23.9896 33.4637 23.9896 32.7487V25.2409C23.9896 24.5259 24.5259 23.9896 25.2409 23.9896H32.7487C33.4637 23.9896 34 24.5259 34 25.2409V32.7487C34 33.4637 33.4041 34 32.7487 34ZM26.4922 31.4974H31.4974V26.4922H26.4922V31.4974Z" fill="#A6A39D"/>
</svg>
