<svg width="298" height="314" viewBox="0 0 298 314" fill="none" xmlns="http://www.w3.org/2000/svg">
<path d="M297.552 155.735C297.552 242.86 224.216 313.489 133.753 313.489C43.2892 313.489 -35.5979 250.387 17.7495 155.735C32.9917 23.0031 43.3437 0.510742 133.807 0.510742C221.087 26.9951 297.552 68.6091 297.552 155.735Z" fill="#F6FDF6"/>
<path d="M131.583 183.125V200.542C131.583 202.851 130.666 205.066 129.033 206.699C127.4 208.333 125.185 209.25 122.875 209.25H105.458C103.149 209.25 100.934 208.333 99.3006 206.699C97.6675 205.066 96.75 202.851 96.75 200.542V183.125C96.75 180.815 97.6675 178.6 99.3006 176.967C100.934 175.334 103.149 174.417 105.458 174.417H122.875C125.185 174.417 127.4 175.334 129.033 176.967C130.666 178.6 131.583 180.815 131.583 183.125ZM192.542 104.75H175.125C172.815 104.75 170.6 105.667 168.967 107.301C167.334 108.934 166.417 111.149 166.417 113.458V130.875C166.417 133.185 167.334 135.4 168.967 137.033C170.6 138.666 172.815 139.583 175.125 139.583H192.542C194.851 139.583 197.066 138.666 198.699 137.033C200.333 135.4 201.25 133.185 201.25 130.875V113.458C201.25 111.149 200.333 108.934 198.699 107.301C197.066 105.667 194.851 104.75 192.542 104.75ZM192.542 157H157.708C155.399 157 153.184 157.917 151.551 159.551C149.917 161.184 149 163.399 149 165.708V200.542C149 202.851 149.917 205.066 151.551 206.699C153.184 208.333 155.399 209.25 157.708 209.25H192.542C194.851 209.25 197.066 208.333 198.699 206.699C200.333 205.066 201.25 202.851 201.25 200.542V165.708C201.25 163.399 200.333 161.184 198.699 159.551C197.066 157.917 194.851 157 192.542 157ZM149 113.458C149 111.149 148.083 108.934 146.449 107.301C144.816 105.667 142.601 104.75 140.292 104.75H105.458C103.149 104.75 100.934 105.667 99.3006 107.301C97.6675 108.934 96.75 111.149 96.75 113.458V148.292C96.75 150.601 97.6675 152.816 99.3006 154.449C100.934 156.083 103.149 157 105.458 157H140.292C142.601 157 144.816 156.083 146.449 154.449C148.083 152.816 149 150.601 149 148.292V113.458Z" fill="#175218"/>
<path d="M70.6253 130.875C68.3157 130.875 66.1007 129.958 64.4676 128.325C62.8345 126.692 61.917 124.477 61.917 122.167V87.3337C61.917 82.7145 63.752 78.2845 67.0182 75.0182C70.2845 71.752 74.7145 69.917 79.3337 69.917H114.167C116.477 69.917 118.692 70.8345 120.325 72.4676C121.958 74.1007 122.875 76.3157 122.875 78.6253C122.875 80.9349 121.958 83.1499 120.325 84.783C118.692 86.4162 116.477 87.3337 114.167 87.3337H79.3337V122.167C79.3337 124.477 78.4162 126.692 76.783 128.325C75.1499 129.958 72.9349 130.875 70.6253 130.875ZM236.084 122.167V87.3337C236.084 82.7145 234.249 78.2845 230.982 75.0182C227.716 71.752 223.286 69.917 218.667 69.917H183.834C181.524 69.917 179.309 70.8345 177.676 72.4676C176.043 74.1007 175.125 76.3157 175.125 78.6253C175.125 80.9349 176.043 83.1499 177.676 84.783C179.309 86.4162 181.524 87.3337 183.834 87.3337H218.667V122.167C218.667 124.477 219.584 126.692 221.218 128.325C222.851 129.958 225.066 130.875 227.375 130.875C229.685 130.875 231.9 129.958 233.533 128.325C235.166 126.692 236.084 124.477 236.084 122.167ZM122.875 235.375C122.875 233.066 121.958 230.851 120.325 229.218C118.692 227.584 116.477 226.667 114.167 226.667H79.3337V191.834C79.3337 189.524 78.4162 187.309 76.783 185.676C75.1499 184.043 72.9349 183.125 70.6253 183.125C68.3157 183.125 66.1007 184.043 64.4676 185.676C62.8345 187.309 61.917 189.524 61.917 191.834V226.667C61.917 231.286 63.752 235.716 67.0182 238.982C70.2845 242.249 74.7145 244.084 79.3337 244.084H114.167C116.477 244.084 118.692 243.166 120.325 241.533C121.958 239.9 122.875 237.685 122.875 235.375ZM236.084 226.667V191.834C236.084 189.524 235.166 187.309 233.533 185.676C231.9 184.043 229.685 183.125 227.375 183.125C225.066 183.125 222.851 184.043 221.218 185.676C219.584 187.309 218.667 189.524 218.667 191.834V226.667H183.834C181.524 226.667 179.309 227.584 177.676 229.218C176.043 230.851 175.125 233.066 175.125 235.375C175.125 237.685 176.043 239.9 177.676 241.533C179.309 243.166 181.524 244.084 183.834 244.084H218.667C223.286 244.084 227.716 242.249 230.982 238.982C234.249 235.716 236.084 231.286 236.084 226.667Z" fill="#4CB04E"/>
</svg>
