<svg width="95" height="86" viewBox="0 0 95 86" fill="none" xmlns="http://www.w3.org/2000/svg">
<path d="M91.4653 26.0834V14C91.4653 8.66129 87.1376 4.33337 81.7987 4.33337H14.132C8.79324 4.33337 4.46533 8.66129 4.46533 14V38.1667C4.46533 43.5056 8.79324 47.8334 14.132 47.8334H42.5278M81.7987 52.6667V43C81.7987 37.6611 77.4709 33.3334 72.132 33.3334C66.7931 33.3334 62.4653 37.6611 62.4653 43V52.6667M57.632 81.6667H86.632C89.3015 81.6667 91.4653 79.5028 91.4653 76.8334V57.5C91.4653 54.8306 89.3015 52.6667 86.632 52.6667H57.632C54.9626 52.6667 52.7987 54.8306 52.7987 57.5V76.8334C52.7987 79.5028 54.9626 81.6667 57.632 81.6667Z" stroke="#4CB04E" stroke-width="7" stroke-linecap="round" stroke-linejoin="round"/>
<path d="M26.2153 33.3334C30.2194 33.3334 33.4653 30.0874 33.4653 26.0834C33.4653 22.0793 30.2194 18.8334 26.2153 18.8334C22.2113 18.8334 18.9653 22.0793 18.9653 26.0834C18.9653 30.0874 22.2113 33.3334 26.2153 33.3334Z" fill="#175218"/>
<path d="M47.9653 33.3334C51.9694 33.3334 55.2153 30.0874 55.2153 26.0834C55.2153 22.0793 51.9694 18.8334 47.9653 18.8334C43.9613 18.8334 40.7153 22.0793 40.7153 26.0834C40.7153 30.0874 43.9613 33.3334 47.9653 33.3334Z" fill="#175218"/>
</svg>
