<svg width="196" height="196" viewBox="0 0 196 196" fill="none" xmlns="http://www.w3.org/2000/svg">
<path d="M171.125 69.5625V49.25C171.125 40.2754 163.85 33 154.875 33H41.125C32.1504 33 24.875 40.2754 24.875 49.25V89.875C24.875 98.8499 32.1504 106.125 41.125 106.125H88.8594M154.875 114.25V98C154.875 89.0251 147.6 81.75 138.625 81.75C129.65 81.75 122.375 89.0251 122.375 98V114.25M114.25 163H163C167.487 163 171.125 159.362 171.125 154.875V122.375C171.125 117.888 167.487 114.25 163 114.25H114.25C109.763 114.25 106.125 117.888 106.125 122.375V154.875C106.125 159.362 109.763 163 114.25 163Z" stroke="#1D3E80" stroke-width="12" stroke-linecap="round" stroke-linejoin="round"/>
<path d="M61.4375 81.75C68.1685 81.75 73.625 76.2935 73.625 69.5625C73.625 62.8315 68.1685 57.375 61.4375 57.375C54.7065 57.375 49.25 62.8315 49.25 69.5625C49.25 76.2935 54.7065 81.75 61.4375 81.75Z" fill="#F18820"/>
<path d="M98 81.75C104.731 81.75 110.188 76.2935 110.188 69.5625C110.188 62.8315 104.731 57.375 98 57.375C91.269 57.375 85.8125 62.8315 85.8125 69.5625C85.8125 76.2935 91.269 81.75 98 81.75Z" fill="#F18820"/>
</svg>
