<svg width="52" height="52" viewBox="0 0 52 52" fill="none" xmlns="http://www.w3.org/2000/svg">
<path d="M15.9121 35.3512C16.6294 34.8125 17.5211 34.4932 18.4873 34.4932C20.8577 34.4932 22.7793 36.4148 22.7793 38.7852C22.7793 39.7514 22.46 40.6431 21.9212 41.3604M36.5137 35.3512C35.7964 34.8125 34.9047 34.4932 33.9385 34.4932C31.5681 34.4932 29.6465 36.4148 29.6465 38.7852C29.6465 39.7514 29.9658 40.6431 30.5045 41.3604M36.5135 22.4755C38.2104 22.4742 39.0999 22.4526 39.7893 22.1013C40.4354 21.7722 40.9607 21.2469 41.2898 20.6008C41.6641 19.8663 41.6641 18.9048 41.6641 16.9818V15.9518C41.6641 14.0288 41.6641 13.0673 41.2898 12.3328C40.9607 11.6867 40.4354 11.1614 39.7893 10.8323C39.0549 10.458 38.0933 10.458 36.1703 10.458H16.2555C14.3325 10.458 13.371 10.458 12.6365 10.8323C11.9904 11.1614 11.4651 11.6867 11.136 12.3328C10.7617 13.0673 10.7617 14.0288 10.7617 15.9518V16.9818C10.7617 18.9048 10.7617 19.8663 11.136 20.6008C11.4651 21.2469 11.9904 21.7722 12.6365 22.1013C13.3259 22.4526 14.2153 22.4742 15.9122 22.4755M36.5135 22.4755C36.5137 22.5865 36.5137 22.7008 36.5137 22.8189V35.8666C36.5137 37.7896 36.5137 38.7512 36.1394 39.4856C35.8103 40.1316 35.285 40.657 34.6389 40.9861C33.9045 41.3604 32.9429 41.3604 31.0199 41.3604H21.4059C19.4829 41.3604 18.5214 41.3604 17.7869 40.9861C17.1408 40.657 16.6155 40.1316 16.2864 39.4856C15.9121 38.7512 15.9121 37.7896 15.9121 35.8666V22.8189C15.9121 22.7008 15.9121 22.5865 15.9122 22.4755M36.5135 22.4755C36.5123 20.7788 36.4907 19.8894 36.1394 19.2C35.8103 18.5539 35.285 18.0286 34.6389 17.6994C33.9045 17.3252 32.9429 17.3252 31.0199 17.3252H21.4059C19.4829 17.3252 18.5214 17.3252 17.7869 17.6994C17.1408 18.0286 16.6155 18.5539 16.2864 19.2C15.9351 19.8894 15.9135 20.7788 15.9122 22.4755M29.6465 25.9092C29.6465 27.8056 28.1093 29.3428 26.2129 29.3428C24.3165 29.3428 22.7793 27.8056 22.7793 25.9092C22.7793 24.0128 24.3165 22.4756 26.2129 22.4756C28.1093 22.4756 29.6465 24.0128 29.6465 25.9092Z" stroke="#4CAF4E" stroke-width="3" stroke-linecap="round" stroke-linejoin="round"/>
<circle cx="26.2134" cy="25.9092" r="2.80371" fill="#4CAF4E"/>
</svg>
