<svg width="52" height="52" viewBox="0 0 52 52" fill="none" xmlns="http://www.w3.org/2000/svg">
<path d="M15.9121 35.3522C16.6294 34.8135 17.5211 34.4941 18.4873 34.4941C20.8577 34.4941 22.7793 36.4158 22.7793 38.7861C22.7793 39.7523 22.46 40.6441 21.9212 41.3613M36.5137 35.3522C35.7964 34.8135 34.9047 34.4941 33.9385 34.4941C31.5681 34.4941 29.6465 36.4158 29.6465 38.7861C29.6465 39.7523 29.9658 40.6441 30.5045 41.3613M36.5135 22.4765C38.2104 22.4752 39.0999 22.4536 39.7893 22.1023C40.4354 21.7731 40.9607 21.2479 41.2898 20.6018C41.6641 19.8673 41.6641 18.9058 41.6641 16.9828V15.9527C41.6641 14.0297 41.6641 13.0682 41.2898 12.3338C40.9607 11.6877 40.4354 11.1624 39.7893 10.8332C39.0549 10.459 38.0933 10.459 36.1703 10.459H16.2555C14.3325 10.459 13.371 10.459 12.6365 10.8332C11.9904 11.1624 11.4651 11.6877 11.136 12.3338C10.7617 13.0682 10.7617 14.0297 10.7617 15.9527V16.9828C10.7617 18.9058 10.7617 19.8673 11.136 20.6018C11.4651 21.2479 11.9904 21.7731 12.6365 22.1023C13.3259 22.4536 14.2153 22.4752 15.9122 22.4765M36.5135 22.4765C36.5137 22.5875 36.5137 22.7018 36.5137 22.8199V35.8676C36.5137 37.7906 36.5137 38.7521 36.1394 39.4866C35.8103 40.1326 35.285 40.658 34.6389 40.9871C33.9045 41.3613 32.9429 41.3613 31.0199 41.3613H21.4059C19.4829 41.3613 18.5214 41.3613 17.7869 40.9871C17.1408 40.658 16.6155 40.1326 16.2864 39.4866C15.9121 38.7521 15.9121 37.7906 15.9121 35.8676V22.8199C15.9121 22.7018 15.9121 22.5875 15.9122 22.4765M36.5135 22.4765C36.5123 20.7797 36.4907 19.8903 36.1394 19.2009C35.8103 18.5549 35.285 18.0296 34.6389 17.7004C33.9045 17.3262 32.9429 17.3262 31.0199 17.3262H21.4059C19.4829 17.3262 18.5214 17.3262 17.7869 17.7004C17.1408 18.0296 16.6155 18.5549 16.2864 19.2009C15.9351 19.8903 15.9135 20.7797 15.9122 22.4765M29.6465 25.9102C29.6465 27.8065 28.1093 29.3438 26.2129 29.3438C24.3165 29.3438 22.7793 27.8065 22.7793 25.9102C22.7793 24.0138 24.3165 22.4766 26.2129 22.4766C28.1093 22.4766 29.6465 24.0138 29.6465 25.9102Z" stroke="#1D3D7E" stroke-width="3" stroke-linecap="round" stroke-linejoin="round"/>
<circle cx="26.2139" cy="25.9092" r="2.80371" fill="#F18820"/>
</svg>
