<svg width="298" height="314" viewBox="0 0 298 314" fill="none" xmlns="http://www.w3.org/2000/svg">
<path d="M297.551 155.736C297.551 242.861 224.216 313.49 133.753 313.49C43.289 313.49 -35.598 250.388 17.7494 155.736C32.9915 23.004 43.3436 0.511719 133.807 0.511719C221.087 26.9961 297.551 68.6101 297.551 155.736Z" fill="#F8F9FB"/>
<path d="M143.767 141.171C145.27 139.668 147.308 138.824 149.433 138.824C151.558 138.824 153.597 139.668 155.1 141.171L171.129 157.2C172.589 158.712 173.397 160.736 173.379 162.838C173.36 164.939 172.517 166.949 171.031 168.435C169.545 169.921 167.535 170.764 165.434 170.783C163.332 170.801 161.308 169.993 159.796 168.533L157.448 166.185V226.984C157.448 229.11 156.604 231.149 155.1 232.652C153.597 234.155 151.559 234.999 149.433 234.999C147.308 234.999 145.269 234.155 143.766 232.652C142.263 231.149 141.418 229.11 141.418 226.984V166.185L139.07 168.533C137.559 169.993 135.534 170.801 133.433 170.783C131.331 170.764 129.321 169.921 127.835 168.435C126.349 166.949 125.506 164.939 125.488 162.838C125.47 160.736 126.277 158.712 127.737 157.2L143.767 141.171Z" fill="#1D3E80"/>
<path d="M141.066 95.032C136.787 95.0317 132.552 95.888 128.609 97.5505C124.666 99.2129 121.096 101.648 118.109 104.712C115.122 107.776 112.778 111.407 111.217 115.391C109.655 119.375 108.907 123.631 109.016 127.908C109.058 129.718 108.488 131.488 107.396 132.932C106.305 134.375 104.757 135.407 103.005 135.859C97.3545 137.339 92.4356 140.824 89.1656 145.663C85.8955 150.503 84.4975 156.367 85.2323 162.161C85.9672 167.955 88.7847 173.284 93.1593 177.155C97.5339 181.025 103.167 183.171 109.008 183.194H117.022C119.148 183.194 121.187 184.038 122.69 185.541C124.193 187.044 125.037 189.083 125.037 191.209C125.037 193.334 124.193 195.373 122.69 196.876C121.187 198.379 119.148 199.223 117.022 199.223H109.008C99.7771 199.225 90.8289 196.041 83.6752 190.207C76.5214 184.374 71.6006 176.25 69.7443 167.209C67.8881 158.167 69.2102 148.761 73.4872 140.581C77.7642 132.401 84.7339 125.949 93.2186 122.314C94.2293 112.184 98.4288 102.636 105.212 95.0452C111.996 87.4542 121.014 82.2119 130.967 80.0732C140.92 77.9345 151.295 79.0096 160.598 83.1439C169.901 87.2781 177.652 94.2581 182.735 103.079C195.316 103.537 207.215 108.91 215.878 118.044C224.541 127.178 229.277 139.346 229.068 151.933C228.859 164.52 223.722 176.524 214.761 185.366C205.8 194.208 193.729 199.183 181.14 199.223C179.014 199.223 176.976 198.379 175.473 196.876C173.97 195.373 173.125 193.334 173.125 191.209C173.125 189.083 173.97 187.044 175.473 185.541C176.976 184.038 179.014 183.194 181.14 183.194C185.457 183.188 189.728 182.31 193.697 180.612C197.666 178.915 201.252 176.434 204.239 173.317C207.226 170.201 209.553 166.513 211.08 162.475C212.607 158.437 213.302 154.133 213.125 149.82C212.948 145.506 211.902 141.273 210.049 137.374C208.196 133.475 205.575 129.991 202.342 127.13C199.11 124.268 195.333 122.089 191.238 120.724C187.143 119.358 182.814 118.833 178.511 119.18C176.841 119.316 175.171 118.925 173.735 118.063C172.299 117.2 171.169 115.909 170.505 114.372C168.02 108.627 163.909 103.735 158.678 100.298C153.448 96.8616 147.325 95.031 141.066 95.032Z" fill="#F18820"/>
</svg>
