<svg width="29" height="28" viewBox="0 0 29 28" fill="none" xmlns="http://www.w3.org/2000/svg">
<path fill-rule="evenodd" clip-rule="evenodd" d="M5.07084 5.28404L19.3683 1.07889C21.2898 0.513761 23.2148 1.95416 23.2148 3.95699V5.28404H23.4148C25.095 5.28404 25.9351 5.28404 26.5768 5.61102C27.1413 5.89864 27.6002 6.35758 27.8879 6.92207C28.2148 7.5638 28.2148 8.40388 28.2148 10.084V22.484C28.2148 24.1642 28.2148 25.0043 27.8879 25.646C27.6002 26.2105 27.1413 26.6694 26.5768 26.9571C25.9351 27.284 25.095 27.284 23.4148 27.284H5.01484C3.33469 27.284 2.49461 27.284 1.85287 26.9571C1.28839 26.6694 0.829444 26.2105 0.541824 25.646C0.214844 25.0043 0.214844 24.1642 0.214844 22.484V10.084C0.214844 8.40388 0.214844 7.5638 0.541824 6.92207C0.829444 6.35758 1.28839 5.89864 1.85287 5.61102C2.49461 5.28404 3.33469 5.28404 5.01484 5.28404H5.07084ZM19.9327 2.99762C20.5732 2.80924 21.2148 3.28938 21.2148 3.95699V5.28404H12.1589L19.9327 2.99762ZM5.19166 7.28404C5.20678 7.28439 5.22196 7.28439 5.23716 7.28404H23.4148C24.2879 7.28404 24.8225 7.28559 25.2224 7.31827C25.4087 7.33349 25.5214 7.35261 25.5898 7.36873C25.6224 7.3764 25.6424 7.38282 25.6533 7.38669C25.6637 7.3904 25.6688 7.39303 25.6688 7.39303C25.857 7.48891 26.01 7.64189 26.1059 7.83005C26.1059 7.83005 26.1085 7.83522 26.1122 7.84562C26.1161 7.85645 26.1225 7.87648 26.1302 7.90904C26.1463 7.97749 26.1654 8.09021 26.1806 8.27651C26.2133 8.67643 26.2148 9.21096 26.2148 10.084V14.784H21.7148C21.1626 14.784 20.7148 15.2318 20.7148 15.784C20.7148 16.3363 21.1626 16.784 21.7148 16.784H26.2148V22.484C26.2148 23.3571 26.2133 23.8916 26.1806 24.2916C26.1654 24.4779 26.1463 24.5906 26.1302 24.659C26.1225 24.6916 26.1161 24.7116 26.1122 24.7225C26.1085 24.7329 26.1059 24.738 26.1059 24.738C26.01 24.9262 25.857 25.0792 25.6688 25.175C25.6688 25.175 25.6637 25.1777 25.6533 25.1814C25.6424 25.1853 25.6224 25.1917 25.5898 25.1993C25.5214 25.2155 25.4087 25.2346 25.2224 25.2498C24.8225 25.2825 24.2879 25.284 23.4148 25.284H5.01484C4.14176 25.284 3.60724 25.2825 3.20731 25.2498C3.02101 25.2346 2.9083 25.2155 2.83984 25.1993C2.80728 25.1917 2.78725 25.1853 2.77642 25.1814C2.76602 25.1777 2.76085 25.175 2.76085 25.175C2.57269 25.0792 2.41971 24.9262 2.32384 24.738C2.32384 24.738 2.32121 24.7329 2.3175 24.7225C2.31363 24.7116 2.3072 24.6916 2.29954 24.659C2.28341 24.5906 2.2643 24.4779 2.24907 24.2916C2.2164 23.8916 2.21484 23.3571 2.21484 22.484V10.084C2.21484 9.21096 2.2164 8.67643 2.24907 8.27651C2.2643 8.09021 2.28341 7.97749 2.29954 7.90904C2.3072 7.87648 2.31363 7.85645 2.3175 7.84562C2.32121 7.83522 2.32384 7.83005 2.32384 7.83005C2.41971 7.64189 2.57269 7.48891 2.76085 7.39303C2.76085 7.39303 2.76602 7.3904 2.77642 7.38669C2.78725 7.38282 2.80728 7.3764 2.83984 7.36873C2.9083 7.35261 3.02101 7.33349 3.20731 7.31827C3.60724 7.28559 4.14176 7.28404 5.01484 7.28404H5.19166Z" fill="#1D3E80"/>
<path d="M18.0488 15.791C18.0488 15.2387 18.4965 14.791 19.0488 14.791H27.0488C27.6011 14.791 28.0488 15.2387 28.0488 15.791C28.0488 16.3433 27.6011 16.791 27.0488 16.791H19.0488C18.4965 16.791 18.0488 16.3433 18.0488 15.791Z" fill="#F18820"/>
</svg>
