<svg width="125" height="124" viewBox="0 0 125 124" fill="none" xmlns="http://www.w3.org/2000/svg">
<path fill-rule="evenodd" clip-rule="evenodd" d="M115.613 24.3061C116.82 22.9383 117.435 21.1469 117.321 19.326C117.208 17.5052 116.376 15.804 115.008 14.5967C113.64 13.3894 111.849 12.7749 110.028 12.8883C108.207 13.0018 106.506 13.834 105.299 15.2018L61.0493 65.2616L39.1618 47.4312C38.462 46.8605 37.6566 46.4333 36.7916 46.1738C35.9267 45.9144 35.0191 45.8278 34.1207 45.9191C32.3062 46.1036 30.6394 47.0012 29.4868 48.4146C28.9161 49.1144 28.4888 49.9198 28.2294 50.7848C27.9699 51.6497 27.8834 52.5573 27.9747 53.4557C28.1591 55.2702 29.0567 56.937 30.4701 58.0896L57.4873 80.0939C58.8637 81.2138 60.6197 81.7582 62.3882 81.6134C64.1567 81.4686 65.8008 80.6457 66.9767 79.3169L115.613 24.3061Z" fill="#F18820"/>
<path fill-rule="evenodd" clip-rule="evenodd" d="M14.3625 61.9186C14.3603 54.2331 16.1983 46.6587 19.7231 39.829C23.2478 32.9994 28.3567 27.113 34.6224 22.6623C40.8881 18.2116 48.1285 15.3259 55.7379 14.2467C63.3474 13.1675 71.1046 13.9261 78.3608 16.4591C80.0833 17.0591 81.9736 16.9502 83.6158 16.1565C85.2581 15.3628 86.5178 13.9492 87.1178 12.2267C87.7178 10.5042 87.609 8.61384 86.8152 6.97158C86.0215 5.32932 84.6079 4.06962 82.8854 3.46962C70.2146 -0.9509 56.4503 -1.13306 43.667 2.9506C30.8837 7.03427 19.7742 15.1624 12.0128 26.1101C4.25148 37.0577 0.258904 50.2315 0.636868 63.6459C1.01483 77.0603 5.74286 89.9883 14.1083 100.482C22.4738 110.975 34.0234 118.465 47.0164 121.822C60.0093 125.179 73.7415 124.222 86.1433 119.095C98.545 113.968 108.944 104.949 115.774 93.3973C122.603 81.8452 125.492 68.3863 124.006 55.0492C123.907 54.1516 123.631 53.2823 123.196 52.4911C122.761 51.6998 122.174 51.002 121.469 50.4376C120.764 49.8731 119.955 49.453 119.088 49.2013C118.22 48.9496 117.312 48.8711 116.414 48.9705C115.517 49.0698 114.648 49.345 113.856 49.7802C113.065 50.2155 112.367 50.8023 111.803 51.5073C111.238 52.2122 110.818 53.0214 110.567 53.8887C110.315 54.756 110.236 55.6644 110.336 56.562C111.06 63.0663 110.45 69.65 108.544 75.9106C106.637 82.1713 103.474 87.9775 99.2479 92.9743C95.0215 97.971 89.8205 102.053 83.9628 104.972C78.1051 107.891 71.7138 109.584 65.1794 109.949C58.6451 110.313 52.105 109.342 45.9589 107.093C39.8128 104.845 34.1898 101.366 29.4336 96.8709C24.6773 92.3755 20.8877 86.9574 18.2964 80.9477C15.7052 74.9381 14.3666 68.4632 14.3625 61.9186Z" fill="#1D3E80"/>
</svg>
