<svg width="38" height="38" viewBox="0 0 38 38" fill="none" xmlns="http://www.w3.org/2000/svg">
<path d="M19 36C28.3888 36 36 28.3888 36 19C36 9.61116 28.3888 2 19 2C9.61116 2 2 9.61116 2 19C2 28.3888 9.61116 36 19 36Z" stroke="#1E3F80" stroke-width="3"/>
<path d="M25 14.8945C24 13.6 22.6 12 19 12C15.4 12 13 14.0278 13 14.8945C13 15.7611 13.1357 16.8553 15 17.9998C16.5044 18.9234 20.3368 19.0876 22 19.9998C24.358 21.2931 24.6994 22.6401 24.6994 23.1041C24.6994 24.367 21.835 25.97 19 25.9996C16.072 26.0302 14 24.3996 13 23.1041" stroke="#EF851E" stroke-width="3" stroke-linecap="round" stroke-linejoin="round"/>
<path d="M19 9V29" stroke="#EF851E" stroke-width="3" stroke-linecap="round" stroke-linejoin="round"/>
</svg>
