<svg width="112" height="111" viewBox="0 0 112 111" fill="none" xmlns="http://www.w3.org/2000/svg">
<path opacity="0.3" d="M56 50.875H65.25V60.125H56V69.375H65.25V78.625H56V87.875H93V41.625H56V50.875ZM74.5 50.875H83.75V60.125H74.5V50.875ZM74.5 69.375H83.75V78.625H74.5V69.375Z" fill="#DDE1E9"/>
<path d="M74.5 69.375H83.75V78.625H74.5V69.375ZM74.5 50.875H83.75V60.125H74.5V50.875ZM102.25 32.375H56V13.875H9.75V97.125H102.25V32.375ZM28.25 87.875H19V78.625H28.25V87.875ZM28.25 69.375H19V60.125H28.25V69.375ZM28.25 50.875H19V41.625H28.25V50.875ZM28.25 32.375H19V23.125H28.25V32.375ZM46.75 87.875H37.5V78.625H46.75V87.875ZM46.75 69.375H37.5V60.125H46.75V69.375ZM46.75 50.875H37.5V41.625H46.75V50.875ZM46.75 32.375H37.5V23.125H46.75V32.375ZM93 87.875H56V78.625H65.25V69.375H56V60.125H65.25V50.875H56V41.625H93V87.875Z" fill="#F18820"/>
</svg>
