<svg width="26" height="25" viewBox="0 0 26 25" fill="none" xmlns="http://www.w3.org/2000/svg">
<path fill-rule="evenodd" clip-rule="evenodd" d="M0.884766 3.86133C0.884766 2.20447 2.22791 0.861328 3.88477 0.861328H15.8848C17.5416 0.861328 18.8848 2.20447 18.8848 3.86133H22.8848C24.5416 3.86133 25.8848 5.20447 25.8848 6.86133V19.8613C25.8848 22.1763 24.3957 24.5535 21.8848 24.8338V24.8613H5.88477C3.23341 24.8613 0.884766 22.5437 0.884766 19.8613V3.86133ZM18.8848 19.8613V5.86133H22.8848C23.437 5.86133 23.8848 6.30904 23.8848 6.86133V19.8613C23.8848 21.5848 22.7609 22.8613 21.3848 22.8613C20.0086 22.8613 18.8848 21.5848 18.8848 19.8613ZM16.8848 19.8613C16.8848 20.9166 17.1942 21.9847 17.7687 22.8613H5.88477C4.33046 22.8613 2.88477 21.4316 2.88477 19.8613V3.86133C2.88477 3.30904 3.33248 2.86133 3.88477 2.86133H15.8848C16.4371 2.86133 16.8848 3.30904 16.8848 3.86133V19.8613Z" fill="#1D3E80"/>
<path d="M5.84961 15.8613C5.29732 15.8613 4.84961 16.309 4.84961 16.8613C4.84961 17.4136 5.29732 17.8613 5.84961 17.8613H13.8496C14.4019 17.8613 14.8496 17.4136 14.8496 16.8613C14.8496 16.309 14.4019 15.8613 13.8496 15.8613H5.84961Z" fill="#F18820"/>
<path d="M4.84961 12.8613C4.84961 12.309 5.29732 11.8613 5.84961 11.8613H13.8496C14.4019 11.8613 14.8496 12.309 14.8496 12.8613C14.8496 13.4136 14.4019 13.8613 13.8496 13.8613H5.84961C5.29732 13.8613 4.84961 13.4136 4.84961 12.8613Z" fill="#F18820"/>
<path d="M5.84961 7.86133C5.29732 7.86133 4.84961 8.30904 4.84961 8.86133C4.84961 9.41361 5.29732 9.86133 5.84961 9.86133H13.8496C14.4019 9.86133 14.8496 9.41361 14.8496 8.86133C14.8496 8.30904 14.4019 7.86133 13.8496 7.86133H5.84961Z" fill="#F18820"/>
</svg>
