<svg width="45" height="45" viewBox="0 0 45 45" fill="none" xmlns="http://www.w3.org/2000/svg">
<path d="M12.3237 2C13.5036 2 18.223 12.6187 18.223 13.7986C18.223 16.1583 14.6835 18.518 13.5036 20.8777C12.3237 23.2374 14.6835 25.5971 17.0432 27.9568C17.9736 28.8873 21.7626 32.6763 24.1223 31.4964C26.482 30.3165 28.8417 26.777 31.2014 26.777C32.3813 26.777 43 31.4964 43 32.6763C43 37.3957 39.4604 40.9353 35.9209 42.1151C32.3813 43.295 30.0216 43.295 25.3022 42.1151C20.5827 40.9353 17.0432 39.7554 11.1439 33.8561C5.2446 27.9568 4.06475 24.4173 2.88489 19.6978C1.70504 14.9784 1.70504 12.6187 2.88489 9.07914C4.06475 5.53957 7.60432 2 12.3237 2Z" stroke="#1D3E80" stroke-width="3" stroke-linecap="round" stroke-linejoin="round"/>
<path d="M26 12C27.5648 12.7182 28.9769 13.7125 30.1735 14.9203C31.339 16.0967 32.3005 17.4758 33 19" stroke="#F18820" stroke-width="3" stroke-linecap="round" stroke-linejoin="round"/>
<path d="M42 16C41.1844 12.832 39.5328 9.99979 37.2939 7.75283C35.0395 5.49025 32.1901 3.82108 29 3" stroke="#F18820" stroke-width="3" stroke-linecap="round" stroke-linejoin="round"/>
</svg>
