<svg width="29" height="29" viewBox="0 0 29 29" fill="none" xmlns="http://www.w3.org/2000/svg">
<path d="M19.5494 0.176936C19.0289 -0.00767661 18.4573 0.264627 18.2726 0.785142C18.088 1.30566 18.3603 1.87728 18.8808 2.06189C21.4928 2.9883 23.2151 5.17948 23.2151 7.61941C23.2151 10.0593 21.4928 12.2505 18.8808 13.1769C18.3603 13.3615 18.088 13.9332 18.2726 14.4537C18.4573 14.9742 19.0289 15.2465 19.5494 15.0619C22.801 13.9086 25.2151 11.0629 25.2151 7.61941C25.2151 4.17595 22.801 1.33021 19.5494 0.176936Z" fill="#F18820"/>
<path d="M23.2151 20.1194C22.6628 20.1194 22.2151 20.5671 22.2151 21.1194C22.2151 21.6717 22.6628 22.1194 23.2151 22.1194H24.2151C25.3197 22.1194 26.2151 23.0148 26.2151 24.1194V27.1194C26.2151 27.6717 26.6628 28.1194 27.2151 28.1194C27.7674 28.1194 28.2151 27.6717 28.2151 27.1194V24.1194C28.2151 21.9103 26.4243 20.1194 24.2151 20.1194H23.2151Z" fill="#F18820"/>
<path fill-rule="evenodd" clip-rule="evenodd" d="M10.8512 15.3919C15.0687 15.3919 18.4876 11.973 18.4876 7.7555C18.4876 3.53806 15.0687 0.119141 10.8512 0.119141C6.63376 0.119141 3.21484 3.53806 3.21484 7.7555C3.21484 11.973 6.63376 15.3919 10.8512 15.3919ZM10.8512 13.3919C13.9641 13.3919 16.4876 10.8684 16.4876 7.7555C16.4876 4.64263 13.9641 2.11914 10.8512 2.11914C7.73833 2.11914 5.21484 4.64263 5.21484 7.7555C5.21484 10.8684 7.73833 13.3919 10.8512 13.3919Z" fill="#1D3E80"/>
<path d="M2.21484 24.1191C2.21484 23.0146 3.11027 22.1191 4.21484 22.1191H17.2148C18.3194 22.1191 19.2148 23.0146 19.2148 24.1191V27.1191C19.2148 27.6714 19.6626 28.1191 20.2148 28.1191C20.7671 28.1191 21.2148 27.6714 21.2148 27.1191V24.1191C21.2148 21.91 19.424 20.1191 17.2148 20.1191H4.21484C2.0057 20.1191 0.214844 21.91 0.214844 24.1191V27.1191C0.214844 27.6714 0.662559 28.1191 1.21484 28.1191C1.76713 28.1191 2.21484 27.6714 2.21484 27.1191V24.1191Z" fill="#1D3E80"/>
</svg>
