<svg width="51" height="51" viewBox="0 0 51 51" fill="none" xmlns="http://www.w3.org/2000/svg">
<path d="M12.5294 30.695C11.8261 31.1868 11.1665 31.8115 10.639 32.4376C8.96801 32.4376 7.69366 32.3933 7.56145 32.3475C6.46292 32.0788 7.07759 30.0246 8.52916 29.1311C9.62768 28.4164 11.8697 27.2999 12.4858 27.1655C13.2777 26.9869 13.4535 26.4951 12.4858 24.7983C12.2664 24.4409 12.002 23.2787 12.002 22.0736C11.9584 20.108 12.3536 18.7671 14.0246 18.1868C15.4311 17.6507 17.0135 18.3211 17.5846 19.5277C18.1557 20.7785 17.849 23.9949 17.233 25.1571C16.5297 26.5423 16.6619 26.8997 17.4524 27.1227C17.6282 27.167 17.9798 27.3457 18.4637 27.5701C16.5297 28.3749 13.8924 29.8487 12.5294 30.6979V30.695ZM41.4525 28.9968C42.5074 29.5771 43.0785 30.5606 42.9913 31.5885C42.9477 32.2146 42.9477 32.2589 42.1558 32.3475C41.9364 32.3918 40.9251 32.4376 39.6057 32.4376C39.0346 31.6785 38.2427 30.9638 37.2764 30.472C35.4746 29.3999 33.2762 28.2377 31.6502 27.5229C32.0904 27.3442 32.4857 27.2099 32.6615 27.1655C33.497 26.9869 33.6292 26.4951 32.6615 24.7983C32.4857 24.4409 32.1777 23.2787 32.1777 22.0736C32.134 20.108 32.4857 18.7671 34.1553 18.1868C35.6054 17.6507 37.1878 18.3211 37.7153 19.5277C38.2863 20.7785 38.0669 23.9949 37.4508 25.1571C36.7476 26.5423 36.8348 26.8997 37.5831 27.1227C38.1105 27.3013 39.7815 28.1062 41.4511 28.9996L41.4525 28.9968Z" fill="#EF851E"/>
<path d="M36.4414 31.7902C38.2882 32.818 39.3431 34.6492 39.2109 36.4804C39.1223 37.5969 39.0787 37.6426 37.6721 37.8213C36.793 37.9557 31.254 38 25.5406 38C19.0788 38 12.3105 37.8656 11.8266 37.7313C9.89258 37.2395 10.9475 33.6657 13.4976 31.9689C15.4752 30.6737 19.5191 28.7082 20.619 28.4837C22.1142 28.1707 22.29 27.2329 20.619 24.1952C20.2238 23.5247 19.7835 21.4705 19.7399 19.3263C19.6963 15.8411 20.356 13.4738 23.3449 12.3131C23.961 12.0901 24.5757 12 25.1467 12C27.1243 12 28.9712 13.1165 29.718 14.7704C30.8166 16.959 30.3777 22.8114 29.2342 24.9114C27.9148 27.2786 28.047 28.0391 29.4986 28.4408C30.4663 28.7096 33.4553 30.1391 36.4442 31.7916L36.4414 31.7902Z" fill="#1E3F7F"/>
</svg>
