<svg width="298" height="314" viewBox="0 0 298 314" fill="none" xmlns="http://www.w3.org/2000/svg">
<path d="M297.551 155.736C297.551 242.861 224.216 313.49 133.753 313.49C43.289 313.49 -35.598 250.388 17.7494 155.736C32.9915 23.004 43.3436 0.511719 133.807 0.511719C221.087 26.9961 297.551 68.6101 297.551 155.736Z" fill="#F8F9FB"/>
<path d="M219.125 128.562V108.25C219.125 99.2754 211.85 92 202.875 92H89.125C80.1504 92 72.875 99.2754 72.875 108.25V148.875C72.875 157.85 80.1504 165.125 89.125 165.125H136.859M202.875 173.25V157C202.875 148.025 195.6 140.75 186.625 140.75C177.65 140.75 170.375 148.025 170.375 157V173.25M162.25 222H211C215.487 222 219.125 218.362 219.125 213.875V181.375C219.125 176.888 215.487 173.25 211 173.25H162.25C157.763 173.25 154.125 176.888 154.125 181.375V213.875C154.125 218.362 157.763 222 162.25 222Z" stroke="#1D3E80" stroke-width="12" stroke-linecap="round" stroke-linejoin="round"/>
<path d="M109.438 140.75C116.168 140.75 121.625 135.293 121.625 128.562C121.625 121.832 116.168 116.375 109.438 116.375C102.707 116.375 97.25 121.832 97.25 128.562C97.25 135.293 102.707 140.75 109.438 140.75Z" fill="#F18820"/>
<path d="M146 140.75C152.731 140.75 158.188 135.293 158.188 128.562C158.188 121.832 152.731 116.375 146 116.375C139.269 116.375 133.812 121.832 133.812 128.562C133.812 135.293 139.269 140.75 146 140.75Z" fill="#F18820"/>
</svg>
