<svg width="298" height="314" viewBox="0 0 298 314" fill="none" xmlns="http://www.w3.org/2000/svg">
<path d="M297.551 155.736C297.551 242.861 224.216 313.49 133.753 313.49C43.289 313.49 -35.598 250.388 17.7494 155.736C32.9915 23.004 43.3436 0.511719 133.807 0.511719C221.087 26.9961 297.551 68.6101 297.551 155.736Z" fill="#F8F9FB"/>
<path fill-rule="evenodd" clip-rule="evenodd" d="M75.6667 110.334C75.6667 99.2883 84.621 90.334 95.6667 90.334H125.256C134.434 90.334 142.433 96.5799 144.659 105.483L147.539 117.001H159H202.333C213.379 117.001 222.333 125.955 222.333 137.001V150.334C222.333 154.016 219.349 157.001 215.667 157.001C211.985 157.001 209 154.016 209 150.334V137.001C209 133.319 206.015 130.334 202.333 130.334H159H147.539H95.6667C91.9848 130.334 89 133.319 89 137.001V143.667V203.667C89 207.349 91.9848 210.334 95.6667 210.334H129C132.682 210.334 135.667 213.319 135.667 217.001C135.667 220.683 132.682 223.667 129 223.667H95.6667C84.621 223.667 75.6667 214.713 75.6667 203.667V143.667V137.001V110.334ZM89 118.139C91.0852 117.402 93.3291 117.001 95.6667 117.001H133.795L131.724 108.717C130.982 105.749 128.315 103.667 125.256 103.667H95.6667C91.9848 103.667 89 106.652 89 110.334V118.139Z" fill="#1D3E80"/>
<path fill-rule="evenodd" clip-rule="evenodd" d="M199.333 202.048C202.823 196.779 204.856 190.459 204.856 183.665C204.856 165.256 189.932 150.332 171.523 150.332C153.113 150.332 138.189 165.256 138.189 183.665C138.189 202.075 153.113 216.999 171.523 216.999C178.317 216.999 184.636 214.966 189.905 211.476L206.809 228.379C209.412 230.983 213.633 230.983 216.237 228.379C218.84 225.776 218.84 221.555 216.237 218.951L199.333 202.048ZM151.523 183.665C151.523 172.619 160.477 163.665 171.523 163.665C182.569 163.665 191.523 172.619 191.523 183.665C191.523 194.711 182.569 203.665 171.523 203.665C160.477 203.665 151.523 194.711 151.523 183.665Z" fill="#F18820"/>
</svg>
