<svg width="77" height="77" viewBox="0 0 77 77" fill="none" xmlns="http://www.w3.org/2000/svg">
<path d="M24.75 34.375C24.75 32.8562 25.9812 31.625 27.5 31.625H49.5C51.0188 31.625 52.25 32.8562 52.25 34.375C52.25 35.8938 51.0188 37.125 49.5 37.125H27.5C25.9812 37.125 24.75 35.8938 24.75 34.375Z" fill="#1D3E80"/>
<path fill-rule="evenodd" clip-rule="evenodd" d="M60.5 19.25H63.8C68.4204 19.25 70.7307 19.25 72.4954 20.1492C74.0478 20.9402 75.3098 22.2022 76.1008 23.7546C77 25.5194 77 27.8296 77 32.45V63.8C77 68.4204 77 70.7307 76.1008 72.4954C75.3098 74.0478 74.0478 75.3098 72.4954 76.1008C70.7307 77 68.4204 77 63.8 77H13.2C8.57957 77 6.26935 77 4.50458 76.1008C2.95224 75.3098 1.69015 74.0478 0.899196 72.4954C0 70.7307 0 68.4204 0 63.8V32.45C0 27.8296 0 25.5194 0.899196 23.7546C1.69015 22.2022 2.95224 20.9402 4.50458 20.1492C6.26935 19.25 8.57957 19.25 13.2 19.25H16.5V6.6C16.5 2.95493 19.4549 0 23.1 0H53.9C57.5451 0 60.5 2.95492 60.5 6.6V19.25ZM13.2 24.75C10.799 24.75 9.32908 24.7543 8.22929 24.8441C7.71696 24.886 7.40699 24.9386 7.21875 24.9829C7.1292 25.004 7.07412 25.0217 7.04433 25.0323C7.01574 25.0425 7.00153 25.0497 7.00153 25.0497C6.48408 25.3134 6.06338 25.7341 5.79973 26.2515C5.79973 26.2515 5.7925 26.2657 5.78229 26.2943C5.77166 26.3241 5.75399 26.3792 5.7329 26.4687C5.68857 26.657 5.63599 26.967 5.59413 27.4793C5.50428 28.5791 5.5 30.049 5.5 32.45V63.8C5.5 66.201 5.50428 67.6709 5.59413 68.7707C5.63599 69.283 5.68857 69.593 5.7329 69.7813C5.75399 69.8708 5.77166 69.9259 5.78229 69.9557C5.7925 69.9843 5.79973 69.9985 5.79973 69.9985C6.06338 70.5159 6.48408 70.9366 7.00153 71.2003C7.00153 71.2003 7.01574 71.2075 7.04433 71.2177C7.07412 71.2283 7.1292 71.246 7.21875 71.2671C7.40699 71.3114 7.71696 71.364 8.22929 71.4059C9.32908 71.4957 10.799 71.5 13.2 71.5H63.8C66.201 71.5 67.6709 71.4957 68.7707 71.4059C69.283 71.364 69.593 71.3114 69.7813 71.2671C69.8708 71.246 69.9259 71.2283 69.9557 71.2177C69.9739 71.2112 69.9854 71.2064 69.9919 71.2034L69.9985 71.2003C70.5159 70.9366 70.9366 70.5159 71.2003 69.9985L71.2034 69.9919C71.2064 69.9854 71.2112 69.9739 71.2177 69.9557C71.2283 69.9259 71.246 69.8708 71.2671 69.7813C71.3114 69.593 71.364 69.283 71.4059 68.7707C71.4957 67.6709 71.5 66.201 71.5 63.8V32.45C71.5 30.049 71.4957 28.5791 71.4059 27.4793C71.364 26.967 71.3114 26.657 71.2671 26.4687C71.246 26.3792 71.2283 26.3241 71.2177 26.2943C71.2075 26.2657 71.2003 26.2515 71.2003 26.2515C70.9366 25.7341 70.5159 25.3134 69.9985 25.0497C69.9985 25.0497 69.9843 25.0425 69.9557 25.0323C69.9259 25.0217 69.8708 25.004 69.7813 24.9829C69.593 24.9386 69.283 24.886 68.7707 24.8441C67.6709 24.7543 66.201 24.75 63.8 24.75H13.2ZM55 19.25V6.6C55 5.99249 54.5075 5.5 53.9 5.5H23.1C22.4925 5.5 22 5.99249 22 6.6V19.25H55Z" fill="#1D3E80"/>
</svg>
