<svg width="298" height="314" viewBox="0 0 298 314" fill="none" xmlns="http://www.w3.org/2000/svg">
<path d="M297.551 155.736C297.551 242.861 224.216 313.49 133.753 313.49C43.289 313.49 -35.598 250.388 17.7494 155.736C32.9915 23.004 43.3436 0.511719 133.807 0.511719C221.087 26.9961 297.551 68.6101 297.551 155.736Z" fill="#F8F9FB"/>
<path d="M131.583 183.125V200.542C131.583 202.851 130.666 205.066 129.033 206.699C127.4 208.333 125.185 209.25 122.875 209.25H105.458C103.149 209.25 100.934 208.333 99.3006 206.699C97.6675 205.066 96.75 202.851 96.75 200.542V183.125C96.75 180.815 97.6675 178.6 99.3006 176.967C100.934 175.334 103.149 174.417 105.458 174.417H122.875C125.185 174.417 127.4 175.334 129.033 176.967C130.666 178.6 131.583 180.815 131.583 183.125ZM192.542 104.75H175.125C172.815 104.75 170.6 105.667 168.967 107.301C167.334 108.934 166.417 111.149 166.417 113.458V130.875C166.417 133.185 167.334 135.4 168.967 137.033C170.6 138.666 172.815 139.583 175.125 139.583H192.542C194.851 139.583 197.066 138.666 198.699 137.033C200.333 135.4 201.25 133.185 201.25 130.875V113.458C201.25 111.149 200.333 108.934 198.699 107.301C197.066 105.667 194.851 104.75 192.542 104.75ZM192.542 157H157.708C155.399 157 153.184 157.917 151.551 159.551C149.917 161.184 149 163.399 149 165.708V200.542C149 202.851 149.917 205.066 151.551 206.699C153.184 208.333 155.399 209.25 157.708 209.25H192.542C194.851 209.25 197.066 208.333 198.699 206.699C200.333 205.066 201.25 202.851 201.25 200.542V165.708C201.25 163.399 200.333 161.184 198.699 159.551C197.066 157.917 194.851 157 192.542 157ZM149 113.458C149 111.149 148.083 108.934 146.449 107.301C144.816 105.667 142.601 104.75 140.292 104.75H105.458C103.149 104.75 100.934 105.667 99.3006 107.301C97.6675 108.934 96.75 111.149 96.75 113.458V148.292C96.75 150.601 97.6675 152.816 99.3006 154.449C100.934 156.083 103.149 157 105.458 157H140.292C142.601 157 144.816 156.083 146.449 154.449C148.083 152.816 149 150.601 149 148.292V113.458Z" fill="#1D3E80"/>
<path d="M70.6251 130.876C68.3155 130.876 66.1005 129.959 64.4674 128.326C62.8342 126.693 61.9167 124.478 61.9167 122.168V87.3346C61.9167 82.7154 63.7517 78.2855 67.018 75.0192C70.2842 71.7529 74.7142 69.918 79.3334 69.918H114.167C116.476 69.918 118.691 70.8355 120.324 72.4686C121.958 74.1017 122.875 76.3167 122.875 78.6263C122.875 80.9359 121.958 83.1509 120.324 84.784C118.691 86.4172 116.476 87.3346 114.167 87.3346H79.3334V122.168C79.3334 124.478 78.4159 126.693 76.7828 128.326C75.1497 129.959 72.9347 130.876 70.6251 130.876ZM236.083 122.168V87.3346C236.083 82.7154 234.248 78.2855 230.982 75.0192C227.716 71.7529 223.286 69.918 218.667 69.918H183.833C181.524 69.918 179.309 70.8355 177.676 72.4686C176.043 74.1017 175.125 76.3167 175.125 78.6263C175.125 80.9359 176.043 83.1509 177.676 84.784C179.309 86.4172 181.524 87.3346 183.833 87.3346H218.667V122.168C218.667 124.478 219.584 126.693 221.217 128.326C222.85 129.959 225.066 130.876 227.375 130.876C229.685 130.876 231.9 129.959 233.533 128.326C235.166 126.693 236.083 124.478 236.083 122.168ZM122.875 235.376C122.875 233.067 121.958 230.852 120.324 229.219C118.691 227.585 116.476 226.668 114.167 226.668H79.3334V191.835C79.3334 189.525 78.4159 187.31 76.7828 185.677C75.1497 184.044 72.9347 183.126 70.6251 183.126C68.3155 183.126 66.1005 184.044 64.4674 185.677C62.8342 187.31 61.9167 189.525 61.9167 191.835V226.668C61.9167 231.287 63.7517 235.717 67.018 238.983C70.2842 242.25 74.7142 244.085 79.3334 244.085H114.167C116.476 244.085 118.691 243.167 120.324 241.534C121.958 239.901 122.875 237.686 122.875 235.376ZM236.083 226.668V191.835C236.083 189.525 235.166 187.31 233.533 185.677C231.9 184.044 229.685 183.126 227.375 183.126C225.066 183.126 222.85 184.044 221.217 185.677C219.584 187.31 218.667 189.525 218.667 191.835V226.668H183.833C181.524 226.668 179.309 227.585 177.676 229.219C176.043 230.852 175.125 233.067 175.125 235.376C175.125 237.686 176.043 239.901 177.676 241.534C179.309 243.167 181.524 244.085 183.833 244.085H218.667C223.286 244.085 227.716 242.25 230.982 238.983C234.248 235.717 236.083 231.287 236.083 226.668Z" fill="#F18820"/>
</svg>
