<svg width="298" height="314" viewBox="0 0 298 314" fill="none" xmlns="http://www.w3.org/2000/svg">
<path d="M297.551 155.736C297.551 242.861 224.216 313.49 133.753 313.49C43.289 313.49 -35.598 250.388 17.7494 155.736C32.9915 23.004 43.3436 0.511719 133.807 0.511719C221.087 26.9961 297.551 68.6101 297.551 155.736Z" fill="#F8F9FB"/>
<path d="M137.983 141.881C140.073 136.923 141.087 131.579 140.958 126.2C140.879 118.601 138.548 111.197 134.262 104.922C129.976 98.6472 123.926 93.7835 116.877 90.9455C109.828 88.1075 102.096 87.4225 94.6577 88.977C87.2194 90.5315 80.4088 94.2559 75.0863 99.6795C69.7638 105.103 66.1682 111.983 64.7538 119.449C63.3394 126.915 64.1697 134.633 67.1398 141.627C70.1099 148.622 75.0865 154.579 81.4408 158.746C87.7952 162.914 95.2421 165.104 102.841 165.041C107.084 165.053 111.298 164.346 115.305 162.95" stroke="#F18820" stroke-width="12" stroke-miterlimit="10"/>
<path d="M115.145 210.156H108.645H115.145ZM146.266 194.073V200.573H161.81L150.893 189.508L146.266 194.073ZM92.7083 139.792L97.3353 135.226L97.2912 135.182L97.2462 135.138L92.7083 139.792ZM91.1804 118.481L86.1764 114.333L86.0989 114.426L86.025 114.522L91.1804 118.481ZM103.002 113.013L102.923 119.512L103.029 119.514L103.134 119.511L103.002 113.013ZM113.858 117.436L109.222 121.991L109.242 122.012L109.262 122.032L113.858 117.436ZM146.507 150.085L141.911 154.681L145.897 158.667L150.407 155.285L146.507 150.085ZM179.317 125.477L183.217 130.677L183.219 130.676L179.317 125.477ZM199.421 126.925L194.815 131.511L194.82 131.516L199.421 126.925ZM232.794 181.126L238.992 179.168L238.979 179.126L238.965 179.084L232.794 181.126ZM227.078 184.611C228.159 188.034 231.811 189.933 235.234 188.852C238.657 187.771 240.556 184.12 239.475 180.696L227.078 184.611ZM189.771 219.74H131.228V232.74H189.771V219.74ZM131.228 219.74C128.686 219.74 126.249 218.73 124.451 216.933L115.259 226.125C119.494 230.36 125.238 232.74 131.228 232.74V219.74ZM124.451 216.933C122.654 215.135 121.645 212.698 121.645 210.156H108.645C108.645 216.146 111.024 221.89 115.259 226.125L124.451 216.933ZM121.645 210.156C121.645 207.615 122.654 205.177 124.451 203.38L115.259 194.187C111.024 198.423 108.645 204.167 108.645 210.156H121.645ZM124.451 203.38C126.249 201.583 128.686 200.573 131.228 200.573V187.573C125.238 187.573 119.494 189.952 115.259 194.187L124.451 203.38ZM131.228 200.573H146.266V187.573H131.228V200.573ZM150.893 189.508L97.3353 135.226L88.0814 144.357L141.639 198.638L150.893 189.508ZM97.2462 135.138C95.5663 133.5 94.5458 131.302 94.378 128.962L81.4112 129.892C81.8067 135.407 84.2117 140.585 88.1704 144.445L97.2462 135.138ZM94.378 128.962C94.2102 126.622 94.9068 124.301 96.3358 122.44L86.025 114.522C82.6575 118.908 81.0158 124.376 81.4112 129.892L94.378 128.962ZM96.1844 122.63C97.0043 121.641 98.035 120.847 99.2009 120.308L93.743 108.509C90.8183 109.862 88.233 111.852 86.1764 114.333L96.1844 122.63ZM99.2009 120.308C100.367 119.769 101.639 119.497 102.923 119.512L103.08 106.513C99.8579 106.474 96.6677 107.156 93.743 108.509L99.2009 120.308ZM103.134 119.511C104.264 119.488 105.387 119.696 106.434 120.123L111.339 108.084C108.652 106.989 105.77 106.455 102.869 106.514L103.134 119.511ZM106.434 120.123C107.481 120.549 108.429 121.185 109.222 121.991L118.494 112.88C116.461 110.811 114.026 109.178 111.339 108.084L106.434 120.123ZM109.262 122.032L141.911 154.681L151.103 145.489L118.454 112.84L109.262 122.032ZM150.407 155.285L183.217 130.677L175.417 120.277L142.607 144.885L150.407 155.285ZM183.219 130.676C184.927 129.394 187.042 128.772 189.173 128.925L190.107 115.959C184.849 115.58 179.631 117.115 175.415 120.279L183.219 130.676ZM189.173 128.925C191.304 129.079 193.308 129.997 194.815 131.511L204.027 122.339C200.308 118.603 195.364 116.338 190.107 115.959L189.173 128.925ZM194.82 131.516C209.297 146.023 220.187 163.71 226.623 183.167L238.965 179.084C231.893 157.706 219.928 138.273 204.022 122.334L194.82 131.516ZM226.596 183.083L227.078 184.611L239.475 180.696L238.992 179.168L226.596 183.083Z" fill="#1D3E80"/>
</svg>
