<svg width="47" height="47" viewBox="0 0 47 47" fill="none" xmlns="http://www.w3.org/2000/svg">
<path fill-rule="evenodd" clip-rule="evenodd" d="M13.2429 34.2988L10.9837 31.9136C10.5005 31.3993 10.8621 30.5707 11.5645 30.5707H35.3993C36.2824 30.5707 36.9992 29.8306 36.9992 28.9407V28.9509C36.9992 28.0593 36.2824 27.3469 35.3993 27.3469H11.5885C10.8829 27.3469 10.5229 26.4742 11.0125 25.9631L13.2588 23.6109C13.8668 22.9676 13.8397 21.9436 13.1949 21.3374L13.1917 21.3311C12.5549 20.7297 11.5565 20.7603 10.9565 21.4003L5.87338 26.782C4.7038 28.0283 4.71023 29.9791 5.88461 31.2205L10.9229 36.5054C11.5213 37.1374 12.5117 37.168 13.1469 36.5731L13.1628 36.5574C13.806 35.956 13.8413 34.9437 13.2429 34.2988Z" fill="#1D3E7F"/>
<path fill-rule="evenodd" clip-rule="evenodd" d="M31.8364 8.44273L31.8523 8.427C32.4875 7.83209 33.4779 7.86266 34.0763 8.49465L39.1146 13.7796C40.2906 15.021 40.2954 16.9718 39.1274 18.2196L34.0427 23.6014C33.4443 24.2398 32.446 24.2719 31.8092 23.6722L31.8043 23.6674C31.1596 23.0612 31.1324 22.0403 31.7419 21.3986L33.9867 19.048C34.4763 18.5353 34.1163 17.6729 33.4107 17.6729H9.59997C8.71679 17.6729 8 16.9604 8 16.0689V16.0657C8 15.1758 8.71679 14.4483 9.59997 14.4483H33.4347C34.1371 14.4483 34.4987 13.6103 34.0155 13.096L31.7563 10.6966C31.158 10.0517 31.1932 9.0441 31.8364 8.44273Z" fill="#EF851E"/>
</svg>
