<svg width="25" height="29" viewBox="0 0 25 29" fill="none" xmlns="http://www.w3.org/2000/svg">
<path d="M24.2148 4.2806V23.9577C24.2149 24.4848 24.2149 24.9396 24.1843 25.3142C24.152 25.7095 24.0807 26.1027 23.8879 26.4811C23.6002 27.0456 23.1413 27.5045 22.5768 27.7922C22.1984 27.985 21.8052 28.0563 21.4099 28.0886C21.0353 28.1192 20.5805 28.1192 20.0534 28.1191H12.2148C11.6626 28.1191 11.2148 27.6714 11.2148 27.1191C11.2148 26.5669 11.6626 26.1191 12.2148 26.1191H20.0148C20.5914 26.1191 20.9637 26.1184 21.247 26.0952C21.5187 26.073 21.6194 26.0353 21.6688 26.0102C21.857 25.9143 22.01 25.7613 22.1058 25.5731C22.131 25.5237 22.1687 25.423 22.1909 25.1513C22.2141 24.868 22.2148 24.4957 22.2148 23.9191L22.2148 4.31914C22.2148 3.74259 22.2141 3.37032 22.1909 3.08698C22.1687 2.81532 22.131 2.7146 22.1059 2.66515C22.01 2.47699 21.857 2.32401 21.6688 2.22814C21.6194 2.20294 21.5187 2.16527 21.247 2.14307C20.9637 2.11992 20.5914 2.11914 20.0148 2.11914L4.41485 2.11914C3.83829 2.11914 3.46602 2.11992 3.18268 2.14307C2.91102 2.16527 2.8103 2.20294 2.76086 2.22814C2.57269 2.32401 2.41971 2.47699 2.32384 2.66515C2.29865 2.71459 2.26097 2.81532 2.23877 3.08698C2.21562 3.37032 2.21485 3.74259 2.21485 4.31914L2.21485 18.4525C2.21485 19.0048 1.76713 19.4525 1.21485 19.4525C0.662561 19.4525 0.214845 19.0048 0.214845 18.4525V4.28058C0.214827 3.75344 0.214812 3.29868 0.245415 2.92411C0.277716 2.52877 0.349032 2.13555 0.541825 1.75717C0.829446 1.19269 1.28839 0.733744 1.85287 0.446123C2.23125 0.253329 2.62447 0.182014 3.01982 0.149713C3.39438 0.11911 3.84913 0.119124 4.37626 0.119141H20.0534C20.5805 0.119125 21.0353 0.119111 21.4099 0.149713C21.8052 0.182014 22.1984 0.25333 22.5768 0.446124C23.1413 0.733745 23.6002 1.19269 23.8879 1.75717C24.0807 2.13555 24.152 2.52877 24.1843 2.92412C24.2149 3.29869 24.2149 3.75345 24.2148 4.2806Z" fill="#1D3E80"/>
<path d="M3.50774 20.412C3.89826 20.0215 4.53143 20.0215 4.92195 20.412L7.92195 23.412C8.31248 23.8026 8.31248 24.4357 7.92195 24.8263L4.92195 27.8262C4.53143 28.2168 3.89826 28.2168 3.50774 27.8262C3.11721 27.4357 3.11721 26.8026 3.50774 26.412L4.80063 25.1191H1.21484C0.66256 25.1191 0.214845 24.6714 0.214845 24.1191C0.214845 23.5669 0.66256 23.1191 1.21484 23.1191H4.80063L3.50774 21.8263C3.11721 21.4357 3.11721 20.8026 3.50774 20.412Z" fill="#1D3E80"/>
<path d="M8.00586 9.52318C8.00586 7.80145 9.4016 6.4057 11.1233 6.4057H11.2151V6.33594C11.2151 5.78365 11.6628 5.33594 12.2151 5.33594C12.7674 5.33594 13.2151 5.78365 13.2151 6.33594V6.4057H13.2849C15.0188 6.4057 16.4245 7.81132 16.4245 9.54524C16.4245 10.0975 15.9767 10.5452 15.4245 10.5452C14.8722 10.5452 14.4245 10.0975 14.4245 9.54524C14.4245 8.91589 13.9143 8.40571 13.2849 8.40571H11.1233C10.5062 8.40571 10.0059 8.90602 10.0059 9.52318C10.0059 10.1647 10.5259 10.6848 11.1674 10.6848H11.9432L11.9478 10.6848H12.9928C14.8881 10.6848 16.4246 12.2212 16.4246 14.1166C16.4246 15.9266 15.0028 17.4045 13.2151 17.4944V17.8359C13.2151 18.3882 12.7674 18.8359 12.2151 18.8359C11.6628 18.8359 11.2151 18.3882 11.2151 17.8359V17.4931C9.42554 17.3906 8.00596 15.907 8.00596 14.0917C8.00596 13.5395 8.45367 13.0917 9.00596 13.0917C9.55824 13.0917 10.006 13.5395 10.006 14.0917C10.006 14.8688 10.6359 15.4987 11.4129 15.4987H13.0424C13.8057 15.4987 14.4246 14.8799 14.4246 14.1166C14.4246 13.3258 13.7835 12.6848 12.9928 12.6848H12.4872L12.4826 12.6848H11.1674C9.42135 12.6848 8.00586 11.2693 8.00586 9.52318Z" fill="#F18820"/>
</svg>
