<svg width="41" height="41" viewBox="0 0 41 41" fill="none" xmlns="http://www.w3.org/2000/svg">
<path d="M8.16667 31.8051C9.02554 31.1601 10.0931 30.7778 11.25 30.7778C14.0881 30.7778 16.3889 33.0786 16.3889 35.9167C16.3889 37.0735 16.0066 38.1412 15.3615 39M32.8333 31.8051C31.9745 31.1601 30.9069 30.7778 29.75 30.7778C26.9119 30.7778 24.6111 33.0786 24.6111 35.9167C24.6111 37.0735 24.9934 38.1412 25.6385 39M32.8331 16.3888C34.8648 16.3872 35.9298 16.3614 36.7553 15.9408C37.5288 15.5467 38.1578 14.9177 38.5519 14.1442C39 13.2648 39 12.1135 39 9.81111V8.57778C39 6.27535 39 5.12412 38.5519 4.24471C38.1578 3.47114 37.5288 2.84222 36.7553 2.44809C35.876 2 34.7246 2 32.4222 2H8.57778C6.27535 2 5.12412 2 4.24471 2.44809C3.47114 2.84222 2.84222 3.47114 2.44809 4.24471C2 5.12412 2 6.27535 2 8.57778V9.81111C2 12.1135 2 13.2648 2.44809 14.1442C2.84222 14.9177 3.47114 15.5467 4.24471 15.9408C5.07016 16.3614 6.1351 16.3872 8.16677 16.3888M32.8331 16.3888C32.8333 16.5217 32.8333 16.6586 32.8333 16.8V32.4222C32.8333 34.7246 32.8333 35.876 32.3852 36.7553C31.9912 37.5288 31.3622 38.1578 30.5887 38.5519C29.7093 39 28.558 39 26.2556 39H14.7444C12.442 39 11.2908 39 10.4114 38.5519C9.63781 38.1578 9.00889 37.5288 8.61476 36.7553C8.16667 35.876 8.16667 34.7246 8.16667 32.4222V16.8C8.16667 16.6586 8.16667 16.5217 8.16677 16.3888M32.8331 16.3888C32.8317 14.3572 32.8058 13.2924 32.3852 12.4669C31.9912 11.6934 31.3622 11.0644 30.5887 10.6703C29.7093 10.2222 28.558 10.2222 26.2556 10.2222H14.7444C12.442 10.2222 11.2908 10.2222 10.4114 10.6703C9.63781 11.0644 9.00889 11.6934 8.61476 12.4669C8.19417 13.2924 8.16835 14.3572 8.16677 16.3888M24.6111 20.5C24.6111 22.7706 22.7706 24.6111 20.5 24.6111C18.2294 24.6111 16.3889 22.7706 16.3889 20.5C16.3889 18.2294 18.2294 16.3889 20.5 16.3889C22.7706 16.3889 24.6111 18.2294 24.6111 20.5Z" stroke="#1D3E80" stroke-width="3" stroke-linecap="round" stroke-linejoin="round"/>
<circle cx="20.5" cy="20.5" r="3.5" fill="#F18820"/>
</svg>
