<svg width="23" height="29" viewBox="0 0 23 29" fill="none" xmlns="http://www.w3.org/2000/svg">
<path d="M22.3848 20.8613C22.3848 23.0705 20.5939 24.8613 18.3848 24.8613L3.79898 24.8613L6.09187 27.1542C6.4824 27.5447 6.4824 28.1779 6.09187 28.5684C5.70135 28.959 5.06818 28.959 4.67766 28.5684L0.677659 24.5684C0.287135 24.1779 0.287135 23.5447 0.677659 23.1542L4.67766 19.1542C5.06818 18.7637 5.70135 18.7637 6.09187 19.1542C6.4824 19.5447 6.4824 20.1779 6.09187 20.5684L3.79898 22.8613L18.3848 22.8613C19.4893 22.8613 20.3848 21.9659 20.3848 20.8613V18.8613C20.3848 18.309 20.8325 17.8613 21.3848 17.8613C21.937 17.8613 22.3848 18.309 22.3848 18.8613V20.8613Z" fill="#F18820"/>
<path d="M18.0919 1.15422C17.7013 0.763697 17.0682 0.763697 16.6777 1.15422C16.2871 1.54475 16.2871 2.17791 16.6777 2.56843L18.9706 4.86133L4.38477 4.86133C2.17563 4.86133 0.384766 6.65219 0.384766 8.86133V10.8613C0.384766 11.4136 0.832481 11.8613 1.38477 11.8613C1.93705 11.8613 2.38477 11.4136 2.38477 10.8613V8.86133C2.38477 7.75676 3.2802 6.86133 4.38477 6.86133L18.9706 6.86133L16.6777 9.15422C16.2871 9.54475 16.2871 10.1779 16.6777 10.5684C17.0682 10.959 17.7013 10.959 18.0919 10.5684L22.0919 6.56843C22.4824 6.17791 22.4824 5.54475 22.0919 5.15422L18.0919 1.15422Z" fill="#1D3E80"/>
</svg>
