<svg width="28" height="27" viewBox="0 0 28 27" fill="none" xmlns="http://www.w3.org/2000/svg">
<path fill-rule="evenodd" clip-rule="evenodd" d="M4.85599 4.32896L19.1535 0.123812C21.0749 -0.441317 23 0.999084 23 3.00191V4.32896H23.2C24.8802 4.32896 25.7202 4.32896 26.362 4.65594C26.9265 4.94356 27.3854 5.4025 27.673 5.96699C28 6.60873 28 7.4488 28 9.12896V21.529C28 23.2091 28 24.0492 27.673 24.6909C27.3854 25.2554 26.9265 25.7144 26.362 26.002C25.7202 26.329 24.8802 26.329 23.2 26.329H4.8C3.11984 26.329 2.27976 26.329 1.63803 26.002C1.07354 25.7144 0.614601 25.2554 0.32698 24.6909C0 24.0492 0 23.2091 0 21.529V9.12896C0 7.4488 0 6.60873 0.32698 5.96699C0.614601 5.4025 1.07354 4.94356 1.63803 4.65594C2.27976 4.32896 3.11984 4.32896 4.8 4.32896H4.85599ZM19.7178 2.04254C20.3583 1.85417 21 2.3343 21 3.00191V4.32896H11.944L19.7178 2.04254ZM4.97681 6.32896C4.99194 6.32931 5.00711 6.32931 5.02232 6.32896H23.2C24.0731 6.32896 24.6076 6.33052 25.0075 6.36319C25.1938 6.37841 25.3065 6.39753 25.375 6.41365C25.4076 6.42132 25.4276 6.42775 25.4384 6.43161C25.4488 6.43533 25.454 6.43795 25.454 6.43795C25.6422 6.53383 25.7951 6.68681 25.891 6.87497C25.891 6.87497 25.8936 6.88014 25.8973 6.89054C25.9012 6.90137 25.9076 6.9214 25.9153 6.95396C25.9314 7.02241 25.9505 7.13513 25.9658 7.32143C25.9984 7.72135 26 8.25588 26 9.12896V13.829H21.5C20.9477 13.829 20.5 14.2767 20.5 14.829C20.5 15.3812 20.9477 15.829 21.5 15.829H26V21.529C26 22.402 25.9984 22.9366 25.9658 23.3365C25.9505 23.5228 25.9314 23.6355 25.9153 23.704C25.9076 23.7365 25.9012 23.7566 25.8973 23.7674C25.8936 23.7778 25.891 23.783 25.891 23.783C25.7951 23.9711 25.6422 24.1241 25.454 24.22C25.454 24.22 25.4488 24.2226 25.4384 24.2263C25.4276 24.2302 25.4076 24.2366 25.375 24.2443C25.3065 24.2604 25.1938 24.2795 25.0075 24.2947C24.6076 24.3274 24.0731 24.329 23.2 24.329H4.8C3.92692 24.329 3.39239 24.3274 2.99247 24.2947C2.80617 24.2795 2.69345 24.2604 2.625 24.2443C2.59244 24.2366 2.57241 24.2302 2.56158 24.2263C2.55118 24.2226 2.54601 24.22 2.54601 24.22C2.35785 24.1241 2.20487 23.9711 2.10899 23.783C2.10899 23.783 2.10636 23.7778 2.10265 23.7674C2.09879 23.7566 2.09236 23.7365 2.08469 23.704C2.06857 23.6355 2.04945 23.5228 2.03423 23.3365C2.00156 22.9366 2 22.402 2 21.529V9.12896C2 8.25588 2.00156 7.72135 2.03423 7.32143C2.04945 7.13513 2.06857 7.02241 2.08469 6.95396C2.09236 6.9214 2.09879 6.90137 2.10265 6.89054C2.10636 6.88014 2.10899 6.87497 2.10899 6.87497C2.20487 6.68681 2.35785 6.53383 2.54601 6.43795C2.54601 6.43795 2.55118 6.43533 2.56158 6.43161C2.57241 6.42775 2.59244 6.42132 2.625 6.41365C2.69345 6.39753 2.80617 6.37841 2.99247 6.36319C3.39239 6.33052 3.92692 6.32896 4.8 6.32896H4.97681Z" fill="#4CB04E"/>
</svg>
