<svg width="298" height="314" viewBox="0 0 298 314" fill="none" xmlns="http://www.w3.org/2000/svg">
<path d="M297.367 155.735C297.367 242.86 224.032 313.489 133.568 313.489C43.1046 313.489 -35.7825 250.387 17.5649 155.735C32.8071 23.0031 43.1591 0.510742 133.623 0.510742C220.903 26.9951 297.367 68.6091 297.367 155.735Z" fill="#F6FDF6"/>
<path fill-rule="evenodd" clip-rule="evenodd" d="M213.076 111.513C214.536 109.858 215.28 107.691 215.143 105.488C215.005 103.285 213.999 101.227 212.344 99.7659C210.689 98.3052 208.521 97.5617 206.318 97.699C204.115 97.8363 202.057 98.8431 200.597 100.498L147.06 161.064L120.579 139.492C119.732 138.801 118.758 138.284 117.712 137.97C116.665 137.656 115.567 137.552 114.48 137.662C112.285 137.885 110.268 138.971 108.874 140.681C108.183 141.528 107.666 142.503 107.352 143.549C107.038 144.596 106.934 145.694 107.044 146.781C107.267 148.976 108.353 150.992 110.063 152.387L142.751 179.01C144.416 180.364 146.541 181.023 148.68 180.848C150.82 180.673 152.809 179.677 154.232 178.069L213.076 111.513Z" fill="#175218"/>
<path fill-rule="evenodd" clip-rule="evenodd" d="M90.5756 157.019C90.5728 147.72 92.7967 138.556 97.0611 130.293C101.326 122.03 107.507 114.909 115.088 109.524C122.668 104.139 131.428 100.648 140.635 99.3419C149.841 98.0362 159.226 98.954 168.006 102.019C170.09 102.744 172.377 102.613 174.364 101.652C176.35 100.692 177.875 98.9819 178.6 96.8979C179.326 94.8139 179.195 92.5268 178.234 90.5399C177.274 88.5529 175.564 87.0289 173.48 86.3029C158.15 80.9546 141.497 80.7343 126.03 85.675C110.564 90.6157 97.123 100.45 87.7327 113.695C78.3424 126.94 73.5119 142.879 73.9692 159.109C74.4265 175.339 80.1468 190.98 90.268 203.675C100.389 216.371 114.363 225.433 130.083 229.495C145.803 233.557 162.417 232.399 177.421 226.196C192.426 219.993 205.008 209.081 213.27 195.104C221.533 181.128 225.029 164.844 223.231 148.708C223.11 147.622 222.778 146.57 222.251 145.613C221.724 144.656 221.014 143.811 220.161 143.128C219.309 142.445 218.329 141.937 217.28 141.633C216.231 141.328 215.132 141.233 214.046 141.353C212.96 141.474 211.908 141.806 210.951 142.333C209.994 142.86 209.149 143.57 208.466 144.423C207.783 145.275 207.275 146.255 206.971 147.304C206.666 148.353 206.571 149.452 206.691 150.538C207.568 158.408 206.83 166.373 204.523 173.948C202.217 181.522 198.39 188.547 193.276 194.593C188.163 200.638 181.87 205.577 174.783 209.108C167.696 212.639 159.963 214.688 152.058 215.129C144.152 215.571 136.239 214.395 128.803 211.675C121.367 208.954 114.564 204.746 108.81 199.307C103.055 193.868 98.4702 187.313 95.3351 180.042C92.1999 172.771 90.5804 164.937 90.5756 157.019Z" fill="#4CB04E"/>
</svg>
