<svg width="125" height="125" viewBox="0 0 125 125" fill="none" xmlns="http://www.w3.org/2000/svg">
<path fill-rule="evenodd" clip-rule="evenodd" d="M115.613 24.7153C116.82 23.3475 117.435 21.5561 117.321 19.7352C117.208 17.9144 116.376 16.2131 115.008 15.0058C113.64 13.7985 111.849 13.184 110.028 13.2975C108.207 13.411 106.506 14.2432 105.299 15.611L61.0493 65.6708L39.1618 47.8404C38.462 47.2697 37.6566 46.8424 36.7916 46.583C35.9267 46.3236 35.0191 46.237 34.1207 46.3283C32.3062 46.5127 30.6394 47.4104 29.4868 48.8237C28.9161 49.5236 28.4888 50.329 28.2294 51.1939C27.9699 52.0589 27.8834 52.9665 27.9747 53.8649C28.1591 55.6793 29.0567 57.3462 30.4701 58.4988L57.4873 80.5031C58.8637 81.623 60.6197 82.1674 62.3882 82.0226C64.1567 81.8778 65.8008 81.0549 66.9767 79.7261L115.613 24.7153Z" fill="#175218"/>
<path fill-rule="evenodd" clip-rule="evenodd" d="M14.3625 62.3278C14.3603 54.6423 16.1983 47.0679 19.7231 40.2382C23.2478 33.4085 28.3567 27.5222 34.6224 23.0715C40.8881 18.6208 48.1285 15.7351 55.7379 14.6559C63.3474 13.5767 71.1046 14.3353 78.3608 16.8682C80.0833 17.4682 81.9736 17.3594 83.6158 16.5657C85.2581 15.7719 86.5178 14.3583 87.1178 12.6358C87.7178 10.9133 87.609 9.02302 86.8152 7.38076C86.0215 5.7385 84.6079 4.4788 82.8854 3.8788C70.2146 -0.54172 56.4503 -0.723876 43.667 3.35978C30.8837 7.44345 19.7742 15.5716 12.0128 26.5192C4.25148 37.4669 0.258904 50.6406 0.636868 64.0551C1.01483 77.4695 5.74286 90.3975 14.1083 100.891C22.4738 111.384 34.0234 118.874 47.0164 122.231C60.0093 125.588 73.7415 124.632 86.1433 119.505C98.545 114.378 108.944 105.358 115.774 93.8064C122.603 82.2544 125.492 68.7955 124.006 55.4583C123.907 54.5607 123.631 53.6915 123.196 52.9002C122.761 52.109 122.174 51.4112 121.469 50.8467C120.764 50.2823 119.955 49.8622 119.088 49.6105C118.22 49.3587 117.312 49.2803 116.414 49.3796C115.517 49.479 114.648 49.7541 113.856 50.1894C113.065 50.6247 112.367 51.2115 111.803 51.9165C111.238 52.6214 110.818 53.4306 110.567 54.2979C110.315 55.1652 110.236 56.0735 110.336 56.9711C111.06 63.4754 110.45 70.0591 108.544 76.3198C106.637 82.5805 103.474 88.3867 99.2479 93.3834C95.0215 98.3802 89.8205 102.463 83.9628 105.381C78.1051 108.3 71.7138 109.993 65.1794 110.358C58.6451 110.723 52.105 109.751 45.9589 107.502C39.8128 105.254 34.1898 101.775 29.4336 97.2801C24.6773 92.7847 20.8877 87.3666 18.2964 81.3569C15.7052 75.3473 14.3666 68.8723 14.3625 62.3278Z" fill="#4CB04E"/>
</svg>
