<svg width="69" height="70" viewBox="0 0 69 70" fill="none" xmlns="http://www.w3.org/2000/svg">
<g clip-path="url(#clip0_4_16797)">
<path d="M47.05 11.4667V0.0337227L24.099 11.5097V-0.00927734L0 12.6777V69.5967H68.853V-0.00927734L47.05 11.4667ZM21.803 67.3017H2.295V14.0547L21.803 3.79072V67.3017ZM44.754 67.3017H24.099V14.0757L44.754 3.74772V67.3017ZM66.554 67.3017H47.05V14.0547L66.558 3.79072L66.554 67.3017Z" fill="#4AC64E"/>
<path d="M11.4762 32.8757H4.59424V25.9897H11.4802L11.4762 32.8757ZM6.88624 30.5757H9.18624V28.2757H6.88624V30.5757Z" fill="#4AC64E"/>
<path d="M19.508 32.8757H12.623V25.9897H19.508V32.8757ZM14.9181 30.5757H17.2081V28.2757H14.9181V30.5757Z" fill="#4AC64E"/>
<path d="M11.4762 42.0559H4.59424V35.1709H11.4802L11.4762 42.0559ZM6.88624 39.7559H9.18624V37.4619H6.88624V39.7559Z" fill="#4AC64E"/>
<path d="M19.508 42.0559H12.623V35.1709H19.508V42.0559ZM14.9181 39.7559H17.2081V37.4619H14.9181V39.7559Z" fill="#4AC64E"/>
<path d="M11.4762 51.2365H4.59424V44.3516H11.4802L11.4762 51.2365ZM6.88624 48.9416H9.18624V46.6415H6.88624V48.9416Z" fill="#4AC64E"/>
<path d="M19.508 51.2365H12.623V44.3516H19.508V51.2365ZM14.9181 48.9416H17.2081V46.6415H14.9181V48.9416Z" fill="#4AC64E"/>
<path d="M11.4762 60.4167H4.59424V53.5308H11.4802L11.4762 60.4167ZM6.88624 58.1168H9.18624V55.8167H6.88624V58.1168Z" fill="#4AC64E"/>
<path d="M19.508 60.4167H12.623V53.5308H19.508V60.4167ZM14.9181 58.1168H17.2081V55.8167H14.9181V58.1168Z" fill="#4AC64E"/>
<path d="M33.279 32.8757H26.394V25.9897H33.279V32.8757ZM28.689 30.5757H30.984V28.2757H28.689V30.5757Z" fill="#4AC64E"/>
<path d="M42.4592 32.8757H35.5742V25.9897H42.4592V32.8757ZM37.8692 30.5757H40.1692V28.2757H37.8692V30.5757Z" fill="#4AC64E"/>
<path d="M33.279 42.0559H26.394V35.1709H33.279V42.0559ZM28.689 39.7559H30.984V37.4619H28.689V39.7559Z" fill="#4AC64E"/>
<path d="M42.4592 42.0559H35.5742V35.1709H42.4592V42.0559ZM37.8692 39.7559H40.1692V37.4619H37.8692V39.7559Z" fill="#4AC64E"/>
<path d="M33.279 51.2365H26.394V44.3516H33.279V51.2365ZM28.689 48.9416H30.984V46.6415H28.689V48.9416Z" fill="#4AC64E"/>
<path d="M42.4592 51.2365H35.5742V44.3516H42.4592V51.2365ZM37.8692 48.9416H40.1692V46.6415H37.8692V48.9416Z" fill="#4AC64E"/>
<path d="M33.279 60.4167H26.394V53.5308H33.279V60.4167ZM28.689 58.1168H30.984V55.8167H28.689V58.1168Z" fill="#4AC64E"/>
<path d="M42.4592 60.4167H35.5742V53.5308H42.4592V60.4167ZM37.8692 58.1168H40.1692V55.8167H37.8692V58.1168Z" fill="#4AC64E"/>
<path d="M56.2301 32.8757H49.3501V25.9897H56.2351L56.2301 32.8757ZM51.6401 30.5757H53.9351V28.2757H51.6401V30.5757Z" fill="#4AC64E"/>
<path d="M64.267 32.8757H57.377V25.9897H64.267V32.8757ZM59.676 30.5757H61.976V28.2757H59.676V30.5757Z" fill="#4AC64E"/>
<path d="M56.2301 42.0559H49.3501V35.1709H56.2351L56.2301 42.0559ZM51.6401 39.7559H53.9351V37.4619H51.6401V39.7559Z" fill="#4AC64E"/>
<path d="M64.267 42.0559H57.377V35.1709H64.267V42.0559ZM59.676 39.7559H61.976V37.4619H59.676V39.7559Z" fill="#4AC64E"/>
<path d="M56.2301 51.2365H49.3501V44.3516H56.2351L56.2301 51.2365ZM51.6401 48.9416H53.9351V46.6415H51.6401V48.9416Z" fill="#4AC64E"/>
<path d="M64.267 51.2365H57.377V44.3516H64.267V51.2365ZM59.676 48.9416H61.976V46.6415H59.676V48.9416Z" fill="#4AC64E"/>
<path d="M56.2301 60.4167H49.3501V53.5308H56.2351L56.2301 60.4167ZM51.6401 58.1168H53.9351V55.8167H51.6401V58.1168Z" fill="#4AC64E"/>
<path d="M64.267 60.4167H57.377V53.5308H64.267V60.4167ZM59.676 58.1168H61.976V55.8167H59.676V58.1168Z" fill="#4AC64E"/>
</g>
<defs>
<clipPath id="clip0_4_16797">
<rect width="68.853" height="69.606" fill="white" transform="translate(0 -0.00927734)"/>
</clipPath>
</defs>
</svg>
