<svg width="42" height="42" viewBox="0 0 42 42" fill="none" xmlns="http://www.w3.org/2000/svg">
<path d="M42 19.9231V36.0769C42 39.3443 39.3443 42 36.0769 42H8.07692C2.86892 42 0 39.1311 0 33.9231V8.07692C0 2.86892 2.86892 0 8.07692 0H25.3077C30.5157 0 33.3846 2.86892 33.3846 8.07692V15.0769H37.1538C39.8268 15.0769 42 17.2502 42 19.9231ZM30.8022 38.7692C30.3887 37.9615 30.1538 37.0462 30.1538 36.0769V8.07692C30.1538 4.68031 28.7043 3.23077 25.3077 3.23077H8.07692C4.68031 3.23077 3.23077 4.68031 3.23077 8.07692V33.9231C3.23077 37.3197 4.68031 38.7692 8.07692 38.7692H30.8022ZM38.7692 19.9231C38.7692 19.0314 38.0455 18.3077 37.1538 18.3077H33.3846V36.0769C33.3846 37.5609 34.5929 38.7692 36.0769 38.7692C37.5609 38.7692 38.7692 37.5609 38.7692 36.0769V19.9231Z" fill="#4CB04E"/>
<path d="M24.3181 25.3624C24.3181 26.2541 23.5944 26.9778 22.7027 26.9778H9.7796C8.8879 26.9778 8.16421 26.2541 8.16421 25.3624C8.16421 24.4707 8.8879 23.747 9.7796 23.747H22.7027C23.5944 23.747 24.3181 24.4707 24.3181 25.3624ZM16.2411 30.2085H9.7796C8.8879 30.2085 8.16421 30.9322 8.16421 31.8239C8.16421 32.7156 8.8879 33.4393 9.7796 33.4393H16.2411C17.1328 33.4393 17.8565 32.7156 17.8565 31.8239C17.8565 30.9322 17.1328 30.2085 16.2411 30.2085ZM11.143 14.8214L13.1439 15.3383C13.4735 15.4244 13.704 15.7475 13.704 16.1223C13.704 16.4238 13.5575 16.62 13.4735 16.7083C13.3787 16.8074 13.215 16.9258 12.9867 16.9258H12.1143C11.7568 16.9258 11.4445 16.6112 11.4014 16.2127C11.3045 15.3254 10.5184 14.6858 9.62027 14.7806C8.73288 14.8754 8.09311 15.6743 8.18788 16.5616C8.36234 18.1813 9.46085 19.4739 10.9061 19.9499V19.9778C10.9061 20.8695 11.6298 21.5931 12.5215 21.5931C13.4132 21.5931 14.1368 20.8695 14.1368 19.9778V19.9628C14.755 19.7689 15.3258 19.4394 15.7975 18.9526C16.5298 18.1902 16.9325 17.1865 16.9325 16.1247C16.9325 14.281 15.7113 12.6741 13.956 12.2132L11.9528 11.6963C11.7589 11.6446 11.634 11.5217 11.5543 11.4205C11.4531 11.2869 11.3929 11.1018 11.3929 10.9123C11.3929 10.4686 11.7137 10.1067 12.11 10.1067H12.9824C13.3442 10.1067 13.6522 10.4126 13.6953 10.8197C13.79 11.7071 14.5698 12.3401 15.4766 12.2518C16.3639 12.1571 17.0036 11.3582 16.9088 10.4708C16.7322 8.83174 15.6078 7.52849 14.1346 7.06757V7.05679C14.1346 6.1651 13.4109 5.44141 12.5192 5.44141C11.6275 5.44141 10.9038 6.1651 10.9038 7.05679V7.08913C9.31862 7.61251 8.16211 9.11811 8.16211 10.9123C8.16211 11.8061 8.45286 12.6806 8.97624 13.3677C9.5147 14.0806 10.2814 14.5974 11.143 14.8214Z" fill="#4CB04E"/>
</svg>
