<svg width="25" height="24" viewBox="0 0 25 24" fill="none" xmlns="http://www.w3.org/2000/svg">
<path d="M5 13C4.44772 13 4 13.4477 4 14C4 14.5523 4.44772 15 5 15H13C13.5523 15 14 14.5523 14 14C14 13.4477 13.5523 13 13 13H5Z" fill="#4CB04E"/>
<path d="M4 10C4 9.44771 4.44772 9 5 9H13C13.5523 9 14 9.44771 14 10C14 10.5523 13.5523 11 13 11H5C4.44772 11 4 10.5523 4 10Z" fill="#4CB04E"/>
<path d="M5 5C4.44772 5 4 5.44772 4 6C4 6.55228 4.44772 7 5 7H13C13.5523 7 14 6.55228 14 6C14 5.44772 13.5523 5 13 5H5Z" fill="#4CB04E"/>
<path fill-rule="evenodd" clip-rule="evenodd" d="M0 3C0 1.34315 1.34315 0 3 0H15C16.6569 0 18 1.34315 18 3H22C23.6569 3 25 4.34315 25 6V19C25 21.3149 23.5109 23.6922 21 23.9725V24H5C2.34864 24 0 21.6823 0 19V3ZM18 19V5H22C22.5523 5 23 5.44772 23 6V19C23 20.7235 21.8761 22 20.5 22C19.1239 22 18 20.7235 18 19ZM16 19C16 20.0552 16.3094 21.1234 16.884 22H5C3.44569 22 2 20.5703 2 19V3C2 2.44772 2.44772 2 3 2H15C15.5523 2 16 2.44772 16 3V19Z" fill="#4CB04E"/>
</svg>
