<svg width="28" height="28" viewBox="0 0 28 28" fill="none" xmlns="http://www.w3.org/2000/svg">
<path d="M8.5 21.8944C7.94772 21.8944 7.5 22.3422 7.5 22.8944C7.5 23.4467 7.94772 23.8944 8.5 23.8944H19.5C20.0523 23.8944 20.5 23.4467 20.5 22.8944C20.5 22.3422 20.0523 21.8944 19.5 21.8944H8.5Z" fill="#4CB04E"/>
<path fill-rule="evenodd" clip-rule="evenodd" d="M16.2188 0.671799C14.8752 -0.223933 13.1248 -0.223933 11.7812 0.671799L1.7812 7.33847C0.668405 8.08033 0 9.32925 0 10.6667V24.3944C0 26.0513 1.34315 27.3944 3 27.3944H25C26.6569 27.3944 28 26.0513 28 24.3944V10.6667C28 9.32926 27.3316 8.08033 26.2188 7.33847L16.2188 0.671799ZM12.8906 2.3359C13.5624 1.88803 14.4376 1.88803 15.1094 2.3359L25.1094 9.00257C25.6658 9.3735 26 9.99796 26 10.6667V24.3944C26 24.9467 25.5523 25.3944 25 25.3944H3C2.44772 25.3944 2 24.9467 2 24.3944V10.6667C2 9.99796 2.3342 9.3735 2.8906 9.00257L12.8906 2.3359Z" fill="#4CB04E"/>
</svg>
