<svg width="28" height="28" viewBox="0 0 28 28" fill="none" xmlns="http://www.w3.org/2000/svg">
<path d="M2 1C2 0.447715 1.55229 0 1 0C0.447717 0 4.07409e-07 0.447715 4.07409e-07 1V22.2413C-1.18713e-05 23.0463 -2.20053e-05 23.7106 0.044195 24.2518C0.0901202 24.8139 0.188685 25.3306 0.435975 25.816C0.819469 26.5686 1.43139 27.1805 2.18404 27.564C2.66937 27.8113 3.18608 27.9099 3.74818 27.9558C4.28937 28 4.95372 28 5.75868 28H27C27.5523 28 28 27.5523 28 27C28 26.4477 27.5523 26 27 26H5.8C4.94342 26 4.36113 25.9992 3.91104 25.9624C3.47262 25.9266 3.24842 25.8617 3.09202 25.782C2.7157 25.5903 2.40974 25.2843 2.21799 24.908C2.1383 24.7516 2.07337 24.5274 2.03755 24.089C2.00078 23.6389 2 23.0566 2 22.2V1Z" fill="#4CB04E"/>
<path d="M11 9.5C11 8.94771 10.5523 8.5 10 8.5C9.44772 8.5 9 8.94771 9 9.5V19C9 19.5523 9.44772 20 10 20C10.5523 20 11 19.5523 11 19V9.5Z" fill="#4CB04E"/>
<path d="M21.5 8.5C22.0523 8.5 22.5 8.94771 22.5 9.5V19C22.5 19.5523 22.0523 20 21.5 20C20.9477 20 20.5 19.5523 20.5 19V9.5C20.5 8.94771 20.9477 8.5 21.5 8.5Z" fill="#4CB04E"/>
<path d="M17 5.5C17 4.94772 16.5523 4.5 16 4.5C15.4477 4.5 15 4.94772 15 5.5V19C15 19.5523 15.4477 20 16 20C16.5523 20 17 19.5523 17 19V5.5Z" fill="#4CB04E"/>
</svg>
