<svg width="23" height="28" viewBox="0 0 23 28" fill="none" xmlns="http://www.w3.org/2000/svg">
<path fill-rule="evenodd" clip-rule="evenodd" d="M22.2857 19.2175L18.6316 5.69349C17.7238 2.3337 14.6759 0 11.1956 0C7.71539 0 4.66747 2.33369 3.75967 5.69346L0.105529 19.2175C-0.409684 21.1243 1.02649 23 3.00167 23H19.3896C21.3647 23 22.8009 21.1243 22.2857 19.2175ZM5.69043 6.21515C6.36252 3.72774 8.61904 2 11.1956 2C13.7723 2 16.0288 3.72775 16.7009 6.21517L20.3549 19.7392C20.5267 20.3748 20.048 21 19.3896 21H3.00167C2.34328 21 1.86455 20.3748 2.03629 19.7392L5.69043 6.21515Z" fill="#A6A39D"/>
<path d="M8.81271 24.7583C8.63299 24.7583 8.47803 24.8916 8.47803 25.0713C8.47803 26.4635 9.6982 27.5922 11.2034 27.5922C12.7085 27.5922 13.9287 26.4635 13.9287 25.0713C13.9287 24.8916 13.7737 24.7583 13.594 24.7583H8.81271Z" fill="#A6A39D"/>
</svg>
