<svg width="28" height="21" viewBox="0 0 28 21" fill="none" xmlns="http://www.w3.org/2000/svg">
<path fill-rule="evenodd" clip-rule="evenodd" d="M2.90304 0.243193C2.48506 -0.117791 1.85358 -0.0715852 1.4926 0.346397C1.13161 0.764378 1.17782 1.39586 1.5958 1.75684L5.01797 4.71235C3.21042 6.00316 1.71641 7.45864 0.714416 8.61462C-0.203245 9.67329 -0.247459 11.2404 0.643219 12.3479C1.73846 13.7097 3.4895 15.4642 5.69152 16.8931C7.88936 18.3193 10.6608 19.5 13.7494 19.5C16.1278 19.5 18.318 18.7999 20.2031 17.8268L23.5958 20.7568C24.0138 21.1178 24.6453 21.0716 25.0062 20.6536C25.3672 20.2357 25.321 19.6042 24.903 19.2432L22.0199 16.7532C24.1221 15.3509 25.7959 13.6656 26.8556 12.3479C27.7463 11.2404 27.7021 9.67329 26.7844 8.61462C25.6239 7.27581 23.8035 5.53526 21.6004 4.11407C19.4152 2.70446 16.6836 1.50002 13.7494 1.50002C11.193 1.50002 8.7904 2.41427 6.76894 3.58193L2.90304 0.243193ZM6.58 6.06138C4.74333 7.30961 3.21475 8.78355 2.22569 9.92459C1.93478 10.2602 1.92338 10.7484 2.20173 11.0945C4.17083 13.5429 8.59267 17.5 13.7494 17.5C15.4518 17.5 17.074 17.0688 18.5544 16.4029L15.7386 13.9711C15.1527 14.3076 14.4735 14.5 13.7494 14.5C11.5403 14.5 9.74942 12.7092 9.74942 10.5C9.74942 10.4118 9.75228 10.3242 9.75791 10.2373C10.0502 10.4045 10.3886 10.5 10.7494 10.5C11.028 10.5 11.2933 10.443 11.5343 10.3401L6.58 6.06138ZM12.7358 8.73508L8.38268 4.97561C10.0527 4.09924 11.8861 3.50002 13.7494 3.50002C18.5503 3.50002 23.1522 7.47773 25.2731 9.92459C25.5641 10.2602 25.5755 10.7484 25.2971 11.0945C24.2676 12.3746 22.5675 14.0672 20.4426 15.391L17.174 12.5681C17.5392 11.9646 17.7494 11.2569 17.7494 10.5C17.7494 8.29088 15.9586 6.50002 13.7494 6.50002C13.1105 6.50002 12.5066 6.64981 11.9709 6.9162C12.4444 7.28195 12.7494 7.85536 12.7494 8.50002C12.7494 8.57954 12.7448 8.65798 12.7358 8.73508Z" fill="#FFFDFD"/>
</svg>
