<svg width="28" height="18" viewBox="0 0 28 18" fill="none" xmlns="http://www.w3.org/2000/svg">
<path d="M12.7494 7C12.7494 8.10457 11.854 9 10.7494 9C10.3886 9 10.0502 8.90447 9.75791 8.73732C9.75228 8.82415 9.74942 8.91174 9.74942 9C9.74942 11.2091 11.5403 13 13.7494 13C15.9586 13 17.7494 11.2091 17.7494 9C17.7494 6.79086 15.9586 5 13.7494 5C13.1105 5 12.5066 5.14979 11.9709 5.41618C12.4444 5.78193 12.7494 6.35535 12.7494 7Z" fill="#FFFDFD"/>
<path fill-rule="evenodd" clip-rule="evenodd" d="M21.8073 15.3931C24.0093 13.9642 25.7604 12.2097 26.8556 10.8479C27.7463 9.74039 27.7021 8.17328 26.7844 7.1146C25.6239 5.7758 23.8035 4.03524 21.6004 2.61406C19.4152 1.20445 16.6836 0 13.7494 0C10.8152 0 8.08363 1.20445 5.89845 2.61405C3.69531 4.03524 1.87489 5.7758 0.714416 7.1146C-0.203245 8.17327 -0.247459 9.74038 0.643219 10.8479C1.73846 12.2097 3.4895 13.9642 5.69152 15.3931C7.88936 16.8193 10.6608 18 13.7494 18C16.8381 18 19.6095 16.8193 21.8073 15.3931ZM2.22569 8.42458C4.34664 5.97771 8.94859 2 13.7494 2C18.5503 2 23.1522 5.97771 25.2731 8.42458C25.5641 8.7602 25.5755 9.24834 25.2971 9.59445C23.328 12.0429 18.9062 16 13.7494 16C8.59267 16 4.17083 12.0429 2.20173 9.59445C1.92338 9.24834 1.93478 8.7602 2.22569 8.42458Z" fill="#FFFDFD"/>
</svg>
