<svg width="28" height="28" viewBox="0 0 28 28" fill="none" xmlns="http://www.w3.org/2000/svg">
<path d="M9 12.5C9 11.9477 9.44771 11.5 10 11.5H18C18.5523 11.5 19 11.9477 19 12.5C19 13.0523 18.5523 13.5 18 13.5H10C9.44771 13.5 9 13.0523 9 12.5Z" fill="#A6A39D"/>
<path fill-rule="evenodd" clip-rule="evenodd" d="M22 7H23.2C24.8802 7 25.7202 7 26.362 7.32698C26.9265 7.6146 27.3854 8.07354 27.673 8.63803C28 9.27976 28 10.1198 28 11.8V23.2C28 24.8802 28 25.7202 27.673 26.362C27.3854 26.9265 26.9265 27.3854 26.362 27.673C25.7202 28 24.8802 28 23.2 28H4.8C3.11984 28 2.27976 28 1.63803 27.673C1.07354 27.3854 0.614601 26.9265 0.32698 26.362C0 25.7202 0 24.8802 0 23.2V11.8C0 10.1198 0 9.27976 0.32698 8.63803C0.614601 8.07354 1.07354 7.6146 1.63803 7.32698C2.27976 7 3.11984 7 4.8 7H6V2.4C6 1.07452 7.07451 0 8.4 0H19.6C20.9255 0 22 1.07452 22 2.4V7ZM4.8 9C3.92692 9 3.39239 9.00156 2.99247 9.03423C2.80617 9.04945 2.69345 9.06857 2.625 9.08469C2.59244 9.09236 2.57241 9.09879 2.56158 9.10265C2.55118 9.10636 2.54601 9.10899 2.54601 9.10899C2.35785 9.20487 2.20487 9.35785 2.10899 9.54601C2.10899 9.54601 2.10636 9.55118 2.10265 9.56158C2.09879 9.57241 2.09236 9.59244 2.08469 9.625C2.06857 9.69345 2.04945 9.80617 2.03423 9.99247C2.00156 10.3924 2 10.9269 2 11.8V23.2C2 24.0731 2.00156 24.6076 2.03423 25.0075C2.04945 25.1938 2.06857 25.3065 2.08469 25.375C2.09236 25.4076 2.09879 25.4276 2.10265 25.4384C2.10636 25.4488 2.10899 25.454 2.10899 25.454C2.20487 25.6422 2.35785 25.7951 2.54601 25.891C2.54601 25.891 2.55118 25.8936 2.56158 25.8973C2.57241 25.9012 2.59244 25.9076 2.625 25.9153C2.69345 25.9314 2.80617 25.9505 2.99247 25.9658C3.39239 25.9984 3.92692 26 4.8 26H23.2C24.0731 26 24.6076 25.9984 25.0075 25.9658C25.1938 25.9505 25.3065 25.9314 25.375 25.9153C25.4076 25.9076 25.4276 25.9012 25.4384 25.8973C25.4451 25.895 25.4492 25.8932 25.4516 25.8922L25.454 25.891C25.6422 25.7951 25.7951 25.6422 25.891 25.454L25.8922 25.4516C25.8932 25.4492 25.895 25.4451 25.8973 25.4384C25.9012 25.4276 25.9076 25.4076 25.9153 25.375C25.9314 25.3065 25.9505 25.1938 25.9658 25.0075C25.9984 24.6076 26 24.0731 26 23.2V11.8C26 10.9269 25.9984 10.3924 25.9658 9.99247C25.9505 9.80617 25.9314 9.69345 25.9153 9.625C25.9076 9.59244 25.9012 9.57241 25.8973 9.56158C25.8936 9.55118 25.891 9.54601 25.891 9.54601C25.7951 9.35785 25.6422 9.20487 25.454 9.10899C25.454 9.10899 25.4488 9.10636 25.4384 9.10265C25.4276 9.09879 25.4076 9.09236 25.375 9.08469C25.3065 9.06857 25.1938 9.04945 25.0075 9.03423C24.6076 9.00156 24.0731 9 23.2 9H4.8ZM20 7V2.4C20 2.17909 19.8209 2 19.6 2H8.4C8.17909 2 8 2.17909 8 2.4V7H20Z" fill="#A6A39D"/>
</svg>
