<svg width="298" height="314" viewBox="0 0 298 314" fill="none" xmlns="http://www.w3.org/2000/svg">
<path d="M297.552 155.735C297.552 242.86 224.216 313.489 133.753 313.489C43.2892 313.489 -35.5979 250.387 17.7495 155.735C32.9917 23.0031 43.3437 0.510742 133.807 0.510742C221.087 26.9951 297.552 68.6091 297.552 155.735Z" fill="#F8F9FB"/>
<path fill-rule="evenodd" clip-rule="evenodd" d="M75.6665 110.333C75.6665 99.2876 84.6208 90.3333 95.6665 90.3333H125.256C134.434 90.3333 142.433 96.5792 144.659 105.483L147.539 117H159H202.333C213.379 117 222.333 125.954 222.333 137V150.333C222.333 154.015 219.348 157 215.667 157C211.984 157 209 154.015 209 150.333V137C209 133.318 206.015 130.333 202.333 130.333H159H147.539H95.6665C91.9846 130.333 88.9998 133.318 88.9998 137V143.667V203.667C88.9998 207.349 91.9846 210.333 95.6665 210.333H129C132.682 210.333 135.667 213.318 135.667 217C135.667 220.682 132.682 223.667 129 223.667H95.6665C84.6208 223.667 75.6665 214.713 75.6665 203.667V143.667V137V110.333ZM88.9998 118.138C91.085 117.401 93.3289 117 95.6665 117H133.795L131.724 108.716C130.982 105.749 128.315 103.667 125.256 103.667H95.6665C91.9846 103.667 88.9998 106.651 88.9998 110.333V118.138Z" fill="#4CB04E"/>
<path fill-rule="evenodd" clip-rule="evenodd" d="M199.333 202.049C202.823 196.78 204.856 190.46 204.856 183.666C204.856 165.257 189.932 150.333 171.522 150.333C153.113 150.333 138.189 165.257 138.189 183.666C138.189 202.076 153.113 217 171.522 217C178.316 217 184.636 214.967 189.905 211.477L206.808 228.38C209.412 230.984 213.633 230.984 216.236 228.38C218.84 225.777 218.84 221.556 216.236 218.952L199.333 202.049ZM151.522 183.666C151.522 172.62 160.476 163.666 171.522 163.666C182.568 163.666 191.522 172.62 191.522 183.666C191.522 194.712 182.568 203.666 171.522 203.666C160.476 203.666 151.522 194.712 151.522 183.666Z" fill="#175218"/>
</svg>
