<svg width="24" height="28" viewBox="0 0 24 28" fill="none" xmlns="http://www.w3.org/2000/svg">
<path d="M8.00662e-07 27.0001C8.00662e-07 26.4478 0.447718 26.0001 1 26.0001H23C23.5523 26.0001 24 26.4478 24 27.0001C24 27.5524 23.5523 28.0001 23 28.0001H1C0.447718 28.0001 8.00662e-07 27.5524 8.00662e-07 27.0001Z" fill="#4CB04E"/>
<path d="M1 18.0001C0.447718 18.0001 8.00662e-07 18.4478 8.00662e-07 19.0001C8.00662e-07 19.5524 0.447718 20.0001 1 20.0001H23C23.5523 20.0001 24 19.5524 24 19.0001C24 18.4478 23.5523 18.0001 23 18.0001H1Z" fill="#4CB04E"/>
<path d="M13.3621 2.00009C13.8717 2.00009 13.9717 2.00592 14.0562 2.0252C14.1536 2.04747 14.2472 2.08423 14.3338 2.13426C14.4088 2.17758 14.486 2.24137 14.8594 2.58819L21.2973 8.5682C21.7107 8.95223 21.7871 9.03287 21.8389 9.11261C21.8987 9.20479 21.9429 9.30619 21.9697 9.41275C21.9929 9.50493 22 9.61582 22 10.1801V14.0001C22 14.5524 22.4477 15.0001 23 15.0001C23.5523 15.0001 24 14.5524 24 14.0001L24.0001 10.0924C24.0005 9.66507 24.0008 9.28836 23.9092 8.92439C23.8287 8.60472 23.6961 8.3005 23.5166 8.02397C23.3123 7.7091 23.0361 7.45299 22.7227 7.16245L16.1627 1.06904C15.8796 0.805649 15.63 0.573387 15.3345 0.402588C15.0747 0.2525 14.794 0.142215 14.5015 0.0754163C14.1687 -0.000599176 13.8278 -0.000297817 13.4411 4.55053e-05L4.16146 9.12817e-05C3.63431 7.22082e-05 3.17955 5.69485e-05 2.80497 0.0306604C2.40963 0.0629613 2.01641 0.134277 1.63803 0.327072C1.07354 0.614692 0.614603 1.07363 0.326983 1.63812C0.134189 2.0165 0.062873 2.40972 0.030572 2.80506C-3.09534e-05 3.17963 -1.6247e-05 3.63438 8.00662e-07 4.16151V14.0001C8.00662e-07 14.5524 0.447718 15.0001 1 15.0001C1.55229 15.0001 2 14.5524 2 14.0001V4.20009C2 3.62354 2.00078 3.25126 2.02393 2.96793C2.04613 2.69626 2.0838 2.59554 2.109 2.5461C2.20487 2.35794 2.35785 2.20496 2.54601 2.10908C2.59546 2.08389 2.69618 2.04621 2.96784 2.02402C3.25118 2.00087 3.62345 2.00009 4.2 2.00009H13.3621Z" fill="#4CB04E"/>
<path d="M1 22.0001C0.447718 22.0001 8.00662e-07 22.4478 8.00662e-07 23.0001C8.00662e-07 23.5524 0.447718 24.0001 1 24.0001H23C23.5523 24.0001 24 23.5524 24 23.0001C24 22.4478 23.5523 22.0001 23 22.0001H1Z" fill="#4CB04E"/>
</svg>
