<svg width="36" height="45" viewBox="0 0 36 45" fill="none" xmlns="http://www.w3.org/2000/svg">
<path d="M16.8019 0C19.1305 0 20.4474 0.331343 21.9943 1.81791L22.1733 1.99433L33.9882 13.7687C35.4055 15.1925 35.8548 16.2439 35.9671 18.0985L35.989 18.5794L35.9982 19.0979L36 38.4304C36 42.7093 33.8823 44.9113 29.6277 44.9973L29.3647 45H6.63528C2.31404 45 0.0904066 42.9036 0.00273982 38.691L0 38.4304V6.59015C0 2.31224 2.13779 0.0895521 6.37319 0.00268637L6.63528 0H16.8019ZM16.3307 3.37881H6.82796C4.67282 3.37881 3.5222 4.5 3.44914 6.45493L3.44549 6.65373V38.3678C3.44549 40.3988 4.52854 41.5451 6.59601 41.6167L6.80605 41.6212H29.194C31.3482 41.6212 32.4796 40.5394 32.5509 38.5675L32.5545 38.3678V19.5197H20.3542C17.7763 19.5197 16.4092 18.2919 16.3334 15.797L16.3307 15.5731V3.37881ZM19.5625 4.02985V15.1746C19.5625 15.9654 19.8657 16.3093 20.5971 16.3469L20.7396 16.3504H31.8897L19.5625 4.02985Z" fill="#4CB04E"/>
<path d="M9.85465 27.1982C10.6427 27.1982 11.2811 27.8251 11.2811 28.5979V38.3949C11.2811 39.1669 10.6418 39.7937 9.85465 39.7937H8.42732C7.63924 39.7937 7 39.1669 7 38.394V28.597C7 27.8251 7.63924 27.1982 8.42732 27.1982H9.85465ZM22.6987 31.3964C23.4868 31.3964 24.1252 32.0233 24.1252 32.7961V38.394C24.1252 39.1669 23.4859 39.7937 22.6987 39.7937H21.2714C20.4833 39.7937 19.8441 39.1669 19.8441 38.394V32.797C19.8441 32.0233 20.4833 31.3964 21.2714 31.3964H22.6987ZM16.2762 23C17.0643 23 17.7036 23.6269 17.7036 24.3988V38.394C17.7036 39.1669 17.0643 39.7937 16.2762 39.7937H14.8489C14.0608 39.7937 13.4225 39.1669 13.4225 38.394V24.3997C13.4225 23.6269 14.0617 23.0009 14.8489 23.0009L16.2762 23Z" fill="#4CB04E"/>
</svg>
