<svg width="29" height="29" viewBox="0 0 29 29" fill="none" xmlns="http://www.w3.org/2000/svg">
<g clip-path="url(#clip0_554_5054)">
<path d="M12.2379 14L2 14C1.44771 14 0.999999 14.4477 0.999999 15C0.999999 15.5523 1.44771 16 2 16L12.2379 16L8.35982 19.2318C7.93554 19.5853 7.87821 20.2159 8.23178 20.6402C8.58534 21.0645 9.21591 21.1218 9.64018 20.7682L15.6402 15.7682C15.8682 15.5782 16 15.2968 16 15C16 14.7032 15.8682 14.4218 15.6402 14.2318L9.64018 9.23178C9.21591 8.87821 8.58534 8.93554 8.23178 9.35982C7.87821 9.78409 7.93554 10.4147 8.35982 10.7682L12.2379 14Z" fill="white"/>
<path d="M18 28C18 27.4477 18.4477 27 19 27L23 27C23.5523 27 24 26.5523 24 26L24 4C24 3.44771 23.5523 3 23 3L19 3C18.4477 3 18 2.55228 18 2C18 1.44772 18.4477 0.999999 19 0.999999L23 0.999999C24.6569 0.999999 26 2.34315 26 4L26 26C26 27.6569 24.6569 29 23 29L19 29C18.4477 29 18 28.5523 18 28Z" fill="white"/>
</g>
<defs>
<clipPath id="clip0_554_5054">
<rect width="29" height="29" fill="white"/>
</clipPath>
</defs>
</svg>
