<svg width="298" height="314" viewBox="0 0 298 314" fill="none" xmlns="http://www.w3.org/2000/svg">
<path d="M297.552 155.735C297.552 242.86 224.216 313.489 133.753 313.489C43.2892 313.489 -35.5979 250.387 17.7495 155.735C32.9917 23.0031 43.3437 0.510742 133.807 0.510742C221.087 26.9951 297.552 68.6091 297.552 155.735Z" fill="#F8F9FB"/>
<path d="M137.983 141.882C140.073 136.924 141.087 131.579 140.958 126.2C140.879 118.602 138.548 111.197 134.262 104.922C129.976 98.6476 123.926 93.784 116.877 90.946C109.828 88.108 102.096 87.423 94.6576 88.9775C87.2194 90.532 80.4087 94.2564 75.0862 99.6799C69.7637 105.104 66.1681 111.983 64.7537 119.449C63.3394 126.915 64.1697 134.633 67.1398 141.628C70.1098 148.622 75.0864 154.58 81.4408 158.747C87.7951 162.914 95.2421 165.105 102.841 165.042C107.084 165.054 111.298 164.347 115.305 162.951" stroke="#175218" stroke-width="12" stroke-miterlimit="10"/>
<path d="M115.145 210.155H108.645H115.145ZM146.266 194.072V200.572H161.811L150.893 189.507L146.266 194.072ZM92.7084 139.791L97.3354 135.226L97.2913 135.181L97.2464 135.137L92.7084 139.791ZM91.1805 118.48L86.1765 114.332L86.099 114.425L86.0251 114.522L91.1805 118.48ZM103.002 113.012L102.923 119.512L103.029 119.513L103.134 119.511L103.002 113.012ZM113.858 117.435L109.222 121.991L109.242 122.011L109.262 122.031L113.858 117.435ZM146.507 150.084L141.911 154.68L145.897 158.667L150.407 155.284L146.507 150.084ZM179.317 125.477L183.217 130.677L183.219 130.675L179.317 125.477ZM199.421 126.924L194.815 131.51L194.82 131.516L199.421 126.924ZM232.794 181.125L238.993 179.168L238.979 179.126L238.965 179.084L232.794 181.125ZM227.078 184.61C228.16 188.034 231.811 189.932 235.234 188.851C238.657 187.77 240.556 184.119 239.475 180.696L227.078 184.61ZM189.771 219.739H131.228V232.739H189.771V219.739ZM131.228 219.739C128.686 219.739 126.249 218.729 124.452 216.932L115.259 226.124C119.494 230.359 125.239 232.739 131.228 232.739V219.739ZM124.452 216.932C122.654 215.135 121.645 212.697 121.645 210.155H108.645C108.645 216.145 111.024 221.889 115.259 226.124L124.452 216.932ZM121.645 210.155C121.645 207.614 122.654 205.176 124.452 203.379L115.259 194.187C111.024 198.422 108.645 204.166 108.645 210.155H121.645ZM124.452 203.379C126.249 201.582 128.686 200.572 131.228 200.572V187.572C125.239 187.572 119.494 189.951 115.259 194.187L124.452 203.379ZM131.228 200.572H146.266V187.572H131.228V200.572ZM150.893 189.507L97.3354 135.226L88.0815 144.356L141.639 198.637L150.893 189.507ZM97.2464 135.137C95.5664 133.499 94.5459 131.302 94.3781 128.961L81.4114 129.891C81.8068 135.406 84.2118 140.584 88.1705 144.445L97.2464 135.137ZM94.3781 128.961C94.2103 126.621 94.9069 124.3 96.3359 122.439L86.0251 114.522C82.6576 118.907 81.0159 124.376 81.4114 129.891L94.3781 128.961ZM96.1846 122.629C97.0045 121.64 98.0351 120.847 99.201 120.307L93.7431 108.509C90.8184 109.862 88.2332 111.851 86.1765 114.332L96.1846 122.629ZM99.201 120.307C100.367 119.768 101.639 119.496 102.923 119.512L103.08 106.513C99.858 106.474 96.6678 107.156 93.7431 108.509L99.201 120.307ZM103.134 119.511C104.265 119.488 105.387 119.696 106.434 120.122L111.339 108.083C108.652 106.988 105.77 106.454 102.869 106.513L103.134 119.511ZM106.434 120.122C107.481 120.549 108.43 121.185 109.222 121.991L118.494 112.879C116.461 110.81 114.026 109.178 111.339 108.083L106.434 120.122ZM109.262 122.031L141.911 154.68L151.103 145.488L118.454 112.839L109.262 122.031ZM150.407 155.284L183.217 130.677L175.417 120.277L142.607 144.884L150.407 155.284ZM183.219 130.675C184.928 129.393 187.042 128.771 189.173 128.925L190.107 115.958C184.849 115.58 179.632 117.114 175.416 120.278L183.219 130.675ZM189.173 128.925C191.304 129.078 193.308 129.996 194.815 131.51L204.028 122.338C200.308 118.603 195.364 116.337 190.107 115.958L189.173 128.925ZM194.82 131.516C209.297 146.023 220.187 163.709 226.623 183.166L238.965 179.084C231.894 157.705 219.928 138.272 204.022 122.333L194.82 131.516ZM226.596 183.082L227.078 184.61L239.475 180.696L238.993 179.168L226.596 183.082Z" fill="#4CB04E"/>
</svg>
