<svg width="24" height="28" viewBox="0 0 24 28" fill="none" xmlns="http://www.w3.org/2000/svg">
<path d="M24 4.16146V23.8385C24 24.3657 24 24.8205 23.9694 25.195C23.9371 25.5904 23.8658 25.9836 23.673 26.362C23.3854 26.9265 22.9265 27.3854 22.362 27.673C21.9836 27.8658 21.5904 27.9371 21.195 27.9694C20.8205 28 20.3657 28 19.8386 28H12C11.4477 28 11 27.5523 11 27C11 26.4477 11.4477 26 12 26H19.8C20.3766 26 20.7488 25.9992 21.0322 25.9761C21.3038 25.9539 21.4045 25.9162 21.454 25.891C21.6422 25.7951 21.7951 25.6422 21.891 25.454C21.9162 25.4046 21.9539 25.3038 21.9761 25.0322C21.9992 24.7488 22 24.3766 22 23.8L22 4.2C22 3.62345 21.9992 3.25118 21.9761 2.96784C21.9539 2.69618 21.9162 2.59546 21.891 2.54601C21.7951 2.35785 21.6422 2.20487 21.454 2.109C21.4045 2.0838 21.3038 2.04613 21.0322 2.02393C20.7488 2.00078 20.3766 2 19.8 2L4.2 2C3.62345 2 3.25118 2.00078 2.96784 2.02393C2.69618 2.04613 2.59546 2.0838 2.54601 2.109C2.35785 2.20487 2.20487 2.35785 2.109 2.54601C2.08381 2.59545 2.04613 2.69618 2.02393 2.96784C2.00078 3.25118 2 3.62345 2 4.2L2 18.3333C2 18.8856 1.55229 19.3333 1 19.3333C0.447718 19.3333 8.17167e-07 18.8856 8.17167e-07 18.3333V4.16144C-1.64644e-05 3.6343 -3.13725e-05 3.17954 0.0305717 2.80497C0.0628727 2.40963 0.134188 2.01641 0.326981 1.63803C0.614602 1.07354 1.07354 0.614603 1.63803 0.326983C2.01641 0.134189 2.40963 0.062873 2.80497 0.030572C3.17954 -3.09739e-05 3.63428 -1.62582e-05 4.16142 8.01508e-07H19.8385C20.3657 -1.55274e-05 20.8205 -2.96123e-05 21.195 0.0305728C21.5904 0.0628738 21.9836 0.13419 22.362 0.326984C22.9265 0.614604 23.3854 1.07355 23.673 1.63803C23.8658 2.01641 23.9371 2.40963 23.9694 2.80498C24 3.17955 24 3.63431 24 4.16146Z" fill="#4CB04E"/>
<path d="M7.79077 10.1872C7.79077 8.46552 9.18651 7.06977 10.9082 7.06977H11V7C11 6.44772 11.4477 6 12 6C12.5523 6 13 6.44772 13 7V7.06977H13.0698C14.8038 7.06977 16.2094 8.47539 16.2094 10.2093C16.2094 10.7616 15.7617 11.2093 15.2094 11.2093C14.6571 11.2093 14.2094 10.7616 14.2094 10.2093C14.2094 9.57996 13.6992 9.06977 13.0698 9.06977H10.9082C10.2911 9.06977 9.79077 9.57008 9.79077 10.1872C9.79077 10.8288 10.3108 11.3488 10.9524 11.3488H11.7281L11.7327 11.3488H12.7777C14.673 11.3488 16.2095 12.8853 16.2095 14.7806C16.2095 16.5906 14.7877 18.0685 13 18.1585V18.5C13 19.0523 12.5523 19.5 12 19.5C11.4477 19.5 11 19.0523 11 18.5V18.1571C9.21045 18.0547 7.79087 16.571 7.79087 14.7558C7.79087 14.2035 8.23858 13.7558 8.79087 13.7558C9.34315 13.7558 9.79087 14.2035 9.79087 14.7558C9.79087 15.5329 10.4208 16.1628 11.1978 16.1628H12.8273C13.5907 16.1628 14.2095 15.544 14.2095 14.7806C14.2095 13.9899 13.5684 13.3488 12.7777 13.3488H12.2721L12.2675 13.3488H10.9524C9.20626 13.3488 7.79077 11.9333 7.79077 10.1872Z" fill="#4CB04E"/>
<path d="M3.29289 20.2929C3.68342 19.9024 4.31658 19.9024 4.70711 20.2929L7.70711 23.2929C8.09763 23.6834 8.09763 24.3166 7.70711 24.7071L4.70711 27.7071C4.31658 28.0976 3.68342 28.0976 3.29289 27.7071C2.90237 27.3166 2.90237 26.6834 3.29289 26.2929L4.58579 25H1C0.447716 25 8.17167e-07 24.5523 8.17167e-07 24C8.17167e-07 23.4477 0.447716 23 1 23H4.58579L3.29289 21.7071C2.90237 21.3166 2.90237 20.6834 3.29289 20.2929Z" fill="#4CB04E"/>
</svg>
