<svg width="22" height="28" viewBox="0 0 22 28" fill="none" xmlns="http://www.w3.org/2000/svg">
<path d="M17.7071 0.292893C17.3166 -0.0976311 16.6834 -0.0976311 16.2929 0.292893C15.9024 0.683417 15.9024 1.31658 16.2929 1.70711L18.5858 4L4 4C1.79086 4 4.76837e-07 5.79086 4.76837e-07 8V10C4.76837e-07 10.5523 0.447716 11 1 11C1.55228 11 2 10.5523 2 10V8C2 6.89543 2.89543 6 4 6L18.5858 6L16.2929 8.29289C15.9024 8.68342 15.9024 9.31658 16.2929 9.70711C16.6834 10.0976 17.3166 10.0976 17.7071 9.70711L21.7071 5.70711C22.0976 5.31658 22.0976 4.68342 21.7071 4.29289L17.7071 0.292893Z" fill="#4CB04E"/>
<path d="M22 20C22 22.2091 20.2091 24 18 24L3.41421 24L5.70711 26.2929C6.09763 26.6834 6.09763 27.3166 5.70711 27.7071C5.31658 28.0976 4.68342 28.0976 4.29289 27.7071L0.292893 23.7071C-0.097631 23.3166 -0.097631 22.6834 0.292893 22.2929L4.29289 18.2929C4.68342 17.9024 5.31658 17.9024 5.70711 18.2929C6.09763 18.6834 6.09763 19.3166 5.70711 19.7071L3.41422 22L18 22C19.1046 22 20 21.1046 20 20V18C20 17.4477 20.4477 17 21 17C21.5523 17 22 17.4477 22 18V20Z" fill="#4CB04E"/>
</svg>
