<svg width="298" height="314" viewBox="0 0 298 314" fill="none" xmlns="http://www.w3.org/2000/svg">
<path d="M297.552 155.735C297.552 242.86 224.216 313.489 133.753 313.489C43.2892 313.489 -35.5979 250.387 17.7495 155.735C32.9917 23.0031 43.3437 0.510742 133.807 0.510742C221.087 26.9951 297.552 68.6091 297.552 155.735Z" fill="#F6FDF6"/>
<path d="M143.767 141.172C145.27 139.669 147.308 138.825 149.433 138.825C151.559 138.825 153.597 139.669 155.1 141.172L171.129 157.201C172.589 158.713 173.397 160.737 173.379 162.839C173.361 164.94 172.518 166.95 171.032 168.436C169.546 169.922 167.535 170.765 165.434 170.784C163.333 170.802 161.308 169.994 159.796 168.534L157.448 166.186V226.985C157.448 229.111 156.604 231.15 155.101 232.653C153.598 234.156 151.559 235 149.433 235C147.308 235 145.269 234.156 143.766 232.653C142.263 231.15 141.419 229.111 141.419 226.985V166.186L139.07 168.534C137.559 169.994 135.534 170.802 133.433 170.784C131.331 170.765 129.321 169.922 127.835 168.436C126.349 166.95 125.506 164.94 125.488 162.839C125.47 160.737 126.278 158.713 127.738 157.201L143.767 141.172Z" fill="#175218"/>
<path d="M141.067 95.032C136.788 95.0317 132.552 95.888 128.609 97.5505C124.666 99.2129 121.096 101.648 118.109 104.712C115.122 107.776 112.778 111.407 111.217 115.391C109.655 119.375 108.907 123.631 109.016 127.908C109.059 129.718 108.488 131.488 107.396 132.932C106.305 134.375 104.757 135.407 103.005 135.859C97.3546 137.339 92.4358 140.824 89.1657 145.663C85.8957 150.503 84.4977 156.367 85.2325 162.161C85.9674 167.955 88.7849 173.284 93.1595 177.155C97.5341 181.025 103.167 183.171 109.008 183.194H117.022C119.148 183.194 121.187 184.038 122.69 185.541C124.193 187.044 125.037 189.083 125.037 191.209C125.037 193.334 124.193 195.373 122.69 196.876C121.187 198.379 119.148 199.223 117.022 199.223H109.008C99.7773 199.225 90.8291 196.041 83.6753 190.207C76.5215 184.374 71.6008 176.25 69.7445 167.209C67.8883 158.167 69.2104 148.761 73.4874 140.581C77.7644 132.401 84.7341 125.949 93.2188 122.314C94.2295 112.184 98.429 102.636 105.213 95.0452C111.996 87.4542 121.014 82.2119 130.967 80.0732C140.92 77.9345 151.295 79.0096 160.598 83.1439C169.901 87.2781 177.652 94.2581 182.735 103.079C195.316 103.537 207.215 108.91 215.878 118.044C224.541 127.178 229.277 139.346 229.068 151.933C228.859 164.52 223.723 176.524 214.761 185.366C205.8 194.208 193.729 199.183 181.14 199.223C179.015 199.223 176.976 198.379 175.473 196.876C173.97 195.373 173.126 193.334 173.126 191.209C173.126 189.083 173.97 187.044 175.473 185.541C176.976 184.038 179.015 183.194 181.14 183.194C185.457 183.188 189.728 182.31 193.697 180.612C197.667 178.915 201.252 176.434 204.239 173.317C207.226 170.201 209.553 166.513 211.08 162.475C212.607 158.437 213.303 154.133 213.125 149.82C212.948 145.506 211.902 141.273 210.049 137.374C208.196 133.475 205.575 129.991 202.342 127.13C199.11 124.268 195.333 122.089 191.238 120.724C187.143 119.358 182.814 118.833 178.511 119.18C176.842 119.316 175.171 118.925 173.735 118.063C172.299 117.2 171.169 115.909 170.505 114.372C168.021 108.627 163.91 103.735 158.679 100.298C153.448 96.8616 147.325 95.031 141.067 95.032Z" fill="#4CB04E"/>
</svg>
