<svg width="26" height="26" viewBox="0 0 26 26" fill="none" xmlns="http://www.w3.org/2000/svg">
<path fill-rule="evenodd" clip-rule="evenodd" d="M22.1 3.7375C19.6625 1.3 16.4125 0 13 0C5.85 0 0 5.85 0 13C0 15.275 0.65001 17.55 1.78751 19.5L0 26L6.82502 24.2125C8.77502 25.1875 10.8875 25.8375 13 25.8375C20.15 25.8375 26 19.9875 26 12.8375C26 9.425 24.5375 6.175 22.1 3.7375ZM13 23.725C11.05 23.725 9.10001 23.2375 7.47501 22.2625L7.14999 22.1L3.08749 23.2375L4.22501 19.3375L3.89999 18.85C2.76249 17.0625 2.27499 15.1125 2.27499 13.1625C2.27499 7.3125 7.15 2.4375 13 2.4375C15.925 2.4375 18.525 3.575 20.6375 5.525C22.75 7.6375 23.725 10.2375 23.725 13.1625C23.725 18.85 19.0125 23.725 13 23.725ZM18.85 15.6C18.525 15.4375 16.9 14.625 16.575 14.625C16.25 14.4625 16.0875 14.4625 15.925 14.7875C15.7625 15.1125 15.1125 15.7625 14.95 16.0875C14.7875 16.25 14.625 16.25 14.3 16.25C13.975 16.0875 13 15.7625 11.7 14.625C10.725 13.8125 10.075 12.675 9.91251 12.35C9.75001 12.025 9.91252 11.8625 10.075 11.7C10.2375 11.5375 10.4 11.375 10.5625 11.2125C10.725 11.05 10.725 10.8875 10.8875 10.725C11.05 10.5625 10.8875 10.4 10.8875 10.2375C10.8875 10.075 10.2375 8.45 9.91251 7.8C9.75001 7.3125 9.42502 7.3125 9.26252 7.3125C9.10002 7.3125 8.93748 7.3125 8.61248 7.3125C8.44998 7.3125 8.12498 7.3125 7.79998 7.6375C7.47498 7.9625 6.66251 8.775 6.66251 10.4C6.66251 12.025 7.79999 13.4875 7.96249 13.8125C8.12499 13.975 10.2375 17.3875 13.4875 18.6875C16.25 19.825 16.7375 19.5 17.3875 19.5C18.0375 19.5 19.3375 18.6875 19.5 18.0375C19.825 17.225 19.825 16.575 19.6625 16.575C19.5 15.7625 19.175 15.7625 18.85 15.6Z" fill="#4CB04E"/>
</svg>
