<svg width="44" height="43" viewBox="0 0 44 43" fill="none" xmlns="http://www.w3.org/2000/svg">
<path fill-rule="evenodd" clip-rule="evenodd" d="M37.3982 6.18125C33.3669 2.15 27.9919 0 22.3481 0C10.5231 0 0.848145 9.675 0.848145 21.5C0.848145 25.2625 1.92316 29.025 3.80441 32.25L0.848145 43L12.1357 40.0438C15.3607 41.6562 18.8544 42.7313 22.3481 42.7313C34.1731 42.7313 43.8481 33.0562 43.8481 21.2312C43.8481 15.5875 41.4294 10.2125 37.3982 6.18125ZM22.3481 39.2375C19.1231 39.2375 15.8982 38.4313 13.2107 36.8188L12.6731 36.55L5.95438 38.4312L7.83566 31.9812L7.29813 31.175C5.41688 28.2188 4.61063 24.9938 4.61063 21.7688C4.61063 12.0938 12.6731 4.03125 22.3481 4.03125C27.1856 4.03125 31.4857 5.9125 34.9794 9.1375C38.4732 12.6312 40.0857 16.9313 40.0857 21.7688C40.0857 31.175 32.2919 39.2375 22.3481 39.2375ZM32.0232 25.8C31.4857 25.5313 28.7982 24.1875 28.2607 24.1875C27.7232 23.9188 27.4544 23.9188 27.1856 24.4563C26.9169 24.9938 25.8419 26.0687 25.5732 26.6062C25.3044 26.875 25.0356 26.875 24.4981 26.875C23.9606 26.6063 22.3482 26.0688 20.1982 24.1875C18.5857 22.8438 17.5107 20.9625 17.2419 20.425C16.9732 19.8875 17.2419 19.6187 17.5107 19.35C17.7794 19.0812 18.0481 18.8125 18.3169 18.5437C18.5856 18.275 18.5857 18.0063 18.8544 17.7375C19.1232 17.4688 18.8544 17.2 18.8544 16.9312C18.8544 16.6625 17.7794 13.975 17.2419 12.9C16.9732 12.0938 16.4357 12.0938 16.1669 12.0938C15.8982 12.0938 15.6294 12.0938 15.0919 12.0938C14.8231 12.0938 14.2856 12.0937 13.7481 12.6312C13.2106 13.1687 11.8669 14.5125 11.8669 17.2C11.8669 19.8875 13.7481 22.3062 14.0169 22.8438C14.2856 23.1125 17.7794 28.7563 23.1544 30.9062C27.7231 32.7875 28.5294 32.25 29.6044 32.25C30.6794 32.25 32.8294 30.9063 33.0981 29.8313C33.6356 28.4875 33.6357 27.4125 33.3669 27.4125C33.0982 26.0688 32.5607 26.0688 32.0232 25.8Z" fill="#4CB04E"/>
</svg>
