<svg xmlns="http://www.w3.org/2000/svg" width="128.043" height="128.043"
    viewBox="0 0 128.043 128.043">
    <defs>
        <style>.a{fill:#fff;stroke:#263d70;stroke-width:3px;}</style>
    </defs>
    <g transform="translate(1.5 1.5)">
        <path class="a"
            d="M86.073,35.434a3.909,3.909,0,0,0-5.338,1.43L55.746,80.149,41.764,67.254a3.908,3.908,0,1,0-5.7,5.346L53.929,89.078a3.9,3.9,0,0,0,5.521.18c.477-.446,28.056-48.482,28.056-48.482A3.917,3.917,0,0,0,86.073,35.434ZM62.522,0a62.522,62.522,0,1,0,62.522,62.522A62.519,62.519,0,0,0,62.522,0Zm0,117.228a54.706,54.706,0,1,1,54.706-54.706A54.706,54.706,0,0,1,62.522,117.228Z" />
    </g>
</svg>