<svg xmlns="http://www.w3.org/2000/svg" width="34.334" height="34.474" viewBox="0 0 34.334 34.474">
    <defs>
        <style>
            .a{fill:#5b96cc;stroke:#fff;stroke-width:0.7px;}.b{fill:none;stroke:#5b96cc;stroke-linecap:round;stroke-width:0.5px;}
        </style>
    </defs>
    <g transform="translate(0.513 0.35)">
        <path class="a"
            d="M32.186,27.561a8.964,8.964,0,0,0-2.214-3.669L8.409,2.33a.812.812,0,0,0-1.148,0l-.12.12L5.437.725a2.435,2.435,0,0,0-3.467,0l-1,1.013A2.442,2.442,0,0,0,.982,5.17L2.7,6.884l-.63.623a4.059,4.059,0,0,0-.016,5.756l6.5,6.5a.812.812,0,1,0,1.148-1.148l-6.5-6.5a2.434,2.434,0,0,1-.054-3.387l9.718,9.718,1.775,1.775,1.148,1.148,8.356,8.356a8.963,8.963,0,0,0,3.669,2.215l4.872,1.511A.812.812,0,0,0,33.7,32.434ZM2.126,2.878l1-1.013a.812.812,0,0,1,1.156,0L5.993,3.6,3.85,5.742,2.13,4.022A.814.814,0,0,1,2.126,2.878ZM4.3,7.588,7.835,4.052l8.614,8.614L12.914,16.2Zm9.762,9.762L17.6,13.814l1.722,1.722-3.536,3.536Zm2.87,2.87,3.536-3.536,8.356,8.356q.127.127.246.26l-3.522,3.522c-.088-.08-.176-.162-.26-.246ZM28.289,30.388a7.3,7.3,0,0,1-1.406-.6l3.147-3.147a7.3,7.3,0,0,1,.605,1.406l1.054,3.4Zm0,0"
            transform="translate(-0.271 0)" />
        <line class="b" x2="30.502" transform="translate(0.544 33.875)" />
    </g>
</svg>