<svg xmlns="http://www.w3.org/2000/svg" width="16.375" height="15.52" viewBox="0 0 16.375 15.52">
    <defs>
        <style>.a{fill:#fff;}.b{fill:#5b96cc;stroke:#fff;}.c{stroke:none;}.d{fill:none;}</style>
    </defs>
    <g transform="translate(-317.09 -182.395)">
        <g transform="translate(317.09 182.395)">
            <path class="a" d="M53.633,104.109h6.924a.32.32,0,1,0,0-.64H53.633a.32.32,0,1,0,0,.64Z"
                transform="translate(-51.608 -100.576)" />
            <path class="a" d="M60.556,387.793H53.633a.32.32,0,1,0,0,.64h6.924a.32.32,0,1,0,0-.64Z"
                transform="translate(-51.608 -375.806)" />
            <path class="a"
                d="M16.282,26,13.8,23.518a4.109,4.109,0,0,0,.995-2.693,4.17,4.17,0,0,0-.026-.464.32.32,0,0,0-.636.071,3.56,3.56,0,0,1,.022.393A3.477,3.477,0,0,1,13.129,23.3h0a3.5,3.5,0,1,1,0-4.951.32.32,0,0,0,.452-.452,4.109,4.109,0,0,0-2.607-1.2v-2a1.7,1.7,0,0,0-1.7-1.7H1.7A1.7,1.7,0,0,0,0,14.7V22.1a.32.32,0,0,0,.64,0V14.7A1.059,1.059,0,0,1,1.7,13.64H9.276A1.059,1.059,0,0,1,10.334,14.7v2a4.135,4.135,0,0,0-2.851,1.468H2.025a.32.32,0,0,0,0,.64H7.041a4.11,4.11,0,0,0-.509,1.634H2.025a.32.32,0,1,0,0,.64h4.5a4.111,4.111,0,0,0,.448,1.634H2.025a.32.32,0,1,0,0,.64H7.378a4.138,4.138,0,0,0,2.956,1.6v1.87A1.059,1.059,0,0,1,9.276,27.88H1.7A1.059,1.059,0,0,1,.64,26.823V22.039a.32.32,0,1,0-.64,0v4.783a1.7,1.7,0,0,0,1.7,1.7H9.276a1.7,1.7,0,0,0,1.7-1.7v-1.87a4.1,4.1,0,0,0,2.373-.983l2.483,2.483A.32.32,0,0,0,16.282,26Z"
                transform="translate(0 -13)" />
        </g>
        <g class="b" transform="translate(323.375 185.95)">
            <circle class="c" cx="4.44" cy="4.44" r="4.44" />
            <circle class="d" cx="4.44" cy="4.44" r="3.94" />
        </g>
    </g>
</svg>