<svg xmlns="http://www.w3.org/2000/svg" width="13.988" height="20.2" viewBox="0 0 13.988 20.2">
    <defs>
        <style>.a{fill:#5b96cc;stroke:#fff;stroke-width:0.2px;}</style>
    </defs>
    <g transform="translate(0.1 0.1)">
        <g transform="translate(0.941 0.903)">
            <path class="a" d="M20.75,20.189H14.6V18.9h4.861V14H20.75Z"
                transform="translate(-14.6 -14)" />
        </g>
        <path class="a"
            d="M13.236,20H.552A.555.555,0,0,1,0,19.444V5.556a.576.576,0,0,1,.16-.394l4.964-5A.567.567,0,0,1,5.515,0h7.721a.555.555,0,0,1,.552.556V19.444A.555.555,0,0,1,13.236,20ZM1.1,18.889H12.685V1.111H5.741L1.1,5.783Z" />
    </g>
</svg>