<svg xmlns="http://www.w3.org/2000/svg" width="33.162" height="36.736" viewBox="0 0 33.162 36.736">
    <defs>
        <style>.a{fill:#5b96cc;stroke:#fff;}</style>
    </defs>
    <g transform="translate(-25.1 0.5)">
        <g transform="translate(25.6 26.156)">
            <path class="a"
                d="M51.958,376.222c-.95-.416-2.028-.886-3.254-1.447l-.055-.025-.043.042a11.453,11.453,0,0,1-1.352,1.121l-.125.088.139.065c1.54.716,2.874,1.3,4,1.8,4.188,1.827,4.717,2.184,4.717,3.18a1.615,1.615,0,0,1-1.51,1.51H28.887a1.615,1.615,0,0,1-1.51-1.51c0-1,.529-1.353,4.717-3.18,1.129-.494,2.463-1.08,4-1.8l.139-.065-.125-.088a11.561,11.561,0,0,1-1.352-1.121l-.043-.042-.055.025c-1.227.561-2.3,1.032-3.254,1.447-4.224,1.844-5.8,2.534-5.8,4.821a3.416,3.416,0,0,0,3.287,3.287H54.476a3.416,3.416,0,0,0,3.287-3.287C57.763,378.757,56.182,378.066,51.958,376.222Z"
                transform="translate(-25.6 -374.75)" />
        </g>
        <g transform="translate(27.387)">
            <path class="a"
                d="M78,10.721H76.215a10.721,10.721,0,1,0-21.442,0H52.987A1.787,1.787,0,0,0,51.2,12.508v5.36a1.787,1.787,0,0,0,1.787,1.787h1.787a1.767,1.767,0,0,0,1.317-.6,2.8,2.8,0,0,0,.167.229c1.237,4.9,4.91,8.458,9.237,8.458,4.432,0,8.17-3.739,9.315-8.819a1.754,1.754,0,0,0,1.406.734H78a1.787,1.787,0,0,0,1.787-1.787v-5.36A1.787,1.787,0,0,0,78,10.721ZM54.774,17.868H52.987v-5.36h1.787Zm10.721,8.1c-2.89,0-5.417-2.039-6.8-5.064a18.888,18.888,0,0,0,6.8,1.436.893.893,0,0,0,0-1.787A14.7,14.7,0,0,1,57.879,18.4a13.2,13.2,0,0,1-.292-2.74c0-5.683,3.548-10.307,7.908-10.307S73.4,9.973,73.4,15.657,69.854,25.963,65.494,25.963Zm8.913-15.029c-1.477-4.322-4.916-7.36-8.913-7.36s-7.435,3.038-8.913,7.36c0-.073-.021-.141-.021-.213a8.934,8.934,0,1,1,17.868,0C74.428,10.794,74.409,10.861,74.407,10.934ZM78,17.868H76.215v-5.36H78Z"
                transform="translate(-51.2)" />
        </g>
    </g>
</svg>