<svg id="Camada_1" data-name="Camada 1" xmlns="http://www.w3.org/2000/svg"
    viewBox="0 0 98.77 102.62">
    <defs>
        <style>
            .cls-1,.cls-2{fill:none;stroke:#fff;stroke-width:3px;}.cls-1{stroke-linecap:round;stroke-linejoin:round;}
        </style>
    </defs>
    <title>icone Ajuda</title>
    <g id="Grupo_8664" data-name="Grupo 8664">
        <g id="Grupo_8665" data-name="Grupo 8665">
            <path id="Caminho_3511" data-name="Caminho 3511" class="cls-1"
                d="M28.62,35.19,75.53,62l48.85-26.76" transform="translate(-27.12 -33.69)" />
            <g id="Grupo_8664-2" data-name="Grupo 8664-2">
                <path id="Caminho_3512" data-name="Caminho 3512" class="cls-1"
                    d="M36.45,88.35H28.62V35.19h95.76V88.35H61.74"
                    transform="translate(-27.12 -33.69)" />
                <path id="Caminho_3513" data-name="Caminho 3513" class="cls-2" d="M32.6,84.37"
                    transform="translate(-27.12 -33.69)" />
                <path id="Caminho_3514" data-name="Caminho 3514" class="cls-2" d="M120.4,84.37"
                    transform="translate(-27.12 -33.69)" />
                <path id="Caminho_3515" data-name="Caminho 3515" class="cls-1"
                    d="M54.65,61.25l2.17,2.22.09.14,7.94,15h0a5.58,5.58,0,0,1,.66,1.94,5.83,5.83,0,0,1-.08,2,6.88,6.88,0,0,1-.65,1.83A6.34,6.34,0,0,1,63.62,86h0L60.26,89.4a6.92,6.92,0,0,0,.28.88A17.09,17.09,0,0,0,61.3,92h0a42.3,42.3,0,0,0,7.61,9.83,43.3,43.3,0,0,0,9.85,7.67h0c.56.29,1,.5,1.38.65a5.57,5.57,0,0,0,.79.25l.38.08,4-4,.09-.1a6.77,6.77,0,0,1,2.07-1.26,6.47,6.47,0,0,1,2.38-.43,6.77,6.77,0,0,1,1.56.16,5.23,5.23,0,0,1,1.38.52l.15,0,14.36,8.49,0,0a6.63,6.63,0,0,1,1.8,1.58,5.41,5.41,0,0,1,1,2.17v.13a5.33,5.33,0,0,1-.24,2.51,5.44,5.44,0,0,1-1.36,2.13h0l-9.82,9.75a7.05,7.05,0,0,1-1.07,1,10.2,10.2,0,0,1-1.28.75,10.42,10.42,0,0,1-1.34.54,8.79,8.79,0,0,1-1.37.31l-.26,0h0l-.27,0-.55,0c-.3,0-.5,0-.61,0-11,0-23.37-7.11-33.68-16.75-11.36-10.63-20.29-24.44-22-35.17q-.16-1-.24-1.89a15.59,15.59,0,0,1-.09-1.6h0v-.06h0v-.55c0-.55.05-.9.06-1s0-.26,0-.35l0-.28a9.38,9.38,0,0,1,.32-1.37,10.28,10.28,0,0,1,.54-1.33,7.85,7.85,0,0,1,.76-1.28,6.64,6.64,0,0,1,.89-1h0l9.89-9.89a5.69,5.69,0,0,1,1.73-1.19,5.05,5.05,0,0,1,2.06-.44h0a5.25,5.25,0,0,1,1.53.23m39.61,73.89Z"
                    transform="translate(-27.12 -33.69)" />
            </g>
        </g>
    </g>
</svg>