<svg xmlns="http://www.w3.org/2000/svg" width="73" height="128" viewBox="0 0 73 128">
    <defs>
        <style>
            .a{fill:#fff;stroke:#294073;}.b{fill:none;stroke:#fff;stroke-linecap:round;stroke-width:3px;}
        </style>
    </defs>
    <g transform="translate(-151.5 -116.5)">
        <g transform="translate(149.499 117.187)">
            <path class="a"
                d="M9.326,127A9.339,9.339,0,0,1,0,117.673V9.323A9.336,9.336,0,0,1,9.326,0H62.67A9.338,9.338,0,0,1,72,9.323V88.9c0,.032,0,.064,0,.1v28.683A9.339,9.339,0,0,1,62.67,127Zm-5.093-9.325a5.1,5.1,0,0,0,5.093,5.09H62.67a5.1,5.1,0,0,0,5.095-5.09V101.6H4.233Zm0-20.309H67.765V16.934H4.233Zm0-88.043V12.7H67.763V9.323a5.1,5.1,0,0,0-5.093-5.09H9.326A5.1,5.1,0,0,0,4.231,9.323Zm23.3,102.86A8.471,8.471,0,1,1,36,120.649,8.477,8.477,0,0,1,27.53,112.183Zm4.234,0A4.234,4.234,0,1,0,36,107.95,4.24,4.24,0,0,0,31.765,112.183Zm10.587-101.6a2.116,2.116,0,1,1,0-4.233h2.12a2.116,2.116,0,1,1,0,4.233Zm-14.821,0a2.116,2.116,0,1,1,0-4.233H36a2.116,2.116,0,0,1,0,4.233Z"
                transform="translate(2.501 -0.187)" />
        </g>
        <g transform="translate(-3037.281 711.719)">
            <path class="b" d="M3212.633-548.342l25.479,25.479" />
            <path class="b" d="M3238.111-548.342l-25.479,25.479" />
        </g>
    </g>
</svg>