<svg xmlns="http://www.w3.org/2000/svg" width="106.114" height="128.661"
    viewBox="0 0 106.114 128.661">
    <defs>
        <style>.a,.b{fill:#fff;stroke-width:2px;}.a{stroke:#263d70;}.b{stroke:#243b6e;}</style>
    </defs>
    <g transform="translate(-44.51 1.036)">
        <g transform="translate(45.51 0)">
            <path class="a"
                d="M146.986,15.482c-15.8-.989-31.96-6.077-48.04-15.12a2.814,2.814,0,0,0-2.759,0c-16.08,9.044-32.242,14.131-48.04,15.12A2.814,2.814,0,0,0,45.51,18.29V71.754a42.949,42.949,0,0,0,8.2,25.022,69.4,69.4,0,0,0,17.633,16.9A107.764,107.764,0,0,0,96.7,126.49a2.816,2.816,0,0,0,1.725,0,107.782,107.782,0,0,0,25.356-12.815,69.388,69.388,0,0,0,17.633-16.9,42.944,42.944,0,0,0,8.206-25.022V18.29A2.814,2.814,0,0,0,146.986,15.482ZM144,71.754c0,14-7.838,26.517-23.3,37.212a105.356,105.356,0,0,1-23.134,11.869,105.02,105.02,0,0,1-23.023-11.794C59.012,98.332,51.138,85.787,51.138,71.754V20.9C66.485,19.523,82.083,14.53,97.567,6.033,113.051,14.529,128.65,19.523,144,20.9V71.754Z"
                transform="translate(-45.51 0)" />
            <path class="b"
                d="M215.129,181.988c-.4-2.39-.807-4.845-1.17-7.277a16.884,16.884,0,1,0-18.686,0c-.363,2.433-.772,4.887-1.17,7.277-.815,4.891-1.658,9.949-2.137,14.972a2.814,2.814,0,0,0,2.8,3.081h19.7a2.814,2.814,0,0,0,2.8-3.081C216.787,191.936,215.944,186.879,215.129,181.988Zm-7.014-8.368c.432,3.11.956,6.254,1.462,9.293.63,3.78,1.277,7.662,1.748,11.5h-13.42c.471-3.838,1.118-7.72,1.748-11.5.507-3.039,1.031-6.183,1.462-9.293a2.814,2.814,0,0,0-1.528-2.9,11.256,11.256,0,1,1,10.055,0A2.814,2.814,0,0,0,208.115,173.62Z"
                transform="translate(-152.558 -108.208)" />
        </g>
    </g>
</svg>