<svg xmlns="http://www.w3.org/2000/svg" width="57.579" height="57.579" viewBox="0 0 57.579 57.579">
    <defs>
        <style>.a{fill:#5b96cc;stroke:#fff;}</style>
    </defs>
    <g transform="translate(0.5 0.5)">
        <path class="a"
            d="M38.946,16.033a1.769,1.769,0,0,0-2.415.647L25.224,36.265,18.9,30.431a1.768,1.768,0,1,0-2.58,2.419L24.4,40.305a1.767,1.767,0,0,0,2.5.081c.216-.2,12.695-21.937,12.695-21.937A1.772,1.772,0,0,0,38.946,16.033ZM28.289,0A28.289,28.289,0,1,0,56.579,28.289,28.288,28.288,0,0,0,28.289,0Zm0,53.043A24.753,24.753,0,1,1,53.043,28.289,24.753,24.753,0,0,1,28.289,53.043Z" />
    </g>
</svg>