<svg xmlns="http://www.w3.org/2000/svg" width="16.571" height="16.571" viewBox="0 0 16.571 16.571">
    <defs>
        <style>.a{fill:#fff;}</style>
    </defs>
    <path class="a"
        d="M8.285,0a8.286,8.286,0,1,0,8.286,8.286A8.295,8.295,0,0,0,8.285,0Zm0,15.485a7.2,7.2,0,1,1,7.2-7.2A7.207,7.207,0,0,1,8.285,15.485Z" />
    <path class="a"
        d="M112.124,130.842l-4.272,4.272-1.727-1.727a.543.543,0,0,0-.768.769l2.111,2.111a.544.544,0,0,0,.768,0h0l4.655-4.655a.543.543,0,1,0-.768-.768Z"
        transform="translate(-100.839 -125.269)" />
</svg>