<svg xmlns="http://www.w3.org/2000/svg" width="9.983" height="9.175" viewBox="0 0 9.983 9.175">
    <defs>
        <style>.a{fill:#fff;}</style>
    </defs>
    <g transform="translate(0)">
        <path class="a"
            d="M9.359,245.89c0,.873-.524.936-.624.936H1.064l1.65-1.65-.44-.443L.091,246.917a.312.312,0,0,0,0,.44l2.184,2.184.44-.44-1.65-1.65H8.735c.431,0,1.248-.312,1.248-1.56"
            transform="translate(0 -240.366)" />
        <path class="a"
            d="M.637,24.386c0-.873.524-.936.624-.936H8.932L7.282,25.1l.44.44,2.184-2.184a.312.312,0,0,0,0-.44L7.722,20.733l-.443.443,1.653,1.65H1.261c-.431,0-1.248.312-1.248,1.56Z"
            transform="translate(-0.013 -20.733)" />
    </g>
</svg>