<svg xmlns="http://www.w3.org/2000/svg" width="17.275" height="19" viewBox="0 0 17.275 19">
    <defs>
        <style>.a{fill:#fff;}.b{fill:none;stroke:#fff;stroke-linecap:round;}</style>
    </defs>
    <g transform="translate(-328.725 -229)">
        <path class="a"
            d="M16.474,13.992a4.551,4.551,0,0,0-1.124-1.863L4.4,1.183a.412.412,0,0,0-.583,0l-.061.061L2.894.368a1.236,1.236,0,0,0-1.76,0L.626.882A1.24,1.24,0,0,0,.632,2.625l.87.87-.32.316a2.061,2.061,0,0,0-.008,2.922l3.3,3.3a.412.412,0,1,0,.583-.583l-3.3-3.3a1.236,1.236,0,0,1-.027-1.72L6.662,9.364l.9.9.583.583,4.242,4.242a4.55,4.55,0,0,0,1.863,1.124l2.474.767a.412.412,0,0,0,.516-.516ZM1.213,1.461,1.72.947a.412.412,0,0,1,.587,0l.869.88L2.088,2.915l-.873-.873A.413.413,0,0,1,1.213,1.461Zm1.1,2.391,1.795-1.8L8.485,6.431l-1.8,1.8ZM7.272,8.808l1.795-1.8.874.874-1.8,1.8Zm1.457,1.457,1.8-1.8,4.242,4.242q.064.064.125.132L13.1,14.633c-.045-.041-.089-.082-.132-.125ZM14.5,15.427a3.708,3.708,0,0,1-.714-.307l1.6-1.6a3.7,3.7,0,0,1,.307.714l.535,1.726Zm0,0"
            transform="translate(328.453 229)" />
        <line class="b" x2="14" transform="translate(331.5 247.5)" />
    </g>
</svg>