<svg xmlns="http://www.w3.org/2000/svg" width="30.669" height="30.669" viewBox="0 0 30.669 30.669">
    <defs>
        <style>.a{fill:#5b96cc;}.b{clip-path:url(#a);}</style>
        <clipPath id="a">
            <path class="a" d="M0,0H30.669V30.669H0Z" />
        </clipPath>
    </defs>
    <g transform="translate(-56.494 -496.736)">
        <path class="a"
            d="M4.761,13.475a3.223,3.223,0,0,1-.561-.049l-3.149-.555a.337.337,0,1,1,.117-.663l3.149.555a2.885,2.885,0,0,0,2.675-1.044,2.556,2.556,0,0,0,.552-2.511c-.385-1.057-1.6-1.817-3.427-2.138C1.46,6.6.506,5.413.173,4.5A3.221,3.221,0,0,1,.842,1.324,3.555,3.555,0,0,1,4.15.049L7.067.564a.337.337,0,0,1-.117.664L4.033.713A2.885,2.885,0,0,0,1.358,1.757a2.555,2.555,0,0,0-.552,2.51c.385,1.057,1.6,1.816,3.427,2.138,2.656.468,3.611,1.657,3.943,2.571a3.22,3.22,0,0,1-.669,3.175,3.621,3.621,0,0,1-2.747,1.323"
            transform="translate(67.649 505.288)" />
        <path class="a"
            d="M.337,3.147A.337.337,0,0,1,0,2.81V.337a.337.337,0,1,1,.674,0V2.81a.337.337,0,0,1-.337.337"
            transform="translate(71.486 502.875)" />
        <path class="a"
            d="M.337,3.147A.337.337,0,0,1,0,2.81V.337a.337.337,0,1,1,.674,0V2.81a.337.337,0,0,1-.337.337"
            transform="translate(71.486 518.045)" />
        <g class="b" transform="translate(56.494 496.736)">
            <path class="a"
                d="M15.335,30.669A15.335,15.335,0,1,1,30.67,15.335,15.352,15.352,0,0,1,15.335,30.669Zm0-29.786A14.451,14.451,0,1,0,29.786,15.335,14.468,14.468,0,0,0,15.335.883Z"
                transform="translate(0 0)" />
        </g>
    </g>
</svg>