<svg xmlns="http://www.w3.org/2000/svg" width="103.438" height="126.946"
    viewBox="0 0 103.438 126.946">
    <defs>
        <style>.a{fill:#fff;}</style>
    </defs>
    <g transform="translate(-5)">
        <path class="a"
            d="M94.332,47.283v-13.2C94.332,15.292,77.458,0,56.719,0S19.105,15.292,19.105,34.087a2.351,2.351,0,0,0,4.7,0C23.807,17.883,38.57,4.7,56.719,4.7S89.631,17.883,89.631,34.087v12.93H21.994A17.014,17.014,0,0,0,5,64.011v45.94a17.014,17.014,0,0,0,16.994,16.994H91.443a17.014,17.014,0,0,0,16.994-16.994V64.011A17.009,17.009,0,0,0,94.332,47.283Zm9.4,62.669a12.307,12.307,0,0,1-12.293,12.293H21.994A12.307,12.307,0,0,1,9.7,109.952V64.011A12.307,12.307,0,0,1,21.994,51.719H91.443a12.307,12.307,0,0,1,12.293,12.293Z"
            transform="translate(0)" />
        <path class="a"
            d="M32.4,28A9.413,9.413,0,0,0,23,37.4V51.509a9.4,9.4,0,0,0,18.807,0V37.4A9.413,9.413,0,0,0,32.4,28Zm4.7,23.509a4.7,4.7,0,0,1-9.4,0V37.4a4.7,4.7,0,0,1,9.4,0Z"
            transform="translate(24.315 37.824)" />
    </g>
</svg>