<svg xmlns="http://www.w3.org/2000/svg" width="73" height="128" viewBox="0 0 73 128">
    <defs>
        <style>.a,.b{fill:#fff;}.a{stroke:#294073;}</style>
    </defs>
    <g transform="translate(-151.5 -158.5)">
        <g transform="translate(149.499 159.187)">
            <path class="a"
                d="M9.326,127A9.339,9.339,0,0,1,0,117.673V9.323A9.336,9.336,0,0,1,9.326,0H62.67A9.338,9.338,0,0,1,72,9.323V88.9c0,.032,0,.064,0,.1v28.683A9.339,9.339,0,0,1,62.67,127Zm-5.093-9.325a5.1,5.1,0,0,0,5.093,5.09H62.67a5.1,5.1,0,0,0,5.095-5.09V101.6H4.233Zm0-20.309H67.765V16.934H4.233Zm0-88.043V12.7H67.763V9.323a5.1,5.1,0,0,0-5.093-5.09H9.326A5.1,5.1,0,0,0,4.231,9.323Zm23.3,102.86A8.471,8.471,0,1,1,36,120.649,8.477,8.477,0,0,1,27.53,112.183Zm4.234,0A4.234,4.234,0,1,0,36,107.95,4.24,4.24,0,0,0,31.765,112.183Zm10.587-101.6a2.116,2.116,0,1,1,0-4.233h2.12a2.116,2.116,0,1,1,0,4.233Zm-14.821,0a2.116,2.116,0,1,1,0-4.233H36a2.116,2.116,0,0,1,0,4.233Z"
                transform="translate(2.501 -0.187)" />
        </g>
        <g transform="translate(167 196.595)">
            <path class="b"
                d="M32.378,14.491V10.447C32.378,4.687,27.206,0,20.85,0S9.323,4.687,9.323,10.447a.72.72,0,0,0,1.441,0c0-4.966,4.525-9.006,10.087-9.006s10.087,4.04,10.087,9.006v3.963H10.208A5.214,5.214,0,0,0,5,19.618V33.7a5.214,5.214,0,0,0,5.208,5.208H31.492A5.214,5.214,0,0,0,36.7,33.7V19.618A5.213,5.213,0,0,0,32.378,14.491ZM35.26,33.7a3.772,3.772,0,0,1-3.767,3.767H10.208A3.772,3.772,0,0,1,6.441,33.7V19.618a3.772,3.772,0,0,1,3.767-3.767H31.492a3.772,3.772,0,0,1,3.767,3.767Z"
                transform="translate(0)" />
            <path class="b"
                d="M25.882,28A2.885,2.885,0,0,0,23,30.882V35.2a2.882,2.882,0,1,0,5.764,0V30.882A2.885,2.885,0,0,0,25.882,28Zm1.441,7.2a1.441,1.441,0,0,1-2.882,0V30.882a1.441,1.441,0,1,1,2.882,0Z"
                transform="translate(-5.032 -7.827)" />
        </g>
    </g>
</svg>