<svg xmlns="http://www.w3.org/2000/svg" width="80.959" height="116.983"
    viewBox="0 0 80.959 116.983">
    <defs>
        <style>
            .a,.b{fill:#fff;}.a{stroke:#263d70;}.c{fill:none;stroke:#fff;stroke-linecap:round;stroke-width:3px;}
        </style>
    </defs>
    <g transform="translate(-146.687 -164.167)">
        <g transform="translate(147.187 164.667)">
            <g transform="translate(0 0)">
                <path class="a"
                    d="M76.76,115.983H3.2A3.22,3.22,0,0,1,0,112.761V32.218A3.34,3.34,0,0,1,.928,29.93l28.785-29A3.291,3.291,0,0,1,31.983,0H76.76a3.22,3.22,0,0,1,3.2,3.222v109.54A3.22,3.22,0,0,1,76.76,115.983ZM6.4,109.54H73.562V6.444H33.295L6.4,33.538Z"
                    transform="translate(0 0)" />
            </g>
            <g transform="translate(3.458 5.234)">
                <path class="b" d="M50.266,49.891H14.6V43.414H43.789V14h6.477Z"
                    transform="translate(-14.6 -14)" />
            </g>
        </g>
        <g transform="translate(-3037.281 774.719)">
            <path class="c" d="M3212.633-548.342l25.479,25.479" />
            <path class="c" d="M3238.111-548.342l-25.479,25.479" />
        </g>
    </g>
</svg>