<svg xmlns="http://www.w3.org/2000/svg" width="109" height="113" viewBox="0 0 109 113">
    <defs>
        <clipPath id="clip-Prancheta_1">
            <rect width="109" height="113" />
        </clipPath>
    </defs>
    <g id="Prancheta_1" data-name="Prancheta – 1" clip-path="url(#clip-Prancheta_1)">
        <g id="internet_fail-01" data-name="internet fail-01" transform="translate(-9.9 -11.45)">
            <path id="Caminho_3461" data-name="Caminho 3461"
                d="M55.756,91.554h2.137A42.687,42.687,0,0,0,93.162,69.538l.214-.214a1.256,1.256,0,0,0,.427-1.069v-.427A37.866,37.866,0,0,0,97.65,51.37c0-20.947-17.955-38.9-39.756-39.97H55.97a40.078,40.078,0,1,0-.214,80.155ZM89.1,70.821a41.111,41.111,0,0,1-19.878,15.6L66.443,87.49l1.924-2.351c2.992-3.634,5.557-8.977,7.267-14.962l.214-.641H89.742Zm5.771-17.313a33.651,33.651,0,0,1-3.42,12.825l-.214.427H76.49l.214-1.069a58.035,58.035,0,0,0,1.282-12.4v-.855H94.658ZM90.383,34.484a33.5,33.5,0,0,1,4.275,14.748v.855H77.986v-.855a77.221,77.221,0,0,0-1.71-14.321l-.214-.855H90.169ZM69.222,16.53A39.477,39.477,0,0,1,87.6,30.209l.855,1.282H75.207l-.214-.641a37.439,37.439,0,0,0-6.84-13.038L66.23,15.461ZM57.894,14.179l1.069.214C64.306,15.675,69.009,21.446,72,30.423l.427,1.069H57.894Zm0,19.878h15.39l.214.641a53.084,53.084,0,0,1,1.924,14.535v.855H57.894Zm0,18.6H75.421v.855a75.52,75.52,0,0,1-1.5,12.611l-.214.641H57.894Zm0,16.886H73.07l-.214,1.069c-2.992,10.046-8.122,16.458-13.68,17.955l-1.069.214V69.538Zm-36.55-3.206a37.486,37.486,0,0,1-2.992-12.825v-.855H35.237v.855a110.381,110.381,0,0,0,1.282,12.4l.214.855H21.557Zm23.3,20.733A37.381,37.381,0,0,1,23.7,70.607l-.641-1.282h14.32l.214.641c1.924,6.626,4.489,11.97,8.122,15.817l1.924,2.137Zm10.687,1.71-1.069-.214c-5.771-1.5-10.687-7.909-13.68-17.955l-.214-1.069H55.543V88.775Zm0-22.016H39.512l-.214-.641a61.654,61.654,0,0,1-1.5-12.611v-.855H55.329v14.1Zm0-16.672H37.8v-.855A77.023,77.023,0,0,1,39.726,34.7l.214-.641H55.115V50.088Zm-1.069-35.7,1.069-.214V31.492H40.794l.427-1.069c2.993-8.977,7.7-14.748,13.039-16.031ZM24.977,30.209A38.3,38.3,0,0,1,44.642,15.675l2.779-.855L45.5,16.957A40.542,40.542,0,0,0,38.019,30.85l-.214.641h-13.9ZM18.351,49.233a36.281,36.281,0,0,1,4.061-14.748l.214-.427H37.161l-.214,1.069a61.142,61.142,0,0,0-1.71,14.321V50.3H18.565Z"
                transform="translate(6.938)" fill="#fff" />
            <path id="Caminho_3462" data-name="Caminho 3462"
                d="M43.564,64.213l9.4-9.4a1.36,1.36,0,1,0-1.924-1.924L41.427,62.5l-9.832-9.832a1.6,1.6,0,0,0-1.924,0,1.6,1.6,0,0,0,0,1.924l9.4,9.4-9.4,9.4a1.6,1.6,0,0,0,0,1.924,1.6,1.6,0,0,0,1.924,0L41.427,65.5l9.832,9.832A1.363,1.363,0,1,0,53.182,73.4Z"
                transform="translate(22.123 46.578)" fill="#fff" />
            <path id="Caminho_3463" data-name="Caminho 3463"
                d="M79.746,57.1H42.982a1.283,1.283,0,1,0,0,2.565H79.746a1.282,1.282,0,1,0,0-2.565Z"
                transform="translate(36.171 51.981)" fill="#fff" />
            <path id="Caminho_3464" data-name="Caminho 3464"
                d="M47.946,57.1H11.182a1.283,1.283,0,0,0,0,2.565H47.946a1.282,1.282,0,1,0,0-2.565Z"
                transform="translate(0 51.981)" fill="#fff" />
        </g>
    </g>
</svg>
