<svg xmlns="http://www.w3.org/2000/svg" width="19.258" height="11.031" viewBox="0 0 19.258 11.031">
    <defs>
        <style>.a{fill:#fff;}</style>
    </defs>
    <g transform="translate(0 -12.644)">
        <path class="a"
            d="M16.61,15.545a9.93,9.93,0,0,0-14.027,0L0,18.128l2.647,2.647a9.93,9.93,0,0,0,14.027,0l2.583-2.583Zm-.4,4.77a9.279,9.279,0,0,1-13.107,0L.92,18.128,3.043,16A9.279,9.279,0,0,1,16.15,16l2.187,2.187Z"
            transform="translate(0 0)" />
        <path class="a"
            d="M20.8,16.57A4.229,4.229,0,1,0,25.03,20.8,4.234,4.234,0,0,0,20.8,16.57Zm0,7.807A3.578,3.578,0,1,1,24.379,20.8,3.583,3.583,0,0,1,20.8,24.377Z"
            transform="translate(-11.181 -2.649)" />
    </g>
</svg>