<svg xmlns="http://www.w3.org/2000/svg" width="22.753" height="22.753" viewBox="0 0 22.753 22.753">
    <defs>
        <style>.a{fill:#fff;}.b{fill:#fe0;}.c{fill:#0096db;}.d{fill:#e82717;}</style>
    </defs>
    <g transform="translate(0 0)">
        <rect width="22.753" height="22.753" rx="11" transform="translate(0 0)" />
        <g transform="translate(4.101 6.67)">
            <g transform="translate(0 0)">
                <g transform="translate(0 1.436)">
                    <path class="a"
                        d="M301.555,330.693a1.864,1.864,0,0,1-2.311.246l-.7,1.112a3.183,3.183,0,0,0,3.924-.417Z"
                        transform="translate(-297.056 -326.164)" />
                    <path class="a"
                        d="M277.848,257.974a3.189,3.189,0,0,0-2.72,4.928l5.774-2.468a3.189,3.189,0,0,0-3.055-2.46m-1.914,3.386a1.648,1.648,0,0,1-.011-.226,1.876,1.876,0,0,1,3.31-1.182Z"
                        transform="translate(-274.613 -257.974)" />
                </g>
                <path class="a"
                    d="M386.364,234.914v6.156l1.068.443-.505,1.214-1.056-.439a1.2,1.2,0,0,1-.52-.437,1.375,1.375,0,0,1-.2-.764v-6.173Z"
                    transform="translate(-378.262 -234.914)" />
                <g transform="translate(9.359 1.436)">
                    <path class="b"
                        d="M460.28,259.376a1.878,1.878,0,0,1,2.433,1.405l1.287-.262a3.192,3.192,0,0,0-4.136-2.388Z"
                        transform="translate(-457.686 -257.967)" />
                    <path class="c"
                        d="M425.965,275.6l.869-.983a1.876,1.876,0,0,1,0-2.81l-.87-.983a3.189,3.189,0,0,0,0,4.776Z"
                        transform="translate(-424.889 -270.026)" />
                    <path class="d"
                        d="M462.69,315.215a1.878,1.878,0,0,1-2.434,1.4l-.417,1.245a3.192,3.192,0,0,0,4.137-2.385Z"
                        transform="translate(-457.662 -311.65)" />
                </g>
            </g>
        </g>
    </g>
</svg>