<svg xmlns="http://www.w3.org/2000/svg" width="58.307" height="15.344" viewBox="0 0 58.307 15.344">
    <defs>
        <style>.a{fill:#fff;}</style>
    </defs>
    <g transform="translate(-0.679 -0.288)">
        <g transform="translate(0.679 1.822)">
            <path class="a" d="M6.188,36.16l6.138-3.069H.817Z"
                transform="translate(-0.817 -22.35)" />
            <path class="a" d="M22.356,7.419,16.219,4.35l6.138,9.974Z"
                transform="translate(-10.848 -4.35)" />
            <path class="a" d="M.817,7.419,6.188,4.35.817,14.323Z"
                transform="translate(-0.817 -4.35)" />
        </g>
        <g transform="translate(14.488 0.288)">
            <g transform="translate(0 1.534)">
                <path class="a"
                    d="M41.163,4.814c-1.933,0-3.069,1.866-3.069,3.836a2.969,2.969,0,0,0,2.3,3.069l1.534-1.534h-.767A1.4,1.4,0,0,1,39.629,8.65c0-.967.568-2.3,1.534-2.3H54.205V4.814Z"
                    transform="translate(-38.094 -4.814)" />
            </g>
            <path class="a"
                d="M47.4,19.133H42.8l-1.534,1.534H47.4c1.041,0,1.534,1.3,1.534,2.3A1.372,1.372,0,0,1,47.4,24.5H38.2v1.534H47.4c2.008,0,3.836-1.061,3.836-3.069A4.043,4.043,0,0,0,47.4,19.133Z"
                transform="translate(-38.197 -12.228)" />
            <g transform="translate(26.085)">
                <path class="a"
                    d="M123.518,1.055l-1.534.767L115.846,7.96l-6.138-6.138h-1.534V14.1h1.534V4.891l6.138,5.37h0l6.9-6.138L126.587.288Z"
                    transform="translate(-108.174 -0.288)" />
                <path class="a" d="M145.76,11.925v8.439h1.534V10.391Z"
                    transform="translate(-131.951 -6.555)" />
            </g>
            <path class="a"
                d="M82.856,11.718c1.859-.112,3.836-1.21,3.836-3.069a4.1,4.1,0,0,0-3.836-3.836H76.718V6.348h6.138c.967,0,1.534,1.335,1.534,2.3a1.4,1.4,0,0,1-1.534,1.534H75.184V7.115H73.65v9.974h1.534v-5.37h5.37l5.37,5.37h2.3Z"
                transform="translate(-60.607 -3.279)" />
        </g>
    </g>
</svg>