<svg xmlns="http://www.w3.org/2000/svg" width="106.114" height="128.661"
    viewBox="0 0 106.114 128.661">
    <defs>
        <style>.a,.b{fill:#fff;}.b{stroke:#263d70;stroke-width:2px;}</style>
    </defs>
    <g transform="translate(-134.928 -116.151)">
        <g transform="translate(159.746 152.121)">
            <path class="a"
                d="M44.3,20.8V15c0-8.269-7.424-15-16.549-15S11.206,6.728,11.206,15a1.034,1.034,0,0,0,2.069,0c0-7.129,6.5-12.929,14.48-12.929S42.235,7.868,42.235,15v5.689H12.477A7.485,7.485,0,0,0,5,28.163V48.375a7.485,7.485,0,0,0,7.477,7.477H43.032a7.485,7.485,0,0,0,7.477-7.477V28.163A7.483,7.483,0,0,0,44.3,20.8ZM48.44,48.375a5.415,5.415,0,0,1-5.408,5.408H12.477a5.415,5.415,0,0,1-5.408-5.408V28.163a5.415,5.415,0,0,1,5.408-5.408H43.032a5.415,5.415,0,0,1,5.408,5.408Z"
                transform="translate(0)" />
            <path class="a"
                d="M27.137,28A4.141,4.141,0,0,0,23,32.137v6.206a4.137,4.137,0,1,0,8.274,0V32.137A4.141,4.141,0,0,0,27.137,28Zm2.069,10.343a2.069,2.069,0,0,1-4.137,0V32.137a2.069,2.069,0,1,1,4.137,0Z"
                transform="translate(0.617 0.96)" />
        </g>
        <g transform="translate(90.418 117.187)">
            <g transform="translate(45.51 0)">
                <path class="b"
                    d="M146.986,15.482c-15.8-.989-31.96-6.077-48.04-15.12a2.814,2.814,0,0,0-2.759,0c-16.08,9.044-32.242,14.131-48.04,15.12A2.814,2.814,0,0,0,45.51,18.29V71.754a42.949,42.949,0,0,0,8.2,25.022,69.4,69.4,0,0,0,17.633,16.9A107.764,107.764,0,0,0,96.7,126.49a2.816,2.816,0,0,0,1.725,0,107.782,107.782,0,0,0,25.356-12.815,69.388,69.388,0,0,0,17.633-16.9,42.944,42.944,0,0,0,8.206-25.022V18.29A2.814,2.814,0,0,0,146.986,15.482ZM144,71.754c0,14-7.838,26.517-23.3,37.212a105.356,105.356,0,0,1-23.134,11.869,105.02,105.02,0,0,1-23.023-11.794C59.012,98.332,51.138,85.787,51.138,71.754V20.9C66.485,19.523,82.083,14.53,97.567,6.033,113.051,14.529,128.65,19.523,144,20.9V71.754Z"
                    transform="translate(-45.51 0)" />
            </g>
        </g>
    </g>
</svg>