<svg xmlns="http://www.w3.org/2000/svg" width="29.649" height="18.333" viewBox="0 0 29.649 18.333">
    <defs>
        <style>.a{fill:#f79410;}.b{fill:#ff5f00;}.c{fill:#eb001b;}.d{fill:#f79e1b;}</style>
    </defs>
    <g transform="translate(0 0)">
        <g transform="translate(0 0)">
            <g transform="translate(28.608 14.484)">
                <path class="a"
                    d="M-642.735-377.768v-.357h-.1l-.1.244-.1-.244h-.1v.357h.069v-.27l.1.235h.07l.1-.235v.27Zm-.583,0v-.3h.122v-.061h-.3v.061h.121v.3Z"
                    transform="translate(643.5 378.125)" />
            </g>
            <path class="b" d="M212.021,167.109H204V152.7h8.021Z"
                transform="translate(-193.182 -150.736)" />
            <path class="c"
                d="M-1004.668-564.958a9.162,9.162,0,0,1,3.5-7.21,9.115,9.115,0,0,0-5.661-1.957,9.168,9.168,0,0,0-9.166,9.167,9.167,9.167,0,0,0,9.166,9.166,9.112,9.112,0,0,0,5.661-1.957,9.184,9.184,0,0,1-3.5-7.209"
                transform="translate(1016 574.125)" />
            <g transform="translate(14.813 0.009)">
                <path class="d"
                    d="M-827.539-564.842a9.168,9.168,0,0,1-9.166,9.166,9.114,9.114,0,0,1-5.662-1.957,9.145,9.145,0,0,0,3.5-7.209,9.136,9.136,0,0,0-3.5-7.2A9.114,9.114,0,0,1-836.714-574a9.157,9.157,0,0,1,9.175,9.158"
                    transform="translate(842.375 574)" />
            </g>
        </g>
    </g>
</svg>