<svg xmlns="http://www.w3.org/2000/svg" width="18.714" height="18.714" viewBox="0 0 18.714 18.714">
    <defs>
        <style>.a{fill:#fff;}</style>
    </defs>
    <g transform="translate(-577.003 -3470.003)">
        <path class="a"
            d="M2.6,7.359a1.76,1.76,0,0,1-.307-.027l-1.72-.3a.184.184,0,1,1,.064-.362l1.72.3A1.575,1.575,0,0,0,3.818,6.4a1.4,1.4,0,0,0,.3-1.371A2.24,2.24,0,0,0,2.248,3.861C.8,3.605.276,2.956.094,2.457A1.759,1.759,0,0,1,.46.723a1.941,1.941,0,0,1,1.807-.7L3.859.308A.184.184,0,0,1,3.8.67L2.2.389A1.576,1.576,0,0,0,.742.96a1.4,1.4,0,0,0-.3,1.371A2.24,2.24,0,0,0,2.312,3.5c1.451.256,1.972.9,2.154,1.4A1.758,1.758,0,0,1,4.1,6.637a1.978,1.978,0,0,1-1.5.723"
            transform="translate(584.092 3475.67)" />
        <path class="a"
            d="M.184,1.719A.184.184,0,0,1,0,1.534V.184a.184.184,0,1,1,.368,0v1.35a.184.184,0,0,1-.184.184"
            transform="translate(586.188 3474.352)" />
        <path class="a"
            d="M.184,1.446A.171.171,0,0,1,0,1.291V.155A.171.171,0,0,1,.184,0,.171.171,0,0,1,.368.155V1.291a.171.171,0,0,1-.184.155"
            transform="translate(586.188 3482.625)" />
        <g transform="translate(577.003 3470.003)">
            <path class="a"
                d="M9.357,18.714a9.357,9.357,0,1,1,9.357-9.357A9.368,9.368,0,0,1,9.357,18.714Zm0-18.175a8.818,8.818,0,1,0,8.818,8.818A8.828,8.828,0,0,0,9.357.539Z"
                transform="translate(0 0)" />
        </g>
    </g>
</svg>