<svg xmlns="http://www.w3.org/2000/svg" width="106.114" height="128.661"
    viewBox="0 0 106.114 128.661">
    <defs>
        <style>
            .a{fill:#fff;stroke:#263d70;stroke-width:2px;}.b{fill:none;stroke:#fff;stroke-linecap:round;stroke-linejoin:round;stroke-width:3px;}
        </style>
    </defs>
    <g transform="translate(-134.928 -116.152)">
        <g transform="translate(90.418 117.187)">
            <g transform="translate(45.51 0)">
                <path class="a"
                    d="M146.986,15.482c-15.8-.989-31.96-6.077-48.04-15.12a2.814,2.814,0,0,0-2.759,0c-16.08,9.044-32.242,14.131-48.04,15.12A2.814,2.814,0,0,0,45.51,18.29V71.754a42.949,42.949,0,0,0,8.2,25.022,69.4,69.4,0,0,0,17.633,16.9A107.764,107.764,0,0,0,96.7,126.49a2.816,2.816,0,0,0,1.725,0,107.782,107.782,0,0,0,25.356-12.815,69.388,69.388,0,0,0,17.633-16.9,42.944,42.944,0,0,0,8.206-25.022V18.29A2.814,2.814,0,0,0,146.986,15.482ZM144,71.754c0,14-7.838,26.517-23.3,37.212a105.356,105.356,0,0,1-23.134,11.869,105.02,105.02,0,0,1-23.023-11.794C59.012,98.332,51.138,85.787,51.138,71.754V20.9C66.485,19.523,82.083,14.53,97.567,6.033,113.051,14.529,128.65,19.523,144,20.9V71.754Z"
                    transform="translate(-45.51 0)" />
            </g>
        </g>
        <path class="b" d="M5650.42-548.813l13.221,14.329,8.943-8.944,19.679-19.677"
            transform="translate(-5483.777 729.468)" />
    </g>
</svg>