<svg xmlns="http://www.w3.org/2000/svg" width="34.951" height="31.911" viewBox="0 0 34.951 31.911">
    <defs>
        <style>.a{fill:rgba(0,0,0,0);}.b{fill:none;}.c,.d{fill:#5b96cc;}.d{stroke:rgba(0,0,0,0);}
        </style>
    </defs>
    <rect class="a" width="34.95" height="31.911" transform="translate(0 0)" />
    <g transform="translate(0 0.409)">
        <g transform="translate(0 0)">
            <path class="b" d="M0,0H34.606V24.137H0Z" transform="translate(0)" />
            <g transform="translate(0 0)">
                <path class="c"
                    d="M32.385,24.137H2.222A2.4,2.4,0,0,1,0,21.59V2.547A2.4,2.4,0,0,1,2.222,0H32.385a2.4,2.4,0,0,1,2.222,2.547V21.59A2.4,2.4,0,0,1,32.385,24.137ZM2.222.921A1.535,1.535,0,0,0,.8,2.547V21.59a1.535,1.535,0,0,0,1.42,1.626H32.385A1.535,1.535,0,0,0,33.8,21.59V2.547A1.535,1.535,0,0,0,32.385.921Z"
                    transform="translate(0 0)" />
            </g>
        </g>
        <path class="c"
            d="M14.9,6.607H.4a.434.434,0,0,1-.4-.46A2.1,2.1,0,0,1,1.938,3.923H4.776l.946-3.6a.4.4,0,0,1,.5-.308A.475.475,0,0,1,6.49.594L5.458,4.516a.412.412,0,0,1-.384.327H1.938a1.155,1.155,0,0,0-1.062.843H14.424a1.156,1.156,0,0,0-1.063-.843H10.225a.416.416,0,0,1-.39-.353L9.016.568a.466.466,0,0,1,.3-.554A.4.4,0,0,1,9.8.354l.746,3.569h2.82A2.1,2.1,0,0,1,15.3,6.146a.434.434,0,0,1-.4.46"
            transform="translate(9.654 24.613)" />
        <path class="d"
            d="M.133,12.709a.51.51,0,0,1-.031-.65L5.577,5.072a.367.367,0,0,1,.458-.115l9.6,4.756L22.258.987l-1.226.087a.434.434,0,0,1-.425-.432.441.441,0,0,1,.375-.487L23.164,0h.013a.369.369,0,0,1,.271.108l0,0,0,0h0l0,0,0,0A.489.489,0,0,1,23.59.45l.133,2.485a.442.442,0,0,1-.377.487h-.024a.429.429,0,0,1-.4-.432l-.074-1.38-6.8,8.959a.368.368,0,0,1-.462.122L5.981,5.932.7,12.674a.38.38,0,0,1-.3.153A.37.37,0,0,1,.133,12.709Z"
            transform="translate(5.573 5.655)" />
    </g>
</svg>