<svg xmlns="http://www.w3.org/2000/svg" width="25.224" height="34.847" viewBox="0 0 25.224 34.847">
    <defs>
        <style>.a{fill:none;}.b{fill:#5b96cc;}</style>
    </defs>
    <g transform="translate(0 0)">
        <path class="a" d="M0,0H25.223V34.847H0Z" transform="translate(0 0)" />
        <path class="b"
            d="M20.835,34.847H4.388A4.2,4.2,0,0,1,0,30.877V3.97A4.2,4.2,0,0,1,4.388,0H20.835a4.2,4.2,0,0,1,4.388,3.97V30.877A4.2,4.2,0,0,1,20.835,34.847ZM4.388.871A3.279,3.279,0,0,0,.963,3.97V30.877a3.279,3.279,0,0,0,3.426,3.1H20.835a3.279,3.279,0,0,0,3.426-3.1V3.97a3.279,3.279,0,0,0-3.426-3.1Z" />
    </g>
    <path class="b"
        d="M17.266,6.82H1.99A1.88,1.88,0,0,1,0,5.079V1.742A1.88,1.88,0,0,1,1.99,0H17.266a1.881,1.881,0,0,1,1.99,1.742V5.079A1.881,1.881,0,0,1,17.266,6.82ZM1.99.871A.94.94,0,0,0,1,1.742V5.079a.94.94,0,0,0,.995.871H17.266a.94.94,0,0,0,1-.871V1.742a.94.94,0,0,0-1-.871Z"
        transform="translate(2.984 3.034)" />
    <path class="b"
        d="M1.861,3.721A1.86,1.86,0,1,1,3.722,1.86,1.863,1.863,0,0,1,1.861,3.721Zm0-2.85a.99.99,0,1,0,.99.99A.991.991,0,0,0,1.861.871Z"
        transform="translate(4.155 13.831)" />
    <path class="b"
        d="M1.861,3.721A1.86,1.86,0,1,1,3.722,1.86,1.863,1.863,0,0,1,1.861,3.721Zm0-2.85a.99.99,0,1,0,.99.99A.991.991,0,0,0,1.861.871Z"
        transform="translate(10.751 13.831)" />
    <path class="b"
        d="M1.861,3.721A1.86,1.86,0,1,1,3.722,1.86,1.863,1.863,0,0,1,1.861,3.721Zm0-2.85a.99.99,0,1,0,.99.99A.991.991,0,0,0,1.861.871Z"
        transform="translate(17.348 13.831)" />
    <path class="b"
        d="M1.861,3.721a1.861,1.861,0,1,1,1.861-1.86A1.863,1.863,0,0,1,1.861,3.721Zm0-2.85a.99.99,0,1,0,.99.99A.991.991,0,0,0,1.861.871Z"
        transform="translate(4.155 20.133)" />
    <path class="b"
        d="M1.861,3.721a1.861,1.861,0,1,1,1.861-1.86A1.863,1.863,0,0,1,1.861,3.721Zm0-2.85a.99.99,0,1,0,.99.99A.991.991,0,0,0,1.861.871Z"
        transform="translate(10.751 20.133)" />
    <path class="b"
        d="M1.861,3.721a1.861,1.861,0,1,1,1.861-1.86A1.863,1.863,0,0,1,1.861,3.721Zm0-2.85a.99.99,0,1,0,.99.99A.991.991,0,0,0,1.861.871Z"
        transform="translate(17.348 20.133)" />
    <path class="b"
        d="M1.861,3.721A1.86,1.86,0,1,1,3.722,1.86,1.863,1.863,0,0,1,1.861,3.721Zm0-2.85a.99.99,0,1,0,.99.99A.991.991,0,0,0,1.861.871Z"
        transform="translate(4.155 26.757)" />
    <path class="b"
        d="M7.72,3.721H1.86A1.86,1.86,0,1,1,1.86,0H7.72a1.86,1.86,0,0,1,0,3.721ZM1.86.871a.99.99,0,1,0,0,1.979H7.72a.99.99,0,0,0,0-1.979Z"
        transform="translate(11.283 26.757)" />
</svg>