<svg xmlns="http://www.w3.org/2000/svg" width="20.503" height="20.501" viewBox="0 0 20.503 20.501">
    <defs>
        <style>.a{fill:#5b96cc;stroke:#fff;stroke-width:0.5px;}</style>
    </defs>
    <g transform="translate(0.25 0.25)">
        <g transform="translate(0)">
            <path class="a"
                d="M155.636,0h8.87a2.1,2.1,0,0,1,2.047,2.143V6.429a.683.683,0,1,1-1.365,0V2.143a.7.7,0,0,0-.682-.714h-8.87a.7.7,0,0,0-.682.714V17.858a.7.7,0,0,0,.682.714h8.87a.7.7,0,0,0,.682-.714V13.572a.683.683,0,1,1,1.365,0v4.286A2.1,2.1,0,0,1,164.506,20h-8.87a2.1,2.1,0,0,1-2.047-2.143V2.143A2.1,2.1,0,0,1,155.636,0Z"
                transform="translate(-153.589 0)" />
        </g>
        <g transform="translate(3.58 5.317)">
            <path class="a"
                d="M.793,140.644H13.762l-2.575-2.575a.782.782,0,0,1,1.106-1.106l3.91,3.91a.773.773,0,0,1,.169.254.784.784,0,0,1-.17.852l-3.91,3.91a.782.782,0,0,1-1.125-1.086l.019-.019,2.576-2.576H.792a.782.782,0,1,1,0-1.564Z"
                transform="translate(-0.011 -136.744)" />
        </g>
    </g>
</svg>