<svg xmlns="http://www.w3.org/2000/svg" width="8.152" height="11.734" viewBox="0 0 8.152 11.734">
    <defs>
        <style>.a{fill:#1e376f;stroke:#fff;stroke-width:0.2px;}</style>
    </defs>
    <g transform="translate(0.1 0.1)">
        <g transform="translate(0.543 0.52)">
            <path class="a" d="M18.147,17.569H14.6v-.744h2.8V14h.744Z"
                transform="translate(-14.6 -14)" />
        </g>
        <path class="a"
            d="M7.633,11.534H.318A.32.32,0,0,1,0,11.213V3.2a.332.332,0,0,1,.092-.227L2.955.093A.327.327,0,0,1,3.181,0H7.633a.32.32,0,0,1,.318.32V11.213A.32.32,0,0,1,7.633,11.534Zm-7-.641H7.315V.641h-4L.636,3.335Z" />
    </g>
</svg>