<svg xmlns="http://www.w3.org/2000/svg" width="16" height="16" viewBox="0 0 16 16">
    <defs>
        <style>.a{fill:#fff;}</style>
    </defs>
    <path class="a"
        d="M657.5,1590.7a8,8,0,1,0,8,8A7.967,7.967,0,0,0,657.5,1590.7Zm0,.485a7.553,7.553,0,0,1,7.515,7.515,7.455,7.455,0,0,1-1.7,4.768,4.448,4.448,0,0,0-2.02-.808c-.323-.081-.646-.162-.889-.242s-.4-.162-.4-.243l-.4-.808a3.585,3.585,0,0,0,.646-.889,9.729,9.729,0,0,0,.889-4.364,2.546,2.546,0,0,0-1.212-2.182,4.576,4.576,0,0,0-2.424-.808,3.974,3.974,0,0,0-2.424.808,2.652,2.652,0,0,0-1.212,2.182,9.981,9.981,0,0,0,.889,4.364,3.584,3.584,0,0,0,.646.889l-.4.808c0,.081-.162.161-.4.243s-.566.161-.889.242a4.841,4.841,0,0,0-2.02.808,7.622,7.622,0,0,1-1.7-4.768A7.5,7.5,0,0,1,657.5,1591.185Zm0,2.5a3.72,3.72,0,0,1,2.182.727,2.138,2.138,0,0,1,1.051,1.859,9.551,9.551,0,0,1-.808,4.121,2.556,2.556,0,0,1-4.687,0,8.493,8.493,0,0,1-.808-4.121,2.353,2.353,0,0,1,1.05-1.859A2.954,2.954,0,0,1,657.5,1593.69Zm-1.7,8.081a2.612,2.612,0,0,0,1.778.565,3.319,3.319,0,0,0,1.778-.565l.323.646a1.258,1.258,0,0,0,.646.485l.97.242a5.109,5.109,0,0,1,1.778.646,7.613,7.613,0,0,1-10.99,0,3.151,3.151,0,0,1,1.778-.646l.97-.242a.839.839,0,0,0,.646-.485Z"
        transform="translate(-649.5 -1590.7)" />
</svg>