<svg xmlns="http://www.w3.org/2000/svg" width="38.75" height="12.425" viewBox="0 0 38.75 12.425">
    <defs>
        <style>.a{fill:#059bbf;}</style>
    </defs>
    <g transform="translate(0)">
        <path class="a" d="M-519.4,190.9h-3.147l-1.957,12.055h3.138Z"
            transform="translate(538.056 -190.697)" />
        <path class="a"
            d="M-666.639,189.82l-3.068,8.218-.52-2.188c.018.055.044.111.062.157l-1.058-5.328a1.261,1.261,0,0,0-1.367-.979h-4.866l-.044.24a12.4,12.4,0,0,1,2.927,1.136l3,10.776h3.324l4.937-12.032Z"
            transform="translate(677.5 -189.603)" />
        <path class="a"
            d="M-457.743,196.92c.009-1.365-.829-2.407-2.636-3.275-1.1-.553-1.772-.932-1.763-1.494,0-.5.564-1.033,1.8-1.033a5.546,5.546,0,0,1,2.345.461l.282.138.423-2.61a7.891,7.891,0,0,0-2.812-.507c-3.1,0-5.281,1.633-5.3,3.976-.018,1.734,1.56,2.694,2.751,3.275,1.217.59,1.631.969,1.622,1.494-.009.8-.97,1.171-1.878,1.171a6.427,6.427,0,0,1-2.953-.627l-.4-.194-.441,2.693a9.517,9.517,0,0,0,3.491.637C-459.9,201.025-457.761,199.42-457.743,196.92Z"
            transform="translate(485.442 -188.6)" />
        <path class="a"
            d="M-363.651,201.244h4.02c.1.416.379,1.81.379,1.81h2.909L-358.881,191h-2.424a1.545,1.545,0,0,0-1.64,1l-4.655,11.048h3.3C-364.3,203.055-363.774,201.568-363.651,201.244Zm2.151-5.847c-.018.037.264-.693.414-1.155l.212,1.044s.6,2.882.723,3.483h-2.6C-362.487,198.076-361.5,195.4-361.5,195.4Z"
            transform="translate(395.093 -190.788)" />
    </g>
</svg>