<svg xmlns="http://www.w3.org/2000/svg" width="68.853" height="69.606" viewBox="0 0 68.853 69.606"><defs><style>.a{fill:#5b96cc;}</style></defs><path class="a" d="M47.425,11.476V.043L24.474,11.519V0L.375,12.687V69.606H69.228V0ZM22.178,67.311H2.67V14.064L22.178,3.8Zm22.951,0H24.474V14.085L45.129,3.757Zm21.8,0H47.425V14.064L66.933,3.8Zm0,0" transform="translate(-0.375)"/><path class="a" d="M49.382,245.468H42.5v-6.886h6.886Zm-4.59-2.3h2.3v-2.3h-2.3Zm0,0" transform="translate(-37.906 -212.583)"/><path class="a" d="M123.1,245.468h-6.885v-6.886H123.1Zm-4.59-2.3H120.8v-2.3H118.51Zm0,0" transform="translate(-103.592 -212.583)"/><path class="a" d="M49.382,329.717H42.5v-6.885h6.886Zm-4.59-2.3h2.3v-2.294h-2.3Zm0,0" transform="translate(-37.906 -287.652)"/><path class="a" d="M123.1,329.717h-6.885v-6.885H123.1Zm-4.59-2.3H120.8v-2.294H118.51Zm0,0" transform="translate(-103.592 -287.652)"/><path class="a" d="M49.382,413.96H42.5v-6.885h6.886Zm-4.59-2.295h2.3v-2.3h-2.3Zm0,0" transform="translate(-37.906 -362.714)"/><path class="a" d="M123.1,413.96h-6.885v-6.885H123.1Zm-4.59-2.295H120.8v-2.3H118.51Zm0,0" transform="translate(-103.592 -362.714)"/><path class="a" d="M49.382,498.206H42.5V491.32h6.886Zm-4.59-2.3h2.3v-2.3h-2.3Zm0,0" transform="translate(-37.906 -437.78)"/><path class="a" d="M123.1,498.206h-6.885V491.32H123.1Zm-4.59-2.3H120.8v-2.3H118.51Zm0,0" transform="translate(-103.592 -437.78)"/><path class="a" d="M249.467,245.468h-6.885v-6.886h6.885Zm-4.59-2.3h2.295v-2.3h-2.295Zm0,0" transform="translate(-216.188 -212.583)"/><path class="a" d="M333.713,245.468h-6.885v-6.886h6.885Zm-4.59-2.3h2.3v-2.3h-2.3Zm0,0" transform="translate(-291.254 -212.583)"/><path class="a" d="M249.467,329.717h-6.885v-6.885h6.885Zm-4.59-2.3h2.295v-2.294h-2.295Zm0,0" transform="translate(-216.188 -287.652)"/><path class="a" d="M333.713,329.717h-6.885v-6.885h6.885Zm-4.59-2.3h2.3v-2.294h-2.3Zm0,0" transform="translate(-291.254 -287.652)"/><path class="a" d="M249.467,413.96h-6.885v-6.885h6.885Zm-4.59-2.295h2.295v-2.3h-2.295Zm0,0" transform="translate(-216.188 -362.714)"/><path class="a" d="M333.713,413.96h-6.885v-6.885h6.885Zm-4.59-2.295h2.3v-2.3h-2.3Zm0,0" transform="translate(-291.254 -362.714)"/><path class="a" d="M249.467,498.206h-6.885V491.32h6.885Zm-4.59-2.3h2.295v-2.3h-2.295Zm0,0" transform="translate(-216.188 -437.78)"/><path class="a" d="M333.713,498.206h-6.885V491.32h6.885Zm-4.59-2.3h2.3v-2.3h-2.3Zm0,0" transform="translate(-291.254 -437.78)"/><path class="a" d="M460.08,245.468H453.2v-6.886h6.885Zm-4.59-2.3h2.295v-2.3h-2.295Zm0,0" transform="translate(-403.85 -212.583)"/><path class="a" d="M533.8,245.468H526.91v-6.886H533.8Zm-4.591-2.3h2.3v-2.3h-2.3Zm0,0" transform="translate(-469.533 -212.583)"/><path class="a" d="M460.08,329.717H453.2v-6.885h6.885Zm-4.59-2.3h2.295v-2.294h-2.295Zm0,0" transform="translate(-403.85 -287.652)"/><path class="a" d="M533.8,329.717H526.91v-6.885H533.8Zm-4.591-2.3h2.3v-2.294h-2.3Zm0,0" transform="translate(-469.533 -287.652)"/><path class="a" d="M460.08,413.96H453.2v-6.885h6.885Zm-4.59-2.295h2.295v-2.3h-2.295Zm0,0" transform="translate(-403.85 -362.714)"/><path class="a" d="M533.8,413.96H526.91v-6.885H533.8Zm-4.591-2.295h2.3v-2.3h-2.3Zm0,0" transform="translate(-469.533 -362.714)"/><path class="a" d="M460.08,498.206H453.2V491.32h6.885Zm-4.59-2.3h2.295v-2.3h-2.295Zm0,0" transform="translate(-403.85 -437.78)"/><path class="a" d="M533.8,498.206H526.91V491.32H533.8Zm-4.591-2.3h2.3v-2.3h-2.3Zm0,0" transform="translate(-469.533 -437.78)"/></svg>